SplineFontDB: 3.0
FontName: Oldenburg-Regular
FullName: Oldenburg
FamilyName: Oldenburg
Weight: Book
Copyright: Copyright (c) 2010 by Sorkin Type Co with Reserved Font Name Oldenburgh.
Version: 1.001
ItalicAngle: 0
UnderlinePosition: -50
UnderlineWidth: 50
Ascent: 1638
Descent: 410
LayerCount: 2
Layer: 0 1 "Back"  1
Layer: 1 1 "Fore"  0
XUID: [1021 631 1661839179 16732250]
FSType: 0
OS2Version: 3
OS2_WeightWidthSlopeOnly: 0
OS2_UseTypoMetrics: 1
CreationTime: 1323822960
ModificationTime: 1324321061
PfmFamily: 17
TTFWeight: 400
TTFWidth: 5
LineGap: 9
VLineGap: 0
Panose: 2 0 0 0 0 0 0 0 0 0
OS2TypoAscent: 382
OS2TypoAOffset: 1
OS2TypoDescent: -130
OS2TypoDOffset: 1
OS2TypoLinegap: 0
OS2WinAscent: 0
OS2WinAOffset: 1
OS2WinDescent: 0
OS2WinDOffset: 1
HheadAscent: 0
HheadAOffset: 1
HheadDescent: 0
HheadDOffset: 1
OS2SubXSize: 1434
OS2SubYSize: 1331
OS2SubXOff: 0
OS2SubYOff: 287
OS2SupXSize: 1434
OS2SupYSize: 1331
OS2SupXOff: 0
OS2SupYOff: 977
OS2StrikeYSize: 102
OS2StrikeYPos: 512
OS2Vendor: 'STC '
OS2CodePages: 20000193.4d000000
OS2UnicodeRanges: a00000af.4800204a.14000000.00000000
DEI: 91125
TtTable: prep
PUSHW_1
 511
SCANCTRL
PUSHB_1
 4
SVTCA[y-axis]
EndTTInstrs
ShortTable: maxp 16
  1
  0
  426
  216
  7
  243
  4
  1
  0
  0
  0
  0
  0
  0
  2
  1
EndShort

StartChar: H
Encoding: 72 72 4
Width: 1704
Flags: W
LayerCount: 2
Fore
SplineSet
408 6 m 1,0,-1
 208 0 l 1,1,2
 163 0 163 0 137 21.5 c 128,-1,3
 111 43 111 43 111 79 c 128,-1,4
 111 115 111 115 141.5 138 c 128,-1,5
 172 161 172 161 225 161 c 2,6,-1
 307 161 l 1,7,-1
 307 1394 l 1,8,-1
 225 1394 l 2,9,10
 172 1394 172 1394 141.5 1416 c 128,-1,11
 111 1438 111 1438 111 1474 c 128,-1,12
 111 1510 111 1510 137 1532.5 c 128,-1,13
 163 1555 163 1555 208 1555 c 1,14,-1
 408 1548 l 1,15,-1
 595 1555 l 1,16,17
 675 1555 675 1555 696 1506 c 0,18,19
 702 1492 702 1492 702 1477 c 0,20,21
 702 1394 702 1394 574 1394 c 2,22,-1
 493 1394 l 1,23,-1
 493 996 l 1,24,-1
 1211 996 l 1,25,-1
 1211 1394 l 1,26,-1
 1117 1394 l 2,27,28
 1066 1394 1066 1394 1035 1416 c 128,-1,29
 1004 1438 1004 1438 1004 1474 c 128,-1,30
 1004 1510 1004 1510 1030 1532.5 c 128,-1,31
 1056 1555 1056 1555 1102 1555 c 1,32,-1
 1301 1548 l 1,33,-1
 1486 1555 l 1,34,35
 1567.25 1555 1567.25 1555 1586.5 1506 c 0,36,37
 1592 1492 1592 1492 1592 1477 c 0,38,39
 1592 1394 1592 1394 1468 1394 c 2,40,-1
 1396 1394 l 1,41,-1
 1396 161 l 1,42,-1
 1468 161 l 2,43,44
 1537 161 1537 161 1564.5 136.5 c 128,-1,45
 1592 112 1592 112 1592 87 c 0,46,47
 1592 3.76204997284e-05 1592 3.76204997284e-05 1486 0 c 1,48,-1
 1301 6 l 1,49,-1
 1102 0 l 1,50,51
 1056 0 1056 0 1030 21.5 c 128,-1,52
 1004 43 1004 43 1004 79 c 128,-1,53
 1004 115 1004 115 1035 138 c 128,-1,54
 1066 161 1066 161 1117 161 c 2,55,-1
 1211 161 l 1,56,-1
 1211 849 l 1,57,-1
 493 849 l 1,58,-1
 493 161 l 1,59,-1
 574 161 l 2,60,61
 644 161 644 161 673 136.5 c 128,-1,62
 702 112 702 112 702 87 c 0,63,64
 702 3.79774729752e-05 702 3.79774729752e-05 595 0 c 1,65,-1
 408 6 l 1,0,-1
EndSplineSet
EndChar

StartChar: I
Encoding: 73 73 5
Width: 850
Flags: W
LayerCount: 2
Fore
SplineSet
426 6 m 1,0,-1
 236 0 l 1,1,2
 191 0 191 0 165 21.5 c 128,-1,3
 139 43 139 43 139 79 c 128,-1,4
 139 115 139 115 169.5 138 c 128,-1,5
 200 161 200 161 251 161 c 2,6,-1
 336 161 l 1,7,-1
 336 1394 l 1,8,-1
 251 1394 l 2,9,10
 200 1394 200 1394 169.5 1416 c 128,-1,11
 139 1438 139 1438 139 1474 c 128,-1,12
 139 1510 139 1510 165 1532.5 c 128,-1,13
 191 1555 191 1555 236 1555 c 1,14,-1
 426 1548 l 1,15,-1
 601 1555 l 1,16,17
 683.25 1555 683.25 1555 702.5 1506 c 0,18,19
 708 1492 708 1492 708 1477 c 0,20,21
 708 1394 708 1394 582 1394 c 2,22,-1
 522 1394 l 1,23,-1
 522 161 l 1,24,-1
 582 161 l 2,25,26
 652 161 652 161 680 136.5 c 128,-1,27
 708 112 708 112 708 87 c 0,28,29
 708 -1.8665483747e-05 708 -1.8665483747e-05 601 0 c 1,30,-1
 426 6 l 1,0,-1
EndSplineSet
EndChar

StartChar: N
Encoding: 78 78 6
Width: 1835
Flags: W
LayerCount: 2
Fore
SplineSet
432 6 m 1,0,-1
 232 0 l 1,1,2
 188 0 188 0 162.5 21.5 c 128,-1,3
 137 43 137 43 137 79 c 128,-1,4
 137 115 137 115 167 138 c 128,-1,5
 197 161 197 161 249 161 c 2,6,-1
 345 161 l 1,7,-1
 345 1398 l 1,8,-1
 260 1390 l 2,9,10
 252.145454545 1389.67272727 252.145454545 1389.67272727 244.737190083 1389.67272727 c 0,11,12
 184.236363636 1389.67272727 184.236363636 1389.67272727 151.618181818 1412.83636364 c 0,13,14
 119 1436 119 1436 119 1476 c 0,15,16
 119 1555 119 1555 252 1555 c 0,17,18
 442.067 1555 442.067 1555 513.184 1521.665 c 128,-1,19
 584.301 1488.33 584.301 1488.33 625.65 1435.16 c 128,-1,20
 667 1382 667 1382 698 1333 c 2,21,-1
 1345 300 l 1,22,23
 1338 405 1338 405 1338 473 c 2,24,-1
 1338 1394 l 1,25,-1
 1244 1394 l 2,26,27
 1193 1394 1193 1394 1162 1416 c 128,-1,28
 1131 1438 1131 1438 1131 1474 c 128,-1,29
 1131 1510 1131 1510 1157.5 1532.5 c 128,-1,30
 1184 1555 1184 1555 1228 1555 c 1,31,-1
 1428 1548 l 1,32,-1
 1614 1555 l 1,33,34
 1695.25 1555 1695.25 1555 1714.5 1506 c 0,35,36
 1720 1492 1720 1492 1720 1477 c 0,37,38
 1720 1394 1720 1394 1595 1394 c 2,39,-1
 1522 1394 l 1,40,-1
 1522 162 l 1,41,-1
 1574 162 l 2,42,43
 1704 162 1704 162 1704 78 c 0,44,45
 1704 0 1704 0 1574 0 c 2,46,-1
 1486 0 l 2,47,48
 1418 0 1418 0 1366.5 31 c 128,-1,49
 1315 62 1315 62 1286 105 c 1,50,-1
 520 1301 l 1,51,52
 529 1205.6 529 1205.6 529 1090 c 2,53,-1
 529 161 l 1,54,-1
 600 161 l 2,55,56
 669 161 669 161 697.5 136.5 c 128,-1,57
 726 112 726 112 726 87 c 0,58,59
 726 3.79774729752e-05 726 3.79774729752e-05 619 0 c 1,60,-1
 432 6 l 1,0,-1
EndSplineSet
EndChar

StartChar: O
Encoding: 79 79 7
Width: 1706
Flags: W
LayerCount: 2
Fore
SplineSet
418.9095 326.638157895 m 128,-1,1
 578.819 152 578.819 152 844.1395 152 c 128,-1,2
 1109.46 152 1109.46 152 1277.23 318.717 c 128,-1,3
 1445 485.434 1445 485.434 1445 775.122 c 128,-1,4
 1445 1064.81 1445 1064.81 1278.26 1226.405 c 128,-1,5
 1111.52 1388 1111.52 1388 852.9455 1388 c 128,-1,6
 594.371 1388 594.371 1388 426.6855 1209.635 c 128,-1,7
 259 1031.27 259 1031.27 259 766.273157895 c 128,-1,0
 259 501.276315789 259 501.276315789 418.9095 326.638157895 c 128,-1,1
130.5 448 m 128,-1,9
 76 589 76 589 76 731 c 0,10,11
 76 985.495145631 76 985.495145631 181.895535971 1168.49908158 c 128,-1,12
 287.791071942 1351.50301753 287.791071942 1351.50301753 468.446535971 1453.25150877 c 128,-1,13
 649.102 1555 649.102 1555 862 1555 c 0,14,15
 1015 1555 1015 1555 1154.5 1503 c 128,-1,16
 1294 1451 1294 1451 1400.5 1353 c 128,-1,17
 1507 1255 1507 1255 1570 1114 c 128,-1,18
 1633 973 1633 973 1633 795.5 c 0,19,20
 1633 436.848780488 1633 436.848780488 1418.58 210.924390244 c 128,-1,21
 1204.16 -15 1204.16 -15 851.653 -15 c 128,-1,22
 499.146 -15 499.146 -15 285 204.5 c 0,23,8
 185 307 185 307 130.5 448 c 128,-1,9
EndSplineSet
EndChar

StartChar: S
Encoding: 83 83 8
Width: 1366
Flags: W
LayerCount: 2
Fore
SplineSet
835 1569 m 1,0,1
 833.12941482 1580.22398477 833.12941482 1580.22398477 833.12941482 1600.82936921 c 128,-1,2
 833.12941482 1621.43475365 833.12941482 1621.43475365 855.56470741 1640.21737683 c 128,-1,3
 878 1659 878 1659 905.142857143 1659 c 128,-1,4
 932.285714286 1659 932.285714286 1659 960.057357143 1633.08 c 128,-1,5
 987.829 1607.16 987.829 1607.16 1024.2045 1531.495 c 128,-1,6
 1060.58 1455.83 1060.58 1455.83 1102.79 1403.42 c 2,7,-1
 1160.5 1331.5 l 2,8,9
 1204 1276.77 1204 1276.77 1204 1237.39 c 0,10,11
 1204 1154 1204 1154 1130 1154 c 0,12,13
 1070.55 1154 1070.55 1154 1011.7875 1248.98 c 128,-1,14
 953.025 1343.96 953.025 1343.96 912.5265 1374.98 c 128,-1,15
 872.028 1406 872.028 1406 818.514 1406 c 0,16,17
 492.429389313 1406 492.429389313 1406 401.5 1220.5 c 0,18,19
 389 1195 389 1195 389 1163 c 0,20,21
 389 1089.3880597 389 1089.3880597 451.871 1048.09902985 c 128,-1,22
 514.742 1006.81 514.742 1006.81 679.871 990.906 c 0,23,24
 1004.45205935 959.640829557 1004.45205935 959.640829557 1146.65602968 846.655914779 c 0,25,26
 1293.15547245 730.258130528 1293.15547245 730.258130528 1293.15547245 519.981196227 c 0,27,28
 1293.15547245 368.450743641 1293.15547245 368.450743641 1206.37273623 244.330371821 c 128,-1,29
 1119.59 120.21 1119.59 120.21 991.513120805 57.4495589645 c 0,30,31
 844.681214912 -14.5012508139 844.681214912 -14.5012508139 635.712106315 -14.5012508139 c 0,32,33
 580.010150144 -14.5012508139 580.010150144 -14.5012508139 528 -8 c 1,34,35
 509 -56 509 -56 487.5 -77 c 128,-1,36
 466 -98 466 -98 433 -98 c 0,37,38
 349 -98 349 -98 341.263 -17.88545 c 128,-1,39
 333.526 62.2291 333.526 62.2291 268.5 157.5 c 1,40,-1
 140.5 336 l 2,41,42
 80.2472 420.947 80.2472 420.947 71.6236 448.973 c 128,-1,43
 63 477 63 477 63 502.5 c 128,-1,44
 63 528 63 528 81 550 c 128,-1,45
 99 572 99 572 133.5 572 c 128,-1,46
 168 572 168 572 198.5 549.5 c 128,-1,47
 229 527 229 527 267 460 c 0,48,49
 358.463 298.737 358.463 298.737 425.5565 239.2095 c 0,50,51
 523.85040766 152 523.85040766 152 735 152 c 0,52,53
 807 152 807 152 883 179.5 c 128,-1,54
 959 207 959 207 1009 252.5 c 0,55,56
 1112.45074969 346.641470254 1112.45074969 346.641470254 1112.45074969 498.598344279 c 128,-1,57
 1112.45074969 650.555218304 1112.45074969 650.555218304 992.891374845 727.147609152 c 128,-1,58
 873.332 803.74 873.332 803.74 606 829 c 1,59,60
 192 871.167 192 871.167 192 1140 c 0,61,62
 192 1248 192 1248 296 1352 c 0,63,64
 475.433 1531.43 475.433 1531.43 835 1569 c 1,0,1
EndSplineSet
EndChar

StartChar: R
Encoding: 82 82 9
Width: 1532
Flags: W
LayerCount: 2
Fore
SplineSet
1278 1027 m 0,0,1
 1278 1298.35 1278 1298.35 1017.62 1367.5 c 0,2,3
 895.25 1400 895.25 1400 644.5 1400 c 0,4,5
 558 1400 558 1400 522 1398 c 1,6,-1
 522 663 l 1,7,-1
 718 663 l 2,8,9
 1160.72 663 1160.72 663 1249 870 c 0,10,11
 1278 938 1278 938 1278 1027 c 0,0,1
611 0 m 1,12,-1
 426 6 l 1,13,14
 389 6 389 6 368 5 c 2,15,-1
 324 3 l 1,16,17
 286.5 1.117585e-08 286.5 1.117585e-08 243.75 0 c 128,-1,18
 201 0 201 0 175 21.5 c 128,-1,19
 149 43 149 43 149 79 c 128,-1,20
 149 115 149 115 179.5 138 c 128,-1,21
 210 161 210 161 261 161 c 2,22,-1
 341 161 l 1,23,-1
 341 1382 l 1,24,25
 266 1367 266 1367 223.5 1367 c 128,-1,26
 181 1367 181 1367 150 1389.5 c 128,-1,27
 119 1412 119 1412 119 1440.5 c 0,28,29
 119 1529.15906873 119 1529.15906873 222.51407767 1542.07953436 c 0,30,31
 326.02815534 1555 326.02815534 1555 527.61407767 1555 c 0,32,33
 729.2 1555 729.2 1555 821 1550.5 c 0,34,35
 1325.04 1525.79 1325.04 1525.79 1437.5 1217 c 0,36,37
 1467 1136 1467 1136 1467 1038.5 c 0,38,39
 1467 841.956521739 1467 841.956521739 1349.44 709.06426087 c 128,-1,40
 1231.88 576.172 1231.88 576.172 1015 534 c 1,41,42
 1111.75 374.25 1111.75 374.25 1175.38 310.625 c 0,43,44
 1293.39 192.612 1293.39 192.612 1405.23 169.6985 c 128,-1,45
 1517.07 146.785 1517.07 146.785 1533.5 99 c 0,46,47
 1539 83 1539 83 1539 57 c 128,-1,48
 1539 31 1539 31 1513 8 c 128,-1,49
 1487 -15 1487 -15 1439 -15 c 0,50,51
 1332.67 -15 1332.67 -15 1251.83 33 c 0,52,53
 1107.15497503 118.913660749 1107.15497503 118.913660749 1018.03548752 223.042830374 c 128,-1,54
 928.916 327.172 928.916 327.172 837 515 c 1,55,-1
 522 515 l 1,56,-1
 522 161 l 1,57,-1
 592 161 l 2,58,59
 662 161 662 161 690 136.5 c 128,-1,60
 718 112 718 112 718 87 c 0,61,62
 718 -4.66637093675e-06 718 -4.66637093675e-06 611 0 c 1,12,-1
EndSplineSet
EndChar

StartChar: B
Encoding: 66 66 10
Width: 1534
Flags: W
LayerCount: 2
Fore
SplineSet
492 145 m 1,0,1
 517 142 517 142 549 140.5 c 2,2,-1
 613.5 137.5 l 2,3,4
 667.667 135 667.667 135 773.833 135 c 0,5,6
 1268 135 1268 135 1268 493 c 0,7,8
 1268 638.505 1268 638.505 1157.75 714.7525 c 128,-1,9
 1047.5 791 1047.5 791 863 791 c 2,10,-1
 492 791 l 1,11,-1
 492 145 l 1,0,1
771 939 m 2,12,13
 1018.55 939 1018.55 939 1068 1075 c 0,14,15
 1084 1119 1084 1119 1084 1168.5 c 0,16,17
 1084 1255.44067797 1084 1255.44067797 1015.8355 1318.98533898 c 128,-1,18
 947.671 1382.53 947.671 1382.53 835.3355 1394.265 c 128,-1,19
 723 1406 723 1406 625.5 1406 c 128,-1,20
 528 1406 528 1406 492 1403 c 1,21,-1
 492 939 l 1,22,-1
 771 939 l 2,12,13
1121 887 m 1,23,24
 1461 829.694941756 1461 829.694941756 1461 473 c 0,25,26
 1461 382 1461 382 1420 290 c 128,-1,27
 1379 198 1379 198 1292 130 c 0,28,29
 1106.49 -15 1106.49 -15 744 -15 c 0,30,31
 706.333 -15 706.333 -15 659.667 -12.5 c 2,32,-1
 467 -2 l 2,33,34
 429 0 429 0 391 0 c 1,35,-1
 195 -13 l 1,36,37
 72 -13 72 -13 72 77.5 c 128,-1,38
 72 168 72 168 218 168 c 0,39,40
 261 168 261 168 307 164 c 1,41,-1
 307 1384 l 1,42,-1
 275 1380 l 1,43,44
 199.6 1367 199.6 1367 150.3 1367 c 128,-1,45
 101 1367 101 1367 70 1390.5 c 128,-1,46
 39 1414 39 1414 39 1452.665 c 0,47,48
 39 1527.47962955 39 1527.47962955 160.473 1543.5 c 0,49,50
 247.764 1555 247.764 1555 532.874883516 1555 c 0,51,52
 817.985767031 1555 817.985767031 1555 913.992883516 1539 c 0,53,54
 1090.5812772 1509.57078264 1090.5812772 1509.57078264 1185.7906386 1412.27039132 c 128,-1,55
 1281 1314.97 1281 1314.97 1281 1177.87 c 128,-1,56
 1281 1040.77 1281 1040.77 1193 942.5 c 0,57,58
 1163 909 1163 909 1121 887 c 1,23,24
EndSplineSet
EndChar

StartChar: P
Encoding: 80 80 11
Width: 1536
Flags: W
LayerCount: 2
Fore
SplineSet
624.5 1397 m 0,0,1
 563 1397 563 1397 527 1395 c 1,2,-1
 527 666 l 1,3,4
 627 661 627 661 695.5 661 c 0,5,6
 866.806451613 661 866.806451613 661 995.273803983 690.943518222 c 128,-1,7
 1123.74115635 720.887036443 1123.74115635 720.887036443 1203.37057818 809.474518222 c 128,-1,8
 1283 898.062 1283 898.062 1283 1061 c 0,9,10
 1283 1297.5 1283 1297.5 989 1371 c 1,11,12
 877.571 1397 877.571 1397 624.5 1397 c 0,0,1
441 6 m 1,13,-1
 231 0 l 1,14,15
 186 0 186 0 160 21.5 c 128,-1,16
 134 43 134 43 134 79 c 128,-1,17
 134 115 134 115 164.5 138 c 128,-1,18
 195 161 195 161 246 161 c 2,19,-1
 341 161 l 1,20,-1
 341 1387 l 1,21,22
 267 1383 267 1383 202 1383 c 0,23,24
 74 1383 74 1383 74 1468 c 0,25,26
 74 1522.26 74 1522.26 151 1546.5 c 0,27,28
 178 1555 178 1555 217 1555 c 2,29,-1
 551 1555 l 2,30,31
 823.75 1555 823.75 1555 889.375 1548 c 128,-1,32
 955 1541 955 1541 1031.5 1528.5 c 128,-1,33
 1108 1516 1108 1516 1199 1472 c 128,-1,34
 1290 1428 1290 1428 1352.5 1366 c 0,35,36
 1480 1239.52 1480 1239.52 1480 1078.76 c 128,-1,37
 1480 918 1480 918 1432 811 c 128,-1,38
 1384 704 1384 704 1281.5 635.5 c 0,39,40
 1081.74 502 1081.74 502 631 502 c 0,41,42
 605 502 605 502 579 502 c 128,-1,43
 553 502 553 502 527 503 c 1,44,-1
 527 161 l 1,45,-1
 618 161 l 2,46,47
 688 161 688 161 716.5 136.5 c 128,-1,48
 745 112 745 112 745 87 c 0,49,50
 745 3.79774729752e-05 745 3.79774729752e-05 638 0 c 1,51,-1
 441 6 l 1,13,-1
EndSplineSet
EndChar

StartChar: Q
Encoding: 81 81 12
Width: 1745
Flags: W
LayerCount: 2
Fore
SplineSet
1754.06511388 77.5098095108 m 0,0,1
 1754.06511388 -14.588764805 1754.06511388 -14.588764805 1641.94911734 -14.588764805 c 0,2,3
 1533.46769335 -14.588764805 1533.46769335 -14.588764805 1437.5 55.5 c 0,4,5
 1394.61258372 86.8231407709 1394.61258372 86.8231407709 1347.42916323 132.10876117 c 1,6,7
 1149.87289671 -15 1149.87289671 -15 858 -15 c 0,8,9
 517.146 -15 517.146 -15 303 204.5 c 0,10,11
 203 307 203 307 148.5 448 c 128,-1,12
 94 589 94 589 94 731 c 0,13,14
 94 985.495145631 94 985.495145631 199.895535971 1168.49908158 c 128,-1,15
 305.791071942 1351.50301753 305.791071942 1351.50301753 486.446535971 1453.25150877 c 128,-1,16
 667.102 1555 667.102 1555 880 1555 c 0,17,18
 1033 1555 1033 1555 1172.5 1503 c 128,-1,19
 1312 1451 1312 1451 1418.5 1353 c 128,-1,20
 1525 1255 1525 1255 1588 1114 c 128,-1,21
 1651 973 1651 973 1651 795.5 c 0,22,23
 1651 455.958829848 1651 455.958829848 1459.99458843 236.544613482 c 1,24,25
 1538.17728134 154.091940374 1538.17728134 154.091940374 1612.46161056 149.871394313 c 0,26,27
 1754.06511388 141.826035159 1754.06511388 141.826035159 1754.06511388 77.5098095108 c 0,0,1
436.9095 326.638157895 m 128,-1,29
 596.819 152 596.819 152 868 152 c 0,30,31
 1078.10407217 152 1078.10407217 152 1226.94941629 260.196212058 c 1,32,33
 1049.37885337 454.746026075 1049.37885337 454.746026075 952 486.5 c 0,34,35
 921.549 496.43 921.549 496.43 866.275 498.715 c 128,-1,36
 811 501 811 501 785.928571429 524.142857143 c 128,-1,37
 760.857142857 547.285714286 760.857142857 547.285714286 760.857142857 582.073979592 c 0,38,39
 760.857142857 624.605442177 760.857142857 624.605442177 791.716614907 644.688590654 c 128,-1,40
 822.576086957 664.77173913 822.576086957 664.77173913 845.902173913 664.77173913 c 0,41,42
 971.566707262 664.77173913 971.566707262 664.77173913 1075.36835363 608.878869565 c 128,-1,43
 1179.17 552.986 1179.17 552.986 1312 404 c 1,44,-1
 1341.23739771 370.770780464 l 1,45,46
 1463 526.983079607 1463 526.983079607 1463 758 c 0,47,48
 1463 1064.81 1463 1064.81 1296.26 1226.405 c 128,-1,49
 1129.52 1388 1129.52 1388 870.9455 1388 c 128,-1,50
 612.371 1388 612.371 1388 444.6855 1209.635 c 128,-1,51
 277 1031.27 277 1031.27 277 766.273157895 c 128,-1,28
 277 501.276315789 277 501.276315789 436.9095 326.638157895 c 128,-1,29
EndSplineSet
EndChar

StartChar: T
Encoding: 84 84 13
Width: 1190
Flags: W
LayerCount: 2
Fore
SplineSet
142 1558 m 1,0,1
 300.667 1530 300.667 1530 591.833 1530 c 128,-1,2
 883 1530 883 1530 1023 1558 c 1,3,-1
 1023 1568 l 2,4,5
 1023 1599.67 1023 1599.67 1045.44 1617.835 c 128,-1,6
 1067.88 1636 1067.88 1636 1098.44 1636 c 128,-1,7
 1129 1636 1129 1636 1146 1617.5 c 128,-1,8
 1163 1599 1163 1599 1167.5 1575.5 c 0,9,10
 1177.38754325 1523.8650519 1177.38754325 1523.8650519 1198 1463.5 c 2,11,-1
 1215 1415 l 2,12,13
 1225 1389 1225 1389 1238 1359.5 c 128,-1,14
 1251 1330 1251 1330 1251 1296 c 128,-1,15
 1251 1262 1251 1262 1230.5 1243 c 128,-1,16
 1210 1224 1210 1224 1180.5 1224 c 0,17,18
 1123.59 1224 1123.59 1224 1099.405 1291.695 c 128,-1,19
 1075.22 1359.39 1075.22 1359.39 1041.485 1380.695 c 128,-1,20
 1007.75 1402 1007.75 1402 926 1402 c 2,21,-1
 902.5 1402 l 1,22,-1
 674 1386 l 1,23,-1
 674 161 l 1,24,-1
 798 161 l 2,25,26
 867 161 867 161 894.5 136.5 c 128,-1,27
 922 112 922 112 922 80 c 128,-1,28
 922 48 922 48 898 24 c 128,-1,29
 874 0 874 0 816 0 c 2,30,-1
 793.5 0 l 2,31,32
 780 0 780 0 765 0.5 c 128,-1,33
 750 1 750 1 735 1.5 c 128,-1,34
 720 2 720 2 687 4 c 128,-1,35
 654 6 654 6 584.5 6 c 128,-1,36
 515 6 515 6 474.5 4 c 128,-1,37
 434 2 434 2 419.5 1.5 c 2,38,-1
 390 0.5 l 2,39,40
 375 0 375 0 361.5 0 c 2,41,-1
 339 0 l 2,42,43
 294 0 294 0 267.5 21.5 c 128,-1,44
 241 43 241 43 241 79 c 128,-1,45
 241 115 241 115 272 138 c 128,-1,46
 303 161 303 161 354 161 c 2,47,-1
 488 161 l 1,48,-1
 488 1388 l 1,49,-1
 378 1396 l 2,50,51
 347 1398 347 1398 327 1399.5 c 128,-1,52
 307 1401 307 1401 293 1401.5 c 128,-1,53
 279 1402 279 1402 267 1402.5 c 128,-1,54
 255 1403 255 1403 206.02 1403 c 128,-1,55
 157.04 1403 157.04 1403 123.5 1381.5 c 128,-1,56
 90.0122 1360.03 90.0122 1360.03 71.0061 1308.52 c 128,-1,57
 52 1257 52 1257 33 1240.5 c 128,-1,58
 14 1224 14 1224 -15.5 1224 c 128,-1,59
 -45 1224 -45 1224 -65.5 1243 c 128,-1,60
 -86 1262 -86 1262 -86 1296 c 128,-1,61
 -86 1330 -86 1330 -73 1359.5 c 128,-1,62
 -60 1389 -60 1389 -50 1416 c 2,63,-1
 -33 1463.5 l 2,64,65
 -19.5676 1502.84 -19.5676 1502.84 -13.7838 1527.42 c 2,66,-1
 -3 1574 l 1,67,68
 9.4 1636 9.4 1636 61.969 1636 c 128,-1,69
 114.538 1636 114.538 1636 135 1598 c 0,70,71
 142 1585 142 1585 142 1568 c 2,72,-1
 142 1558 l 1,0,1
EndSplineSet
EndChar

StartChar: F
Encoding: 70 70 14
Width: 1194
Flags: W
LayerCount: 2
Fore
SplineSet
429 0 m 2,0,-1
 229 -6 l 1,1,2
 184 -6 184 -6 158 15.5 c 128,-1,3
 132 37 132 37 132 73 c 128,-1,4
 132 109 132 109 162.5 132 c 128,-1,5
 193 155 193 155 244 155 c 2,6,-1
 311 155 l 1,7,-1
 311 1387 l 1,8,-1
 272 1387 l 2,9,10
 185 1387 185 1387 148 1413.5 c 128,-1,11
 111 1440 111 1440 111 1479 c 0,12,13
 111 1555 111 1555 250 1555 c 1,14,-1
 710 1541 l 1,15,16
 852 1541 852 1541 972 1563 c 1,17,18
 967.175194276 1579.40441231 967.175194276 1579.40441231 967.175194276 1597.81602485 c 128,-1,19
 967.175194276 1616.2276374 967.175194276 1616.2276374 986.087597138 1634.6138187 c 128,-1,20
 1005 1653 1005 1653 1040.52380952 1653 c 0,21,22
 1131.45454545 1653 1131.45454545 1653 1244 1343.5 c 0,23,24
 1265 1285.75 1265 1285.75 1265 1256 c 0,25,26
 1265 1187 1265 1187 1203 1187 c 0,27,28
 1147.78 1187 1147.78 1187 1111 1294 c 0,29,30
 1088 1360 1088 1360 1037.5 1386.5 c 128,-1,31
 987 1413 987 1413 909 1413 c 2,32,-1
 885.5 1413 l 2,33,34
 873 1413 873 1413 847.5 1411.5 c 2,35,-1
 790 1408 l 2,36,37
 772 1407 772 1407 735.5 1404 c 128,-1,38
 699 1401 699 1401 656 1398 c 2,39,-1
 497 1387 l 1,40,-1
 497 882 l 1,41,42
 752.2 882 752.2 882 784.1 889 c 128,-1,43
 816 896 816 896 832 910 c 128,-1,44
 848 924 848 924 854.5 962.5 c 0,45,46
 866.909 1036 866.909 1036 942 1036 c 0,47,48
 963 1036 963 1036 982.5 1021.5 c 128,-1,49
 1002 1007 1002 1007 1002 980.5 c 128,-1,50
 1002 954 1002 954 984 903.4285 c 128,-1,51
 966 852.857 966 852.857 966 805.595 c 128,-1,52
 966 758.333 966 758.333 983.5 712.667 c 2,53,-1
 1010.5 642 l 2,54,55
 1020 617 1020 617 1020 586.571428571 c 128,-1,56
 1020 556.142857143 1020 556.142857143 997.059 537.571428571 c 128,-1,57
 974.118 519 974.118 519 942.399 519 c 0,58,59
 877.976009217 519 877.976009217 519 861.877607387 603.284796427 c 128,-1,60
 845.779205558 687.569592855 845.779205558 687.569592855 826.945102779 711.784796427 c 128,-1,61
 808.111 736 808.111 736 759 736 c 2,62,-1
 497 736 l 1,63,-1
 497 155 l 1,64,-1
 658 155 l 2,65,66
 728 155 728 155 756.5 130.5 c 128,-1,67
 785 106 785 106 785 81 c 0,68,69
 785 -6.00001976285 785 -6.00001976285 679 -6 c 2,70,-1
 655 -6 l 2,71,72
 641 -6 641 -6 625.5 -5.5 c 2,73,-1
 595 -4.5 l 2,74,75
 580 -4 580 -4 565.117647059 -3.32352941176 c 128,-1,76
 550.235294118 -2.64705882353 550.235294118 -2.64705882353 505.5 -1.5 c 2,77,-1
 466 -0.5 l 2,78,79
 446 0 446 0 429 0 c 2,0,-1
EndSplineSet
EndChar

StartChar: C
Encoding: 67 67 15
Width: 1534
Flags: W
LayerCount: 2
Fore
SplineSet
1112 5 m 1,0,1
 997 -15 997 -15 900 -15 c 0,2,3
 539.412 -15 539.412 -15 313.706 198.1665 c 128,-1,4
 88 411.333 88 411.333 88 771.9615 c 128,-1,5
 88 1132.59 88 1132.59 311.692 1343.795 c 128,-1,6
 535.384 1555 535.384 1555 903 1555 c 0,7,8
 1041.22 1555 1041.22 1555 1154 1520 c 1,9,10
 1148.32742314 1535.11773705 1148.32742314 1535.11773705 1148.32742314 1557.32917799 c 128,-1,11
 1148.32742314 1579.54061893 1148.32742314 1579.54061893 1173.66371157 1600.27030946 c 128,-1,12
 1199 1621 1199 1621 1228.65 1621 c 128,-1,13
 1258.3 1621 1258.3 1621 1283.79 1592.675 c 128,-1,14
 1309.28 1564.35 1309.28 1564.35 1343.73 1485.245 c 128,-1,15
 1378.18 1406.14 1378.18 1406.14 1442 1337 c 1,16,-1
 1478.5 1295 l 2,17,18
 1524 1242.16 1524 1242.16 1524 1200.08 c 0,19,20
 1524 1110 1524 1110 1449 1110 c 0,21,22
 1387.15 1110 1387.15 1110 1326.68 1210.115 c 128,-1,23
 1266.21 1310.23 1266.21 1310.23 1141.65 1358.615 c 128,-1,24
 1017.09 1407 1017.09 1407 887.043 1407 c 0,25,26
 615 1407 615 1407 448.5 1240.5 c 128,-1,27
 282 1074 282 1074 282 777.324 c 128,-1,28
 282 480.648 282 480.648 455.0185 311.824 c 128,-1,29
 628.037 143 628.037 143 871.9135 143 c 128,-1,30
 1115.79 143 1115.79 143 1216 245 c 1,31,32
 1267.23 298.922 1267.23 298.922 1287.11 333.961 c 2,33,-1
 1320 393 l 1,34,35
 1364.51 479.398 1364.51 479.398 1410.5 490.5 c 0,36,37
 1425 494 1425 494 1450.96 494 c 128,-1,38
 1476.92 494 1476.92 494 1500.96 466.682 c 128,-1,39
 1525 439.364 1525 439.364 1525 401.522 c 0,40,41
 1525 337.840724899 1525 337.840724899 1443.36493036 249.650223169 c 128,-1,42
 1361.72986072 161.45972144 1361.72986072 161.45972144 1333.55493036 105.10486072 c 128,-1,43
 1305.38 48.75 1305.38 48.75 1299 -15 c 0,44,45
 1291 -100 1291 -100 1207 -100 c 0,46,47
 1169.56 -100 1169.56 -100 1140.56857722 -72.0468461316 c 128,-1,48
 1111.57715445 -44.0936922631 1111.57715445 -44.0936922631 1111.57715445 -4.94463652199 c 0,49,50
 1111.57715445 -0.071733526514 1111.57715445 -0.071733526514 1112 5 c 1,0,1
EndSplineSet
EndChar

StartChar: G
Encoding: 71 71 16
Width: 1530
Flags: W
LayerCount: 2
Fore
SplineSet
1134 883 m 1,0,-1
 1343 894 l 1,1,2
 1463.78 894 1463.78 894 1483 815.5 c 0,3,4
 1489 791 1489 791 1489 761 c 2,5,-1
 1489 448 l 2,6,7
 1489 320.558 1489 320.558 1451.97 260.278 c 128,-1,8
 1414.94 199.998 1414.94 199.998 1314 121 c 1,9,10
 1213.26 37.0466 1213.26 37.0466 1004 -1 c 0,11,12
 927 -15 927 -15 804 -15 c 128,-1,13
 681 -15 681 -15 544 35.5 c 128,-1,14
 407 86 407 86 306 183 c 0,15,16
 88 392.366 88 392.366 88 755.958 c 128,-1,17
 88 1119.55 88 1119.55 306.768 1337.275 c 128,-1,18
 525.536 1555 525.536 1555 883 1555 c 0,19,20
 1035.8 1555 1035.8 1555 1131 1538 c 1,21,22
 1130 1543 1130 1543 1130 1546.5 c 2,23,-1
 1130 1552 l 1,24,25
 1132 1584 1132 1584 1152.5 1602.5 c 128,-1,26
 1173 1621 1173 1621 1201.32758621 1621 c 128,-1,27
 1229.65517241 1621 1229.65517241 1621 1257.83258621 1593.76 c 128,-1,28
 1286.01 1566.52 1286.01 1566.52 1315.51 1504.26 c 128,-1,29
 1345 1442 1345 1442 1367.5 1412 c 2,30,-1
 1448.5 1307 l 2,31,32
 1494 1248.29 1494 1248.29 1494 1210.65 c 128,-1,33
 1494 1173 1494 1173 1474.5 1150 c 128,-1,34
 1455 1127 1455 1127 1422.15789474 1127 c 128,-1,35
 1389.31578947 1127 1389.31578947 1127 1362.41289474 1145.255 c 128,-1,36
 1335.51 1163.51 1335.51 1163.51 1303.76 1216.25 c 0,37,38
 1243.05756363 1317.0703249 1243.05756363 1317.0703249 1138.63378181 1359.03516245 c 128,-1,39
 1034.21 1401 1034.21 1401 889.605 1401 c 0,40,41
 614.851851852 1401 614.851851852 1401 448.925925926 1230.875 c 128,-1,42
 283 1060.75 283 1060.75 283 763.1625 c 128,-1,43
 283 465.575 283 465.575 440.7565 306.7875 c 128,-1,44
 598.513 148 598.513 148 844 148 c 0,45,46
 1008.55 148 1008.55 148 1139 200.5 c 0,47,48
 1196.71 223.726 1196.71 223.726 1239.86 264.863 c 128,-1,49
 1283 306 1283 306 1299.5 340.375 c 128,-1,50
 1316 374.75 1316 374.75 1316 490 c 2,51,-1
 1316 686 l 2,52,53
 1316 700 1316 700 1305.5 712.5 c 128,-1,54
 1295 725 1295 725 1268 725 c 0,55,56
 1164 725 1164 725 1076.611 718.5 c 128,-1,57
 989.222 712 989.222 712 931.111 712 c 128,-1,58
 873 712 873 712 847.5 737 c 128,-1,59
 822 762 822 762 822 799 c 0,60,61
 822 888.161094725 822 888.161094725 969.218583269 888.161094725 c 0,62,63
 999.019747596 888.161094725 999.019747596 888.161094725 1020.5 887 c 2,64,-1
 1056 885 l 2,65,66
 1100 883 1100 883 1134 883 c 1,0,-1
EndSplineSet
EndChar

StartChar: L
Encoding: 76 76 17
Width: 1364
Flags: W
LayerCount: 2
Fore
SplineSet
1022 -9 m 1,0,1
 900.571 16 900.571 16 667.619 16 c 128,-1,2
 434.667 16 434.667 16 333.709441876 7.96430910473 c 128,-1,3
 232.751883752 -0.0713817905352 232.751883752 -0.0713817905352 215.595 -2.82337e-07 c 0,4,5
 127 4.01187e-07 127 4.01187e-07 127 82 c 0,6,7
 127 139.438 127 139.438 221 160 c 0,8,9
 253 167 253 167 298 167 c 2,10,-1
 381 167 l 1,11,-1
 381 1394 l 1,12,-1
 280 1394 l 2,13,14
 229 1394 229 1394 198.5 1416 c 128,-1,15
 168 1438 168 1438 168 1474 c 128,-1,16
 168 1510 168 1510 194 1532.5 c 128,-1,17
 220 1555 220 1555 265 1555 c 1,18,-1
 475 1548 l 1,19,-1
 672 1555 l 1,20,21
 752 1555 752 1555 773 1506 c 0,22,23
 779 1492 779 1492 779 1477 c 0,24,25
 779 1394 779 1394 652 1394 c 2,26,-1
 567 1394 l 1,27,-1
 567 164 l 1,28,29
 819 148 819 148 902.5 148 c 128,-1,30
 986 148 986 148 1008.5 157.5 c 0,31,32
 1066.79777537 182.114616268 1066.79777537 182.114616268 1129.45970832 293.762271722 c 128,-1,33
 1192.12164127 405.409927175 1192.12164127 405.409927175 1222.61082063 432.204963587 c 128,-1,34
 1253.1 459 1253.1 459 1286.05 459 c 0,35,36
 1352.74767131 459 1352.74767131 459 1362.37 382.0555 c 0,37,38
 1362.8969564 377.841717853 1362.8969564 377.841717853 1362.8969564 359.850319329 c 128,-1,39
 1362.8969564 341.858920806 1362.8969564 341.858920806 1321.05179776 284.670539367 c 128,-1,40
 1279.20663911 227.482157928 1279.20663911 227.482157928 1241.24831956 138.913778964 c 128,-1,41
 1203.29 50.3454 1203.29 50.3454 1189.15 -12.8273 c 0,42,43
 1164.48 -123 1164.48 -123 1103 -123 c 0,44,45
 1068 -123 1068 -123 1044.5 -97 c 128,-1,46
 1021 -71 1021 -71 1021 -29 c 0,47,48
 1021 -24 1021 -24 1021 -19 c 128,-1,49
 1021 -14 1021 -14 1022 -9 c 1,0,1
EndSplineSet
EndChar

StartChar: J
Encoding: 74 74 18
Width: 1366
Flags: W
LayerCount: 2
Fore
SplineSet
347.633 1224 m 0,0,1
 266 1224 266 1224 266 1297.665 c 0,2,3
 266 1335.33 266 1335.33 322.127 1408.42 c 128,-1,4
 378.254 1481.51 378.254 1481.51 395.127 1536.26 c 128,-1,5
 412 1591 412 1591 433 1605 c 128,-1,6
 454 1619 454 1619 486 1619 c 128,-1,7
 518 1619 518 1619 537.5 1596 c 128,-1,8
 557 1573 557 1573 559 1541 c 1,9,-1
 787 1541 l 2,10,11
 875.6 1541 875.6 1541 956.8 1548 c 128,-1,12
 1038 1555 1038 1555 1070 1555 c 0,13,14
 1211 1555 1211 1555 1211 1429 c 0,15,16
 1211 1415 1211 1415 1205 1325 c 128,-1,17
 1199 1235 1199 1235 1199 1081 c 2,18,-1
 1199 685 l 2,19,20
 1199 443.345 1199 443.345 1145 313 c 1,21,22
 1043.91 77.1183 1043.91 77.1183 784 7.5 c 0,23,24
 700 -15 700 -15 592 -15 c 128,-1,25
 484 -15 484 -15 392 24 c 128,-1,26
 300 63 300 63 238 127 c 0,27,28
 113 256.032 113 256.032 113 425.7815 c 128,-1,29
 113 595.531 113 595.531 219.154 722.2655 c 128,-1,30
 325.308 849 325.308 849 488 849 c 0,31,32
 572 849 572 849 618 816 c 128,-1,33
 664 783 664 783 664 730.9335 c 128,-1,34
 664 678.867 664 678.867 632.4645 649.4335 c 128,-1,35
 600.929 620 600.929 620 560.9645 620 c 128,-1,36
 521 620 521 620 496.04 636 c 128,-1,37
 471.08 652 471.08 652 443.54 652 c 0,38,39
 379.894736842 652 379.894736842 652 338.947368421 592.154 c 128,-1,40
 298 532.308 298 532.308 298 455.154 c 0,41,42
 298 313.734939759 298 313.734939759 386.114 229.86746988 c 128,-1,43
 474.228 146 474.228 146 610 146 c 0,44,45
 833.835 146 833.835 146 939 305.5 c 0,46,47
 1000.66 399.023 1000.66 399.023 1008.5 530.5 c 0,48,49
 1013 606 1013 606 1013 696 c 2,50,-1
 1013 1384 l 1,51,52
 687.998 1380.96 687.998 1380.96 618.999 1366.48 c 128,-1,53
 550 1352 550 1352 511.6785 1335.865 c 128,-1,54
 473.357 1319.73 473.357 1319.73 430.312 1271.865 c 128,-1,55
 387.267 1224 387.267 1224 347.633 1224 c 0,0,1
EndSplineSet
EndChar

StartChar: K
Encoding: 75 75 19
Width: 1534
Flags: W
LayerCount: 2
Fore
SplineSet
1590 87 m 0,0,1
 1590 -3.36505240276e-06 1590 -3.36505240276e-06 1489.82 -1.235475e-07 c 0,2,3
 1442 1.423755e-06 1442 1.423755e-06 1398.5 3.00000071188 c 128,-1,4
 1355 6 1355 6 1303 6 c 1,5,-1
 1211 3 l 1,6,7
 1161 0 1161 0 1119.5 0 c 128,-1,8
 1078 0 1078 0 1052 21.5 c 128,-1,9
 1026 43 1026 43 1026 79 c 128,-1,10
 1026 115 1026 115 1056.5 138 c 128,-1,11
 1087 161 1087 161 1138 161 c 2,12,-1
 1211 161 l 1,13,14
 1113.92 466.124 1113.92 466.124 793 831 c 1,15,16
 669 747 669 747 530 674 c 1,17,-1
 530 161 l 1,18,-1
 600 161 l 2,19,20
 670 161 670 161 698 136.5 c 128,-1,21
 726 112 726 112 726 87 c 0,22,23
 726 -9.33274187349e-06 726 -9.33274187349e-06 619 0 c 1,24,-1
 434 6 l 1,25,-1
 234 0 l 1,26,27
 189 0 189 0 163 21.5 c 128,-1,28
 137 43 137 43 137 79 c 128,-1,29
 137 115 137 115 167.5 138 c 128,-1,30
 198 161 198 161 249 161 c 2,31,-1
 344 161 l 1,32,-1
 344 1394 l 1,33,-1
 249 1394 l 2,34,35
 198 1394 198 1394 167.5 1416 c 128,-1,36
 137 1438 137 1438 137 1474 c 128,-1,37
 137 1510 137 1510 163 1532.5 c 128,-1,38
 189 1555 189 1555 234 1555 c 1,39,-1
 434 1548 l 1,40,-1
 619 1555 l 1,41,42
 701.25 1555 701.25 1555 720.5 1506 c 0,43,44
 726 1492 726 1492 726 1477 c 0,45,46
 726 1394 726 1394 600 1394 c 2,47,-1
 530 1394 l 1,48,-1
 530 837 l 1,49,50
 748.436 958.82 748.436 958.82 1026 1214 c 0,51,52
 1156.94 1334.38 1156.94 1334.38 1226.82416306 1420.3959497 c 128,-1,53
 1296.70832612 1506.41189941 1296.70832612 1506.41189941 1329.41416306 1530.7059497 c 128,-1,54
 1362.12 1555 1362.12 1555 1396.56 1555 c 128,-1,55
 1431 1555 1431 1555 1456.5 1536 c 128,-1,56
 1482 1517 1482 1517 1482 1482.08823529 c 128,-1,57
 1482 1447.17647059 1482 1447.17647059 1466.605 1418.19823529 c 128,-1,58
 1451.21 1389.22 1451.21 1389.22 1409.11 1345.61 c 1,59,60
 1287.72 1225.53 1287.72 1225.53 1217.36 1162.27 c 1,61,-1
 1079 1043 l 1,62,63
 1011 987 1011 987 936 931 c 1,64,65
 1275.62 574.183 1275.62 574.183 1408 161 c 1,66,-1
 1464 161 l 2,67,68
 1534 161 1534 161 1562 136.5 c 128,-1,69
 1590 112 1590 112 1590 87 c 0,0,1
EndSplineSet
EndChar

StartChar: M
Encoding: 77 77 20
Width: 2212
Flags: W
LayerCount: 2
Fore
SplineSet
2029.96066154 1378.73272231 m 1,0,-1
 1954.5 1382 l 2,1,2
 1939 1382 1939 1382 1927 1380 c 1,3,-1
 1927 161 l 1,4,-1
 2016 161 l 2,5,6
 2068 161 2068 161 2098.5 138 c 128,-1,7
 2129 115 2129 115 2129 79 c 128,-1,8
 2129 43 2129 43 2103 21.5 c 128,-1,9
 2077 0 2077 0 2032 0 c 1,10,-1
 1833 6 l 1,11,-1
 1646 0 l 1,12,13
 1565.26 0 1565.26 0 1545.5 48.5 c 0,14,15
 1540 62 1540 62 1540 87 c 128,-1,16
 1540 112 1540 112 1567.5 136.5 c 128,-1,17
 1595 161 1595 161 1665 161 c 2,18,-1
 1748 161 l 1,19,-1
 1748 1087 l 2,20,21
 1748 1204 1748 1204 1756 1296 c 1,22,-1
 1210 231 l 1,23,24
 1170.57142857 139 1170.57142857 139 1113 139 c 0,25,26
 1071.85714286 139 1071.85714286 139 1051.28857143 157.78 c 128,-1,27
 1030.72 176.56 1030.72 176.56 1004 230 c 1,28,-1
 452 1282 l 1,29,30
 461 1175.8 461 1175.8 461 1018 c 2,31,-1
 461 161 l 1,32,-1
 542 161 l 2,33,34
 611 161 611 161 639.5 136.5 c 128,-1,35
 668 112 668 112 668 87 c 0,36,37
 668 3.79774729752e-05 668 3.79774729752e-05 561 0 c 1,38,-1
 374 6 l 1,39,-1
 174 0 l 1,40,41
 130 0 130 0 104.5 21.5 c 128,-1,42
 79 43 79 43 79 79 c 128,-1,43
 79 115 79 115 109 138 c 128,-1,44
 139 161 139 161 191 161 c 2,45,-1
 280 161 l 1,46,-1
 280 1378 l 1,47,-1
 256 1379 l 1,48,-1
 176.230011626 1375.72638524 l 1,49,50
 151.689521576 1375.72638524 151.689521576 1375.72638524 126.955 1379.51 c 0,51,52
 61 1389.58 61 1389.58 61 1458 c 0,53,54
 61 1553 61 1553 184 1553 c 2,55,-1
 214 1553 l 2,56,57
 426.818 1553 426.818 1553 506 1486 c 0,58,59
 545.513 1452.57 545.513 1452.57 594 1360 c 2,60,-1
 1106 398 l 1,61,-1
 1581 1324 l 1,62,63
 1656.07 1474.14 1656.07 1474.14 1774.5 1518 c 0,64,65
 1854.35 1547.58 1854.35 1547.58 1926.68 1550.29 c 128,-1,66
 1999 1553 1999 1553 2044.5 1553 c 0,67,68
 2146 1553 2146 1553 2146 1462 c 0,69,70
 2146 1392.57894737 2146 1392.57894737 2088.5 1383.5 c 0,71,72
 2058.30964539 1378.73272231 2058.30964539 1378.73272231 2029.96066154 1378.73272231 c 1,0,-1
EndSplineSet
EndChar

StartChar: U
Encoding: 85 85 21
Width: 1532
Flags: W
LayerCount: 2
Fore
SplineSet
1539 1477 m 0,0,1
 1539 1394 1539 1394 1414 1394 c 2,2,-1
 1380 1394 l 1,3,-1
 1380 587 l 2,4,5
 1380 322.459 1380 322.459 1203.31 153.7295 c 128,-1,6
 1026.62 -15 1026.62 -15 773.3675 -15 c 128,-1,7
 520.115 -15 520.115 -15 350.5575 148.278 c 128,-1,8
 181 311.556 181 311.556 181 591 c 2,9,-1
 181 1394 l 1,10,-1
 127 1394 l 2,11,12
 76 1394 76 1394 45 1416 c 128,-1,13
 14 1438 14 1438 14 1474 c 128,-1,14
 14 1510 14 1510 40.5 1532.5 c 128,-1,15
 67 1555 67 1555 111 1555 c 1,16,-1
 293 1548 l 1,17,-1
 449 1555 l 1,18,19
 523.75 1555 523.75 1555 532.5 1506 c 0,20,21
 535 1492 535 1492 535 1464.15909091 c 0,22,23
 535 1394 535 1394 430 1394 c 2,24,-1
 367 1394 l 1,25,-1
 367 594 l 2,26,27
 367 372.86 367 372.86 483.982 257.93 c 128,-1,28
 600.964 143 600.964 143 782.4685 143 c 128,-1,29
 963.973 143 963.973 143 1079.4865 260.5945 c 128,-1,30
 1195 378.189 1195 378.189 1195 594 c 2,31,-1
 1195 1394 l 1,32,-1
 1111 1394 l 2,33,34
 1018 1394 1018 1394 1018 1474.5 c 128,-1,35
 1018 1555 1018 1555 1095 1555 c 2,36,-1
 1112 1555 l 1,37,-1
 1247 1548 l 1,38,-1
 1433 1555 l 1,39,40
 1514.25 1555 1514.25 1555 1533.5 1506 c 0,41,42
 1539 1492 1539 1492 1539 1477 c 0,0,1
EndSplineSet
EndChar

StartChar: V
Encoding: 86 86 22
Width: 1530
Flags: W
LayerCount: 2
Fore
SplineSet
1475 1543 m 1,0,1
 1568 1543 1568 1543 1568 1471 c 0,2,3
 1568 1406.67 1568 1406.67 1498 1395 c 1,4,5
 1455.1 1386.83 1455.1 1386.83 1436.05 1368.41 c 0,6,7
 1394.58765419 1328.34061489 1394.58765419 1328.34061489 1311.5 1134 c 0,8,9
 922.17 212.655 922.17 212.655 899.585 155.827 c 2,10,-1
 866 71 l 2,11,12
 828.387270562 -24 828.387270562 -24 772.5 -24 c 0,13,14
 725.285714286 -24 725.285714286 -24 701.753357143 -3.4091 c 128,-1,15
 678.221 17.1818 678.221 17.1818 662.61 60.5909 c 1,16,-1
 484 505 l 1,17,-1
 219 1124 l 2,18,19
 140.478 1309.09 140.478 1309.09 105.747 1348.16 c 128,-1,20
 71.016 1387.23 71.016 1387.23 30.008 1402.62 c 128,-1,21
 -11 1418 -11 1418 -26 1434 c 128,-1,22
 -41 1450 -41 1450 -41 1476 c 128,-1,23
 -41 1502 -41 1502 -16.5 1523.5 c 128,-1,24
 8 1545 8 1545 46 1545 c 1,25,-1
 188 1538 l 1,26,27
 221 1538 221 1538 254 1541 c 2,28,-1
 374 1552.5 l 2,29,30
 400 1555 400 1555 435.5 1555 c 128,-1,31
 471 1555 471 1555 499 1534.5 c 128,-1,32
 527 1514 527 1514 527 1474.5 c 0,33,34
 527 1384 527 1384 358 1384 c 2,35,-1
 316 1384 l 1,36,-1
 749 275 l 1,37,38
 760.273 250.199 760.273 250.199 771.137 258.099 c 128,-1,39
 782 266 782 266 786 275 c 2,40,-1
 1219 1383 l 1,41,42
 1205 1382 1205 1382 1193 1382 c 2,43,-1
 1168 1382 l 2,44,45
 1077 1382 1077 1382 1038 1409.5 c 128,-1,46
 999 1437 999 1437 999 1474.5 c 128,-1,47
 999 1512 999 1512 1028.5 1533.5 c 128,-1,48
 1058 1555 1058 1555 1093.5 1555 c 128,-1,49
 1129 1555 1129 1555 1153.5 1551.5 c 128,-1,50
 1178 1548 1178 1548 1204.5 1545.5 c 128,-1,51
 1231 1543 1231 1543 1261.625 1539.5 c 128,-1,52
 1292.25 1536 1292.25 1536 1338 1536 c 1,53,-1
 1475 1543 l 1,0,1
EndSplineSet
EndChar

StartChar: W
Encoding: 87 87 23
Width: 2390
Flags: W
LayerCount: 2
Fore
SplineSet
2204 1536 m 1,0,-1
 2355 1543 l 1,1,2
 2393 1543 2393 1543 2412.5 1521.5 c 128,-1,3
 2432 1500 2432 1500 2432 1475 c 128,-1,4
 2432 1450 2432 1450 2420 1434 c 128,-1,5
 2408 1418 2408 1418 2391 1405.5 c 128,-1,6
 2374 1393 2374 1393 2355.5 1381.5 c 128,-1,7
 2337 1370 2337 1370 2303.3420653 1338.26537585 c 0,8,9
 2269.6841306 1306.53075171 2269.6841306 1306.53075171 2229.5270653 1235.82037585 c 128,-1,10
 2189.37 1165.11 2189.37 1165.11 2123 966 c 1,11,12
 1850.71 182.061 1850.71 182.061 1825.86 103.531 c 128,-1,13
 1801 25 1801 25 1776.5 5 c 128,-1,14
 1752 -15 1752 -15 1713.95238095 -15 c 0,15,16
 1675.9047619 -15 1675.9047619 -15 1651.00738095 5.10835 c 128,-1,17
 1626.11 25.2167 1626.11 25.2167 1613.06 72.6083 c 128,-1,18
 1600 120 1600 120 1588 159 c 2,19,-1
 1560 246 l 2,20,21
 1544 294 1544 294 1521 356 c 2,22,-1
 1465 505 l 1,23,-1
 1206 1151 l 2,24,25
 1200.38 1166 1200.38 1166 1193.69 1166 c 128,-1,26
 1187 1166 1187 1166 1183 1154 c 2,27,-1
 773 79 l 2,28,29
 736.76744186 -16 736.76744186 -16 677 -16 c 0,30,31
 627.904761905 -16 627.904761905 -16 603.008880952 4.10835 c 128,-1,32
 578.113 24.2167 578.113 24.2167 561.056 85.6084 c 0,33,34
 517.412 239.309 517.412 239.309 500.706 291.654 c 2,35,-1
 429 505 l 1,36,-1
 267 966 l 1,37,38
 172.079 1243.27 172.079 1243.27 108.5 1315 c 0,39,40
 66.8057 1362.04 66.8057 1362.04 41.9029 1377.52 c 128,-1,41
 17 1393 17 1393 -0.5 1405.5 c 0,42,43
 -43 1435.86 -43 1435.86 -43 1467.93 c 128,-1,44
 -43 1500 -43 1500 -22.5 1521.5 c 128,-1,45
 -2 1543 -2 1543 36 1543 c 1,46,-1
 187 1536 l 1,47,48
 221 1536 221 1536 253.5 1539 c 2,49,-1
 319 1545 l 2,50,51
 348 1548 348 1548 377.5 1551.5 c 128,-1,52
 407 1555 407 1555 443 1555 c 128,-1,53
 479 1555 479 1555 503 1533.5 c 128,-1,54
 527 1512 527 1512 527 1472.5 c 0,55,56
 527 1382 527 1382 357 1382 c 2,57,-1
 335.5 1382 l 2,58,59
 325 1382 325 1382 314 1383 c 1,60,-1
 665 362 l 1,61,62
 674.412 330 674.412 330 686.706 330 c 128,-1,63
 699 330 699 330 709 361 c 1,64,-1
 1103 1433 l 2,65,66
 1122 1487 1122 1487 1145 1508.5 c 128,-1,67
 1168 1530 1168 1530 1206 1530 c 128,-1,68
 1244 1530 1244 1530 1267 1509.5 c 128,-1,69
 1290 1489 1290 1489 1310 1433 c 2,70,-1
 1697 362 l 2,71,72
 1707.67 330 1707.67 330 1718.335 330 c 128,-1,73
 1729 330 1729 330 1739 361 c 2,74,-1
 2087 1383 l 1,75,76
 2073 1382 2073 1382 2059.5 1382 c 2,77,-1
 2033 1382 l 2,78,79
 1898.46 1382 1898.46 1382 1872.5 1438.5 c 0,80,81
 1864 1457 1864 1457 1864 1484.5 c 128,-1,82
 1864 1512 1864 1512 1888.5 1533.5 c 128,-1,83
 1913 1555 1913 1555 1948 1555 c 128,-1,84
 1983 1555 1983 1555 2012.5 1551.5 c 128,-1,85
 2042 1548 2042 1548 2073 1545 c 2,86,-1
 2137 1539 l 2,87,88
 2170 1536 2170 1536 2204 1536 c 1,0,-1
EndSplineSet
EndChar

StartChar: X
Encoding: 88 88 24
Width: 1702
Flags: W
LayerCount: 2
Fore
SplineSet
262 14 m 1,0,-1
 53 0 l 1,1,2
 15 0 15 0 -10 21 c 128,-1,3
 -35 42 -35 42 -35 74.5 c 128,-1,4
 -35 107 -35 107 -9.5 125.5 c 128,-1,5
 16 144 16 144 62 152 c 0,6,7
 142.008547009 165.914529915 142.008547009 165.914529915 177.49875474 188.499207562 c 128,-1,8
 212.988962472 211.08388521 212.988962472 211.08388521 291.5 300 c 1,9,-1
 725 821 l 1,10,11
 568.384 1006.51 568.384 1006.51 498.192 1096.75 c 128,-1,12
 428 1187 428 1187 375 1245 c 0,13,14
 261.902 1368.77 261.902 1368.77 157 1388 c 1,15,-1
 119.5 1394.5 l 2,16,17
 42 1407.73 42 1407.73 42 1471 c 0,18,19
 42 1500 42 1500 66.5 1521.5 c 128,-1,20
 91 1543 91 1543 129 1543 c 1,21,-1
 281 1536 l 1,22,23
 314 1536 314 1536 347 1539 c 2,24,-1
 412 1545 l 2,25,26
 427 1546 427 1546 445 1548 c 128,-1,27
 463 1550 463 1550 493.8335 1552.5 c 128,-1,28
 524.667 1555 524.667 1555 558.333 1555 c 128,-1,29
 592 1555 592 1555 617 1533.5 c 128,-1,30
 642 1512 642 1512 642 1480 c 0,31,32
 642 1382 642 1382 474 1382 c 2,33,-1
 471 1382 l 1,34,-1
 840 944 l 1,35,-1
 1208 1382 l 1,36,37
 1055 1385.6 1055 1385.6 1055 1480 c 0,38,39
 1055 1512 1055 1512 1080 1533.5 c 128,-1,40
 1105 1555 1105 1555 1133 1555 c 128,-1,41
 1161 1555 1161 1555 1178.5 1554 c 128,-1,42
 1196 1553 1196 1553 1215 1551.5 c 128,-1,43
 1234 1550 1234 1550 1252 1548 c 128,-1,44
 1270 1546 1270 1546 1293.5 1544 c 2,45,-1
 1350 1539 l 2,46,47
 1383 1536 1383 1536 1416 1536 c 1,48,-1
 1558 1543 l 1,49,50
 1596 1543 1596 1543 1620.5 1521.5 c 128,-1,51
 1645 1500 1645 1500 1645 1472.5 c 0,52,53
 1645 1407.975 1645 1407.975 1568 1394.5 c 2,54,-1
 1530 1388 l 1,55,56
 1425.7 1368.88 1425.7 1368.88 1317 1256 c 0,57,58
 1265 1202 1265 1202 1207.5 1128.5 c 2,59,-1
 1077 965 l 1,60,-1
 961 827 l 1,61,-1
 1158 600 l 1,62,63
 1397.94 311.178 1397.94 311.178 1473.40608909 239.252420684 c 128,-1,64
 1548.87217818 167.326841368 1548.87217818 167.326841368 1604.29 157.798 c 2,65,-1
 1658 148.5 l 2,66,67
 1736 134.85 1736 134.85 1736 71 c 0,68,69
 1736 42 1736 42 1711.5 21.5 c 128,-1,70
 1687 1 1687 1 1661 1 c 128,-1,71
 1635 1 1635 1 1605.5 3.5 c 2,72,-1
 1543 9 l 1,73,-1
 1486 13 l 2,74,75
 1458 15 1458 15 1439 15 c 1,76,-1
 1195 0 l 1,77,78
 1127.78 0 1127.78 0 1102 43.5 c 0,79,80
 1094 57 1094 57 1094 73 c 0,81,82
 1094 165 1094 165 1274 165 c 2,83,-1
 1298 165 l 1,84,-1
 845 704 l 1,85,-1
 395 165 l 1,86,-1
 418 165 l 2,87,88
 597 165 597 165 597 73 c 0,89,90
 597 24.0811 597 24.0811 534.5 5.5 c 0,91,92
 516 0 516 0 496 0 c 1,93,-1
 262 14 l 1,0,-1
EndSplineSet
EndChar

StartChar: Y
Encoding: 89 89 25
Width: 1706
Flags: W
LayerCount: 2
Fore
SplineSet
80 1550 m 1,0,-1
 213.261 1536 l 1,1,2
 247 1536 247 1536 269 1537 c 2,3,-1
 313.5 1539 l 2,4,5
 363.931 1541.24 363.931 1541.24 386.466 1543.62 c 2,6,-1
 427 1548 l 2,7,8
 490 1555 490 1555 532 1555 c 128,-1,9
 574 1555 574 1555 599 1534.5 c 128,-1,10
 624 1514 624 1514 624 1477 c 128,-1,11
 624 1440 624 1440 583.5 1414 c 128,-1,12
 543 1388 543 1388 455 1388 c 2,13,-1
 414 1388 l 1,14,15
 465 1322 465 1322 515.5 1247.5 c 1,16,-1
 811 787 l 1,17,-1
 855 708 l 1,18,-1
 900 787 l 1,19,-1
 1089 1080 l 1,20,21
 1231.59 1293.88 1231.59 1293.88 1301 1388 c 1,22,-1
 1253 1388 l 2,23,24
 1178 1388 1178 1388 1135 1411.5 c 128,-1,25
 1092 1435 1092 1435 1092 1473.5 c 128,-1,26
 1092 1512 1092 1512 1117 1533.5 c 128,-1,27
 1142 1555 1142 1555 1178 1555 c 128,-1,28
 1214 1555 1214 1555 1249 1551.5 c 2,29,-1
 1313 1545 l 2,30,31
 1342.52 1541.31 1342.52 1541.31 1379.76 1539.66 c 2,32,-1
 1438.5 1537 l 2,33,34
 1460 1536 1460 1536 1477 1536 c 1,35,-1
 1628 1548 l 1,36,37
 1685.15 1548 1685.15 1548 1708.5 1499.5 c 0,38,39
 1715 1486 1715 1486 1715 1455.58571429 c 0,40,41
 1715 1425.17142857 1715 1425.17142857 1682.59 1409.43071429 c 128,-1,42
 1650.18 1393.69 1650.18 1393.69 1599.09 1387.34 c 128,-1,43
 1548 1381 1548 1381 1491.5 1329 c 0,44,45
 1394.06997667 1239.32989004 1394.06997667 1239.32989004 1245 1013.5 c 1,46,-1
 1081 771.5 l 1,47,48
 952 586.6 952 586.6 952 502 c 2,49,-1
 952 161 l 1,50,-1
 1063 161 l 2,51,52
 1133 161 1133 161 1161 136.5 c 128,-1,53
 1189 112 1189 112 1189 80 c 128,-1,54
 1189 48 1189 48 1165 24 c 128,-1,55
 1141 0 1141 0 1083 0 c 2,56,-1
 1058 0 l 2,57,58
 1043 0 1043 0 1026 0.5 c 2,59,-1
 992.5 1.5 l 2,60,61
 976 2 976 2 944 4 c 128,-1,62
 912 6 912 6 863 6 c 128,-1,63
 814 6 814 6 773.5 4 c 128,-1,64
 733 2 733 2 715 1.5 c 2,65,-1
 678.5 0.5 l 2,66,67
 660 0 660 0 643.5 0 c 2,68,-1
 617 0 l 2,69,70
 572 0 572 0 545.5 21.5 c 128,-1,71
 519 43 519 43 519 79 c 128,-1,72
 519 115 519 115 550 138 c 128,-1,73
 581 161 581 161 633 161 c 2,74,-1
 766 161 l 1,75,-1
 766 484 l 2,76,77
 766 576.111 766 576.111 629 774 c 1,78,-1
 561 870 l 2,79,80
 488 972 488 972 430.5 1061.5 c 128,-1,81
 373 1151 373 1151 321 1220 c 0,82,83
 208.514 1369.26 208.514 1369.26 108 1388 c 1,84,-1
 70 1394.5 l 2,85,86
 -8 1408.15 -8 1408.15 -8 1471 c 0,87,88
 -8 1550 -8 1550 80 1550 c 1,0,-1
EndSplineSet
EndChar

StartChar: Z
Encoding: 90 90 26
Width: 1526
Flags: W
LayerCount: 2
Fore
SplineSet
1177.5 -135 m 128,-1,1
 1166 -139 1166 -139 1143 -139 c 128,-1,2
 1120 -139 1120 -139 1100.00732984 -114.907257592 c 128,-1,3
 1080.01465969 -90.8145151832 1080.01465969 -90.8145151832 1080.01465969 -67.8765293194 c 128,-1,4
 1080.01465969 -44.9385434555 1080.01465969 -44.9385434555 1085 -25 c 1,5,6
 996.771 -6.83519 996.771 -6.83519 930.385 -5.4176 c 128,-1,7
 864 -4 864 -4 813.5 -3.5 c 128,-1,8
 763 -3 763 -3 659.163530714 -1.12907201073 c 128,-1,9
 555.327061427 0.741855978549 555.327061427 0.741855978549 477.036447276 0.741855978549 c 128,-1,10
 398.745833125 0.741855978549 398.745833125 0.741855978549 291.001916562 -7.62907201073 c 128,-1,11
 183.258 -16 183.258 -16 147.629 -16 c 0,12,13
 61 -16 61 -16 61 66 c 0,14,15
 61 133.018 61 133.018 167 266 c 1,16,-1
 1067 1376 l 1,17,18
 1021 1377 1021 1377 957 1379 c 2,19,-1
 824 1383 l 2,20,21
 773 1385 773 1385 723.5 1386.5 c 128,-1,22
 674 1388 674 1388 602.3335 1390.5 c 128,-1,23
 530.667 1393 530.667 1393 477.333 1393 c 0,24,25
 356.864 1393 356.864 1393 319 1274 c 1,26,27
 286.265 1186.71 286.265 1186.71 249.5 1172 c 0,28,29
 237 1167 237 1167 215 1167 c 128,-1,30
 193 1167 193 1167 170 1186 c 128,-1,31
 147 1205 147 1205 147 1237.5 c 0,32,33
 147 1330.9 147 1330.9 265.5 1539 c 0,34,35
 305.505 1609.25 305.505 1609.25 329.252 1621.13 c 128,-1,36
 353 1633 353 1633 377.5 1633 c 128,-1,37
 402 1633 402 1633 422.5 1616.5 c 128,-1,38
 443 1600 443 1600 443 1579 c 128,-1,39
 443 1558 443 1558 441 1546 c 1,40,41
 556.385 1521 556.385 1521 701 1521 c 1,42,-1
 1220 1535 l 1,43,44
 1311 1535 1311 1535 1311 1459 c 0,45,46
 1311 1413.44 1311 1413.44 1252 1336 c 1,47,-1
 313 157 l 1,48,49
 413 156 413 156 498.5 153 c 2,50,-1
 665 147 l 1,51,-1
 849 139.5 l 2,52,53
 939 136 939 136 1002 136 c 128,-1,54
 1065 136 1065 136 1089 145 c 0,55,56
 1150.75088519 168.156581947 1150.75088519 168.156581947 1226.43 278.907 c 128,-1,57
 1302.0294645 389.56363434 1302.0294645 389.56363434 1336.11973225 416.28181717 c 128,-1,58
 1370.21 443 1370.21 443 1402.1 443 c 128,-1,59
 1434 443 1434 443 1452 422 c 128,-1,60
 1470 401 1470 401 1470 365.096 c 128,-1,61
 1470 329.192 1470 329.192 1419.63691432 271.984906729 c 128,-1,62
 1369.27382864 214.777813458 1369.27382864 214.777813458 1319.45191432 121.777006729 c 128,-1,63
 1269.63 28.7762 1269.63 28.7762 1252.82 -21.6119 c 128,-1,64
 1236 -72 1236 -72 1224.5 -91 c 128,-1,65
 1213 -110 1213 -110 1201 -120.5 c 128,-1,0
 1189 -131 1189 -131 1177.5 -135 c 128,-1,1
EndSplineSet
EndChar

StartChar: n
Encoding: 110 110 27
Width: 1364
Flags: W
LayerCount: 2
Fore
SplineSet
172 0 m 1,0,1
 76 0 76 0 76 74 c 0,2,3
 76 110 76 110 106 130 c 128,-1,4
 136 150 136 150 189 150 c 2,5,-1
 278 150 l 1,6,-1
 278 802 l 2,7,8
 278 862 278 862 252 862 c 0,9,10
 238 862 238 862 215 855 c 128,-1,11
 192 848 192 848 159 848 c 128,-1,12
 126 848 126 848 101 869 c 128,-1,13
 76 890 76 890 76 926.5 c 0,14,15
 76 1002.41 76 1002.41 184 1013 c 0,16,17
 241.333 1018.33 241.333 1018.33 290.6665 1030.665 c 128,-1,18
 340 1043 340 1043 377.5 1043 c 0,19,20
 451 1043 451 1043 451 947 c 2,21,-1
 451 816 l 1,22,23
 494.004 912.247 494.004 912.247 591.79 973.6235 c 128,-1,24
 689.576 1035 689.576 1035 798.788 1035 c 0,25,26
 992.714285714 1035 992.714285714 1035 1073.85714286 936.827 c 128,-1,27
 1155 838.654 1155 838.654 1155 673 c 2,28,-1
 1155 150 l 1,29,-1
 1222 150 l 2,30,31
 1348 150 1348 150 1348 71 c 0,32,33
 1348 43 1348 43 1324 21.5 c 128,-1,34
 1300 0 1300 0 1242 0 c 1,35,-1
 1066 6 l 1,36,-1
 876 0 l 1,37,38
 780 0 780 0 780 74 c 0,39,40
 780 110 780 110 810 130 c 128,-1,41
 840 150 840 150 893 150 c 2,42,-1
 980 150 l 1,43,-1
 980 608 l 2,44,45
 980 818.192 980 818.192 873.5 860.5 c 0,46,47
 837 875 837 875 785 875 c 0,48,49
 678.486842105 875 678.486842105 875 580.543921053 793.2015 c 128,-1,50
 482.601 711.403 482.601 711.403 451 585 c 1,51,-1
 451 150 l 1,52,-1
 518 150 l 2,53,54
 644 150 644 150 644 71 c 0,55,56
 644 43 644 43 620 21.5 c 128,-1,57
 596 0 596 0 538 0 c 1,58,-1
 362 6 l 1,59,-1
 172 0 l 1,0,1
EndSplineSet
EndChar

StartChar: h
Encoding: 104 104 28
Width: 1364
Flags: W
LayerCount: 2
Fore
SplineSet
556.5 0 m 1,0,-1
 368.125 6 l 1,1,2
 326 6 326 6 305 5 c 2,3,-1
 261 3 l 2,4,5
 211 0 211 0 173 0 c 0,6,7
 76 0 76 0 76 74 c 0,8,9
 76 110 76 110 106.5 130 c 128,-1,10
 137 150 137 150 188 150 c 2,11,-1
 278 150 l 1,12,-1
 278 1352 l 2,13,14
 278 1412 278 1412 254.5 1412 c 0,15,16
 244 1412 244 1412 234 1409.5 c 2,17,-1
 211 1404 l 1,18,19
 183.5 1399 183.5 1399 154.75 1399 c 128,-1,20
 126 1399 126 1399 101 1419 c 128,-1,21
 76 1439 76 1439 76 1475.5 c 0,22,23
 76 1551.41 76 1551.41 184 1562 c 0,24,25
 252 1568 252 1568 294.8235 1581 c 128,-1,26
 337.647 1594 337.647 1594 376.324 1594 c 0,27,28
 451 1594 451 1594 451 1497 c 2,29,-1
 451 822 l 1,30,31
 494.5 909 494.5 909 590.05 972 c 128,-1,32
 685.6 1035 685.6 1035 793.3 1035 c 0,33,34
 1154 1035 1154 1035 1154 683 c 2,35,-1
 1154 150 l 1,36,-1
 1221 150 l 2,37,38
 1347 150 1347 150 1347 71 c 0,39,40
 1347 43 1347 43 1323 21.5 c 128,-1,41
 1299 0 1299 0 1260 0 c 1,42,-1
 1069.88 6 l 1,43,44
 1028 6 1028 6 1007 5 c 2,45,-1
 963 3 l 2,46,47
 915 0 915 0 875 0 c 0,48,49
 779 0 779 0 779 74 c 0,50,51
 779 110 779 110 809 130 c 128,-1,52
 839 150 839 150 892 150 c 2,53,-1
 979 150 l 1,54,-1
 979 618 l 2,55,56
 979 827.789 979 827.789 861 863.5 c 0,57,58
 823 875 823 875 773 875 c 0,59,60
 668.85 875 668.85 875 575.617 789.2685 c 128,-1,61
 482.384 703.537 482.384 703.537 451 578 c 1,62,-1
 451 150 l 1,63,-1
 518 150 l 2,64,65
 644 150 644 150 644 71 c 0,66,67
 644 43 644 43 619.5 21.5 c 128,-1,68
 595 0 595 0 556.5 0 c 1,0,-1
EndSplineSet
EndChar

StartChar: a
Encoding: 97 97 29
Width: 1194
Flags: W
LayerCount: 2
Fore
SplineSet
836 416 m 1,0,1
 673.846 447 673.846 447 548.652166667 447 c 0,2,3
 423.458333333 447 423.458333333 447 363.729166667 397.569 c 128,-1,4
 304 348.138 304 348.138 304 285.003 c 128,-1,5
 304 221.868 304 221.868 358.9485 181.434 c 128,-1,6
 413.897 141 413.897 141 512.949 141 c 0,7,8
 715.565 141 715.565 141 836 272 c 1,9,-1
 836 416 l 1,0,1
859 117 m 1,10,11
 748.999404178 -15 748.999404178 -15 493.5 -15 c 0,12,13
 323.868421053 -15 323.868421053 -15 223.434210526 62.888 c 128,-1,14
 123 140.776 123 140.776 123 274 c 0,15,16
 123 494.545 123 494.545 368.5 561.5 c 0,17,18
 451 584 451 584 582.618 584 c 128,-1,19
 714.235 584 714.235 584 836 554 c 1,20,-1
 836 664 l 2,21,22
 836 828.585 836 828.585 704 866.5 c 0,23,24
 657 880 657 880 577.5 880 c 0,25,26
 409.25 880 409.25 880 383 790 c 1,27,28
 367.138 742.414 367.138 742.414 325.5 721 c 0,29,30
 308 712 308 712 285 712 c 0,31,32
 190 712 190 712 190 814 c 0,33,34
 190 901.075 190 901.075 304.484 968.0375 c 128,-1,35
 418.968 1035 418.968 1035 595 1035 c 0,36,37
 893.049 1035 893.049 1035 979.5 824 c 0,38,39
 1009 752 1009 752 1009 654 c 2,40,-1
 1009 395 l 2,41,42
 1009 258.769 1009 258.769 1020.16 212.409 c 128,-1,43
 1031.32 166.049 1031.32 166.049 1061.16 147.025 c 0,44,45
 1114 113.336 1114 113.336 1114 68 c 0,46,47
 1114 -15 1114 -15 1009.5 -15 c 128,-1,48
 905 -15 905 -15 859 117 c 1,10,11
EndSplineSet
EndChar

StartChar: i
Encoding: 105 105 30
Width: 682
Flags: W
LayerCount: 2
Fore
SplineSet
592.5 0 m 1,0,-1
 404.125 6 l 1,1,2
 362 6 362 6 341 5 c 2,3,-1
 297 3 l 2,4,5
 247 0 247 0 209 0 c 0,6,7
 112 0 112 0 112 74 c 0,8,9
 112 110 112 110 142.5 130 c 128,-1,10
 173 150 173 150 224 150 c 2,11,-1
 302 150 l 1,12,-1
 302 802 l 2,13,14
 302 862 302 862 276 862 c 0,15,16
 264.25 862 264.25 862 238.6365 855 c 128,-1,17
 213.023 848 213.023 848 181.511 848 c 128,-1,18
 150 848 150 848 125 869 c 128,-1,19
 100 890 100 890 100 926.5 c 0,20,21
 100 1002.41 100 1002.41 208 1013 c 0,22,23
 274.879 1018.9 274.879 1018.9 317.632 1030.95 c 128,-1,24
 360.385 1043 360.385 1043 399.693 1043 c 0,25,26
 475 1043 475 1043 475 947 c 2,27,-1
 475 150 l 1,28,-1
 554 150 l 2,29,30
 680 150 680 150 680 71 c 0,31,32
 680 43 680 43 655.5 21.5 c 128,-1,33
 631 0 631 0 592.5 0 c 1,0,-1
512 1386.5 m 0,34,35
 512 1288.52173913 512 1288.52173913 430 1260 c 0,36,37
 407 1252 407 1252 365.112903226 1252 c 0,38,39
 323.225806452 1252 323.225806452 1252 288.112903226 1284.985 c 128,-1,40
 253 1317.97 253 1317.97 253 1370.98 c 128,-1,41
 253 1424 253 1424 289.5 1459 c 128,-1,42
 326 1494 326 1494 385.5 1494 c 128,-1,43
 445 1494 445 1494 478.5 1462.5 c 128,-1,44
 512 1431 512 1431 512 1386.5 c 0,34,35
EndSplineSet
EndChar

StartChar: d
Encoding: 100 100 31
Width: 1194
Flags: W
LayerCount: 2
Fore
SplineSet
855 803 m 1,0,1
 757.632 877 757.632 877 616.3835 877 c 0,2,3
 475.135 877 475.135 877 377.5 774 c 128,-1,4
 280 671.143 280 671.143 280 504.3505 c 0,5,6
 280 337.558 280 337.558 369 240.279 c 0,7,8
 458 143 458 143 607 143 c 128,-1,9
 756 143 756 143 855 258 c 1,10,-1
 855 803 l 1,0,1
881 111 m 1,11,12
 768.034 -15 768.034 -15 576.771 -15 c 0,13,14
 385.508 -15 385.508 -15 245.754 123.703 c 0,15,16
 106 262.406 106 262.406 106 495.703 c 0,17,18
 106 729 106 729 259 882 c 0,19,20
 412 1035 412 1035 643 1035 c 0,21,22
 761.16 1035 761.16 1035 855 984 c 1,23,-1
 855 1353 l 2,24,25
 855 1392 855 1392 848.5 1402 c 128,-1,26
 842 1412 842 1412 830 1412 c 1,27,-1
 744 1400 l 1,28,29
 704 1400 704 1400 678.5 1420 c 128,-1,30
 653 1440 653 1440 653 1476.5 c 0,31,32
 653 1552.31 653 1552.31 762 1563 c 0,33,34
 836.049 1569.73 836.049 1569.73 872.5605 1581.865 c 0,35,36
 909.072 1594 909.072 1594 950.536 1594 c 0,37,38
 1028 1594 1028 1594 1028 1498 c 2,39,-1
 1028 395 l 2,40,41
 1028 258.769 1028 258.769 1039.16 212.409 c 0,42,43
 1050.32 166.049 1050.32 166.049 1080.16 146.525 c 0,44,45
 1132 112.605 1132 112.605 1132 70 c 0,46,47
 1132 -15 1132 -15 1029.5 -15 c 128,-1,48
 927 -15 927 -15 881 111 c 1,11,12
EndSplineSet
EndChar

StartChar: e
Encoding: 101 101 32
Width: 1194
Flags: W
LayerCount: 2
Fore
SplineSet
299 604 m 1,0,-1
 367.5 602 l 2,1,2
 402 601 402 601 585.95 601 c 128,-1,3
 769.9 601 769.9 601 826.95 631.0265 c 128,-1,4
 884 661.053 884 661.053 884 722.082 c 128,-1,5
 884 783.111 884 783.111 815.221 830.0555 c 128,-1,6
 746.442 877 746.442 877 662.221 877 c 0,7,8
 515.436619718 877 515.436619718 877 420.063309859 801.761 c 128,-1,9
 324.69 726.522 324.69 726.522 299 604 c 1,0,-1
969.854 315 m 0,10,11
 1058 315 1058 315 1058 236.5 c 0,12,13
 1058 200 1058 200 1030.5 155.5 c 128,-1,14
 1003 111 1003 111 949.5 73 c 0,15,16
 825.605 -15 825.605 -15 625.4155 -15 c 128,-1,17
 425.226 -15 425.226 -15 277.5 120.5 c 0,18,19
 205 187 205 187 161 285 c 128,-1,20
 117 383 117 383 117 500.5 c 0,21,22
 117 728.328571429 117 728.328571429 267.119 881.664285714 c 128,-1,23
 417.238 1035 417.238 1035 645 1035 c 0,24,25
 835.034 1035 835.034 1035 946.517 942.6285 c 128,-1,26
 1058 850.257 1058 850.257 1058 715.212 c 128,-1,27
 1058 580.167 1058 580.167 949.010512618 513.562070054 c 128,-1,28
 840.021025235 446.957140108 840.021025235 446.957140108 534.665338841 446.957140108 c 0,29,30
 453.625072177 446.957140108 453.625072177 446.957140108 295 453 c 1,31,32
 313.458 297.949 313.458 297.949 415.013 220.4745 c 128,-1,33
 516.568 143 516.568 143 627.784 143 c 128,-1,34
 739 143 739 143 803.5 167.5 c 128,-1,35
 868 192 868 192 896.354 253.5 c 128,-1,36
 924.708 315 924.708 315 969.854 315 c 0,10,11
EndSplineSet
EndChar

StartChar: o
Encoding: 111 111 33
Width: 1194
Flags: W
LayerCount: 2
Fore
SplineSet
360.459 245.855555556 m 128,-1,1
 454.918 143 454.918 143 600.803 143 c 128,-1,2
 746.688 143 746.688 143 836.344 239.9535 c 128,-1,3
 926 336.907 926 336.907 926 499 c 0,4,5
 926 768.143 926 768.143 735 850 c 0,6,7
 672 877 672 877 593 877 c 0,8,9
 442.361702128 877 442.361702128 877 354.180851064 778.321428571 c 128,-1,10
 266 679.642857143 266 679.642857143 266 514.176984127 c 128,-1,0
 266 348.711111111 266 348.711111111 360.459 245.855555556 c 128,-1,1
237.3215 883.313868613 m 128,-1,12
 382.643 1035 382.643 1035 603.34 1035 c 128,-1,13
 824.037 1035 824.037 1035 962.5185 894.436 c 128,-1,14
 1101 753.872 1101 753.872 1101 519.333 c 128,-1,15
 1101 284.794 1101 284.794 956.4185 134.897 c 128,-1,16
 811.837 -15 811.837 -15 587.3425 -15 c 128,-1,17
 362.848 -15 362.848 -15 227.424 129.872 c 128,-1,18
 92 274.744 92 274.744 92 503.185868613 c 128,-1,11
 92 731.627737226 92 731.627737226 237.3215 883.313868613 c 128,-1,12
EndSplineSet
EndChar

StartChar: s
Encoding: 115 115 34
Width: 1022
Flags: W
LayerCount: 2
Fore
SplineSet
536.1 -15 m 0,0,1
 449.2 -15 449.2 -15 368 -1 c 1,2,3
 327 -73 327 -73 282 -73 c 0,4,5
 218 -73 218 -73 218 -14 c 0,6,7
 218 38.3077 218 38.3077 191.5 83.1538 c 128,-1,8
 165 128 165 128 145 158 c 0,9,10
 78 258.5 78 258.5 78 298.25 c 128,-1,11
 78 338 78 338 101 357 c 128,-1,12
 124 376 124 376 151.5 376 c 0,13,14
 207.089 376 207.089 376 251.736 288.604 c 128,-1,15
 296.383 201.208 296.383 201.208 357.237 172.104 c 128,-1,16
 418.091 143 418.091 143 549 143 c 0,17,18
 742.167 143 742.167 143 800.5 253 c 0,19,20
 818 286 818 286 818 325 c 0,21,22
 818 403.316 818 403.316 749.91 435.569 c 128,-1,23
 681.82 467.822 681.82 467.822 538.91 476.911 c 128,-1,24
 396 486 396 486 328.5 508.5 c 0,25,26
 130 574.666666667 130 574.666666667 130 746 c 0,27,28
 130 851.429 130 851.429 240.625 935.7145 c 128,-1,29
 351.25 1020 351.25 1020 564 1020 c 0,30,31
 608.667 1020 608.667 1020 654 1012 c 1,32,33
 644 1040 644 1040 644 1059 c 128,-1,34
 644 1078 644 1078 661 1094.5 c 128,-1,35
 678 1111 678 1111 703.5 1111 c 128,-1,36
 729 1111 729 1111 743 1098 c 128,-1,37
 757 1085 757 1085 775.112 1049.475 c 128,-1,38
 793.224 1013.95 793.224 1013.95 843.924084298 948.704970357 c 0,39,40
 894.624168597 883.459940713 894.624168597 883.459940713 907.312084298 858.929970357 c 128,-1,41
 920 834.4 920 834.4 920 806.2 c 128,-1,42
 920 778 920 778 902.5 759 c 128,-1,43
 885 740 885 740 855.5 740 c 0,44,45
 801.184 740 801.184 740 757 813 c 0,46,47
 735.372 850.357 735.372 850.357 692.986 864.1785 c 128,-1,48
 650.6 878 650.6 878 546.8 878 c 0,49,50
 443 878 443 878 380.5 840.5 c 128,-1,51
 318 803 318 803 318 752.061 c 128,-1,52
 318 701.122 318 701.122 350.5 680.561 c 0,53,54
 409.185 643.434 409.185 643.434 533.592 636.217 c 0,55,56
 774.266615137 622.255287751 774.266615137 622.255287751 882.633307569 553.916143876 c 128,-1,57
 991 485.577 991 485.577 991 351 c 0,58,59
 991 178.032 991 178.032 858.815 81.516 c 128,-1,60
 726.63 -15 726.63 -15 536.1 -15 c 0,0,1
EndSplineSet
EndChar

StartChar: one
Encoding: 49 49 35
Width: 1020
Flags: W
LayerCount: 2
Fore
SplineSet
155 79 m 128,-1,1
 155 115 155 115 185.5 138 c 128,-1,2
 216 161 216 161 268 161 c 2,3,-1
 509 161 l 1,4,-1
 509 1295 l 1,5,-1
 449 1241 l 2,6,7
 396.171774194 1192.23548387 396.171774194 1192.23548387 315.832887097 1092.11774194 c 128,-1,8
 235.494 992 235.494 992 172 992 c 0,9,10
 128 992 128 992 107 1017.5 c 128,-1,11
 86 1043 86 1043 86 1081 c 0,12,13
 86 1148.27 86 1148.27 173 1214 c 1,14,15
 307.117 1307.14 307.117 1307.14 452 1477 c 1,16,-1
 489 1518 l 1,17,18
 542.833 1575 542.833 1575 593.917 1575 c 128,-1,19
 645 1575 645 1575 670 1541 c 128,-1,20
 695 1507 695 1507 695 1453 c 2,21,-1
 695 161 l 1,22,-1
 871 161 l 2,23,24
 941 161 941 161 970 136.5 c 128,-1,25
 999 112 999 112 999 80 c 128,-1,26
 999 48 999 48 974 24 c 128,-1,27
 949 0 949 0 891 0 c 2,28,-1
 860 0 l 2,29,30
 839 0 839 0 815 0.5 c 2,31,-1
 768 1.5 l 2,32,33
 745 2 745 2 730.333333333 2.66666666667 c 0,34,35
 715.666666667 3.33333333333 715.666666667 3.33333333333 672.5 4.5 c 2,36,-1
 635 5.5 l 2,37,38
 616 6 616 6 598.5 6 c 128,-1,39
 581 6 581 6 556.5 5.5 c 2,40,-1
 508 4.5 l 2,41,42
 448 3.25 448 3.25 433 2.625 c 128,-1,43
 418 2 418 2 392.5 1.5 c 2,44,-1
 339 0.5 l 2,45,46
 311 0 311 0 286 0 c 2,47,-1
 251 0 l 2,48,49
 206 0 206 0 180.5 21.5 c 128,-1,0
 155 43 155 43 155 79 c 128,-1,1
EndSplineSet
EndChar

StartChar: two
Encoding: 50 50 36
Width: 1707
Flags: W
LayerCount: 2
Fore
SplineSet
1093.5 1322.5 m 128,-1,1
 983.191 1416 983.191 1416 804.9395 1416 c 128,-1,2
 626.688 1416 626.688 1416 522.344 1331.68 c 128,-1,3
 418 1247.36 418 1247.36 418 1114.68 c 128,-1,4
 418 982 418 982 535 982 c 0,5,6
 573 982 573 982 603.5 961.5 c 128,-1,7
 634 941 634 941 634 898.647058824 c 0,8,9
 634 856.294117647 634 856.294117647 597.926 827.647058824 c 128,-1,10
 561.852 799 561.852 799 505.926 799 c 0,11,12
 395.223529412 799 395.223529412 799 316.611764706 890.534 c 128,-1,13
 238 982.068 238 982.068 238 1115 c 0,14,15
 238 1301.89 238 1301.89 391.3615 1438.445 c 128,-1,16
 544.723 1575 544.723 1575 811.2215 1575 c 128,-1,17
 1077.72 1575 1077.72 1575 1233.86 1439.04 c 128,-1,18
 1390 1303.08 1390 1303.08 1390 1098.7325 c 128,-1,19
 1390 894.385 1390 894.385 1238.215 704.8895 c 128,-1,20
 1086.43 515.394 1086.43 515.394 720 265 c 1,21,22
 784.219 247.875 784.219 247.875 867.109 219.938 c 1,23,24
 1127.01497555 149.619878814 1127.01497555 149.619878814 1189.00748777 148.309939407 c 0,25,26
 1251 147 1251 147 1305.5 174 c 128,-1,27
 1360 201 1360 201 1383 246 c 128,-1,28
 1406 291 1406 291 1428 308 c 128,-1,29
 1450 325 1450 325 1484 325 c 128,-1,30
 1518 325 1518 325 1539.5 301.5 c 128,-1,31
 1561 278 1561 278 1561 240 c 128,-1,32
 1561 202 1561 202 1530.5 155.5 c 128,-1,33
 1500 109 1500 109 1447 71 c 0,34,35
 1327.05 -15 1327.05 -15 1190.94 -15 c 128,-1,36
 1054.83 -15 1054.83 -15 971.417 7 c 128,-1,37
 888 29 888 29 759 72 c 0,38,39
 630 115 630 115 564.5 115 c 128,-1,40
 499 115 499 115 459 94.5 c 128,-1,41
 419 74 419 74 358.5595 29.5 c 128,-1,42
 298.119 -15 298.119 -15 239.442 -15 c 128,-1,43
 180.765 -15 180.765 -15 154.5 32 c 0,44,45
 145 49 145 49 145 86 c 128,-1,46
 145 123 145 123 181 155.5 c 128,-1,47
 217 188 217 188 368.5 262.5 c 128,-1,48
 520 337 520 337 691.5 451 c 128,-1,49
 863 565 863 565 977 674.5 c 0,50,51
 1204 892.539 1204 892.539 1204 1078 c 0,52,0
 1204 1228.84 1204 1228.84 1093.5 1322.5 c 128,-1,1
EndSplineSet
EndChar

StartChar: nine
Encoding: 57 57 37
Width: 1704
Flags: W
LayerCount: 2
Fore
SplineSet
1118 777 m 0,0,1
 1189 777 1189 777 1189 703 c 0,2,3
 1189 600.814 1189 600.814 1057.125 511.407 c 128,-1,4
 925.25 422 925.25 422 781.625 422 c 0,5,6
 511 422 511 422 347.5 585.5 c 128,-1,7
 184 749 184 749 184 993.52 c 128,-1,8
 184 1238.04 184 1238.04 370.1285 1406.52 c 128,-1,9
 556.257 1575 556.257 1575 842.1635 1575 c 128,-1,10
 1128.07 1575 1128.07 1575 1323.535 1377.435 c 128,-1,11
 1519 1179.87 1519 1179.87 1519 848 c 0,12,13
 1519 616.949 1519 616.949 1397.935 418.282 c 128,-1,14
 1276.87 219.615 1276.87 219.615 1081.011 102.3075 c 128,-1,15
 885.152 -15 885.152 -15 676 -15 c 0,16,17
 521.263 -15 521.263 -15 486 52 c 0,18,19
 476 71 476 71 476 102.5 c 128,-1,20
 476 134 476 134 508 160.5 c 128,-1,21
 540 187 540 187 577.5 187 c 128,-1,22
 615 187 615 187 662.847000599 177.663922231 c 128,-1,23
 710.694001197 168.327844462 710.694001197 168.327844462 738.755448014 168.327844462 c 128,-1,24
 766.816894831 168.327844462 766.816894831 168.327844462 800.408447416 169.663922231 c 128,-1,25
 834 171 834 171 900 195 c 0,26,27
 1117.30616468 274.020423519 1117.30616468 274.020423519 1247.8338544 503.623520992 c 0,28,29
 1334 655.193 1334 655.193 1334 815.596 c 0,30,31
 1334 1109.57746479 1334 1109.57746479 1185.56 1264.28873239 c 128,-1,32
 1037.12 1419 1037.12 1419 805 1419 c 0,33,34
 626.839 1419 626.839 1419 493.9195 1291.485 c 128,-1,35
 361 1163.97 361 1163.97 361 983.2125 c 128,-1,36
 361 802.455 361 802.455 478.1155 691.7275 c 128,-1,37
 595.231 581 595.231 581 766 581 c 0,38,39
 881.304 581 881.304 581 977 652 c 0,40,41
 1008 675 1008 675 1033.63438735 712.697628458 c 128,-1,42
 1059.2687747 750.395256917 1059.2687747 750.395256917 1076.72938735 763.697628458 c 128,-1,43
 1094.19 777 1094.19 777 1118 777 c 0,0,1
EndSplineSet
EndChar

StartChar: six
Encoding: 54 54 38
Width: 1704
Flags: W
LayerCount: 2
Fore
SplineSet
238.5 409.5 m 128,-1,1
 186 544 186 544 186 688 c 0,2,3
 186 944.623931624 186 944.623931624 307.59277849 1143.12154437 c 128,-1,4
 429.18555698 1341.61915712 429.18555698 1341.61915712 624.01677849 1458.30957856 c 128,-1,5
 818.848 1575 818.848 1575 1028 1575 c 0,6,7
 1182.38 1575 1182.38 1575 1217 1507.5 c 0,8,9
 1227 1488 1227 1488 1227 1456.5 c 128,-1,10
 1227 1425 1227 1425 1195.5 1399.5 c 128,-1,11
 1164 1374 1164 1374 1126.5 1374 c 128,-1,12
 1089 1374 1089 1374 1067.5 1377 c 2,13,-1
 1025 1383 l 1,14,15
 986.245059238 1390.45240445 986.245059238 1390.45240445 947.479020405 1390.45240445 c 0,16,17
 811.307977662 1390.45240445 811.307977662 1390.45240445 677.713488831 1300.33120223 c 128,-1,18
 544.119 1210.21 544.119 1210.21 457.0595 1058.8905 c 128,-1,19
 370 907.571 370 907.571 370 746.286 c 0,20,21
 370 451.943661972 370 451.943661972 517.215 297.471830986 c 128,-1,22
 664.43 143 664.43 143 898 143 c 0,23,24
 1076.28 143 1076.28 143 1206.14 269.6125 c 128,-1,25
 1336 396.225 1336 396.225 1336 583.946 c 128,-1,26
 1336 771.667 1336 771.667 1222.96 876.3335 c 128,-1,27
 1109.92 981 1109.92 981 939 981 c 0,28,29
 824.043 981 824.043 981 727 909 c 0,30,31
 696 886 696 886 673.269230769 851.903846154 c 128,-1,32
 650.538461538 817.807692308 650.538461538 817.807692308 631.239730769 801.403846154 c 128,-1,33
 611.941 785 611.941 785 583.471 785 c 128,-1,34
 555 785 555 785 535.5 803.5 c 128,-1,35
 516 822 516 822 516 865 c 128,-1,36
 516 908 516 908 552 958.5 c 128,-1,37
 588 1009 588 1009 647 1049 c 0,38,39
 779.75 1139 779.75 1139 922.875 1139 c 0,40,41
 1197.26027397 1139 1197.26027397 1139 1357.63013699 985.9675 c 128,-1,42
 1518 832.935 1518 832.935 1518 574 c 0,43,44
 1518 454 1518 454 1469 347 c 128,-1,45
 1420 240 1420 240 1334 159.5 c 0,46,47
 1147.58 -15 1147.58 -15 861.221 -15 c 128,-1,48
 574.862 -15 574.862 -15 383.5 180.5 c 0,49,0
 291 275 291 275 238.5 409.5 c 128,-1,1
EndSplineSet
EndChar

StartChar: three
Encoding: 51 51 39
Width: 1704
Flags: W
LayerCount: 2
Fore
SplineSet
954 1388 m 1,0,1
 872.6 1377 872.6 1377 768.05 1377 c 0,2,3
 663.5 1377 663.5 1377 572.5 1381 c 0,4,5
 322.356 1392 322.356 1392 294.5 1470.5 c 0,6,7
 289 1486 289 1486 289 1512 c 128,-1,8
 289 1538 289 1538 318 1560 c 128,-1,9
 347 1582 347 1582 391.5 1582 c 128,-1,10
 436 1582 436 1582 523.5 1564.5 c 0,11,12
 611 1547 611 1547 767.5 1547 c 128,-1,13
 924 1547 924 1547 968.5 1556 c 128,-1,14
 1013 1565 1013 1565 1073 1583 c 128,-1,15
 1133 1601 1133 1601 1168.5 1601 c 128,-1,16
 1204 1601 1204 1601 1226.5 1580.5 c 128,-1,17
 1249 1560 1249 1560 1249 1529.23333333 c 0,18,19
 1249 1498.46666667 1249 1498.46666667 1235.925 1474.06333333 c 128,-1,20
 1222.85 1449.66 1222.85 1449.66 1181 1404 c 2,21,-1
 940 1142 l 1,22,-1
 943 1142 l 2,23,24
 1170.31 1142 1170.31 1142 1336.655 1002.1435 c 128,-1,25
 1503 862.287 1503 862.287 1503 607.0595 c 128,-1,26
 1503 351.832 1503 351.832 1305.72 168.416 c 128,-1,27
 1108.44 -15 1108.44 -15 815.661 -15 c 128,-1,28
 522.882 -15 522.882 -15 361.441 129.4475 c 128,-1,29
 200 273.895 200 273.895 200 464 c 0,30,31
 200 601.39 200 601.39 263.954 695.695 c 128,-1,32
 327.908 790 327.908 790 419 790 c 0,33,34
 468 790 468 790 496 766 c 128,-1,35
 524 742 524 742 524 699 c 128,-1,36
 524 656 524 656 501.5 632.5 c 128,-1,37
 479 609 479 609 446 589.5 c 0,38,39
 386 554.045 386 554.045 386 476.523 c 0,40,41
 386 333.145299145 386 333.145299145 512.5 238 c 128,-1,42
 638.807 143 638.807 143 812 143 c 0,43,44
 1032.31 143 1032.31 143 1174.655 266.3665 c 128,-1,45
 1317 389.733 1317 389.733 1317 595 c 0,46,47
 1317 871.622 1317 871.622 1094 956 c 0,48,49
 1020 984 1020 984 959.5 984 c 128,-1,50
 899 984 899 984 873.5 980 c 128,-1,51
 848 976 848 976 820 958.5 c 128,-1,52
 792 941 792 941 776.5 929.5 c 128,-1,53
 761 918 761 918 738.1055 903 c 128,-1,54
 715.211 888 715.211 888 684.105 888 c 128,-1,55
 653 888 653 888 633 909.5 c 128,-1,56
 613 931 613 931 613 956 c 0,57,58
 613 1008.63889996 613 1008.63889996 683 1085 c 1,59,-1
 954 1388 l 1,0,1
EndSplineSet
EndChar

StartChar: five
Encoding: 53 53 40
Width: 1704
Flags: W
LayerCount: 2
Fore
SplineSet
492.566487671 1436.02761325 m 1,0,-1
 486 1522.95 l 1,1,2
 486 1549 486 1549 507 1571.5 c 128,-1,3
 528 1594 528 1594 567.222 1594 c 128,-1,4
 606.444 1594 606.444 1594 682.611 1567 c 128,-1,5
 758.778 1540 758.778 1540 817.889 1540 c 0,6,7
 977.838484848 1540 977.838484848 1540 1048.41924242 1553 c 128,-1,8
 1119 1566 1119 1566 1146.75 1570.5 c 128,-1,9
 1174.5 1575 1174.5 1575 1222.75 1575 c 128,-1,10
 1271 1575 1271 1575 1300 1553 c 128,-1,11
 1329 1531 1329 1531 1329 1505 c 0,12,13
 1329 1412.91129032 1329 1412.91129032 1218.56 1393.56 c 0,14,15
 1084.10041841 1370 1084.10041841 1370 923.478709205 1370 c 128,-1,16
 762.857 1370 762.857 1370 657 1383 c 1,17,-1
 577 1115 l 1,18,19
 662.75 1164 662.75 1164 854 1164 c 0,20,21
 1120.38 1164 1120.38 1164 1308.69 996.611 c 128,-1,22
 1497 829.222 1497 829.222 1497 581.0675 c 128,-1,23
 1497 332.913 1497 332.913 1301.83 158.9565 c 128,-1,24
 1106.66 -15 1106.66 -15 824.11 -15 c 128,-1,25
 541.56 -15 541.56 -15 366 127.5 c 0,26,27
 289 190 289 190 247.5 265 c 128,-1,28
 206 340 206 340 206 411 c 0,29,30
 206 600 206 600 332 600 c 0,31,32
 414 600 414 600 414 518 c 0,33,34
 414 499.625 414 499.625 403 473.5 c 128,-1,35
 392 447.375 392 447.375 392 403.688 c 128,-1,36
 392 360 392 360 427.5 311.5 c 128,-1,37
 463 263 463 263 522 225.5 c 0,38,39
 651.8 143 651.8 143 818 143 c 0,40,41
 1039.5 143 1039.5 143 1176.25 256.7865 c 128,-1,42
 1313 370.573 1313 370.573 1313 572.271 c 128,-1,43
 1313 773.969 1313 773.969 1177.97 897.4845 c 128,-1,44
 1042.94 1021 1042.94 1021 829.4365 1021 c 128,-1,45
 615.933 1021 615.933 1021 558 942 c 1,46,47
 515.333 878 515.333 878 466.7665 878 c 0,48,49
 373.351840299 878 373.351840299 878 373.351840299 967.13775111 c 0,50,51
 373.351840299 988.220988929 373.351840299 988.220988929 380 1013 c 2,52,-1
 481 1367 l 2,53,54
 492.566487671 1404.27244993 492.566487671 1404.27244993 492.566487671 1436.02761325 c 1,0,-1
EndSplineSet
EndChar

StartChar: zero
Encoding: 48 48 41
Width: 1531
Flags: W
LayerCount: 2
Fore
SplineSet
1183 764 m 0,0,1
 1183 1419 1183 1419 766 1419 c 0,2,3
 470.902 1419 470.902 1419 380.5 1066 c 0,4,5
 349 943 349 943 349 769.5 c 0,6,7
 349 440.684210526 349 440.684210526 464.419 290.842105263 c 128,-1,8
 579.838 141 579.838 141 759.5935 141 c 128,-1,9
 939.349 141 939.349 141 1052.5 288 c 0,10,11
 1183 457.538 1183 457.538 1183 764 c 0,0,1
316.797029703 190.8175 m 128,-1,13
 166 396.635 166 396.635 166 764 c 0,14,15
 166 1367.56 166 1367.56 515.5 1526 c 0,16,17
 628 1577 628 1577 769.5 1577 c 0,18,19
 1051.10837438 1577 1051.10837438 1577 1208.05418719 1368.765 c 128,-1,20
 1365 1160.53 1365 1160.53 1365 781.2395 c 128,-1,21
 1365 401.949 1365 401.949 1201.125 193.4745 c 128,-1,22
 1037.25 -15 1037.25 -15 752.422029703 -15 c 128,-1,12
 467.594059406 -15 467.594059406 -15 316.797029703 190.8175 c 128,-1,13
EndSplineSet
EndChar

StartChar: seven
Encoding: 55 55 42
Width: 1362
Flags: W
LayerCount: 2
Fore
SplineSet
148.695 1167 m 0,0,1
 62 1167 62 1167 62 1237.5 c 0,2,3
 62 1271 62 1271 70.5 1289.5 c 128,-1,4
 79 1308 79 1308 110.489 1346.415 c 128,-1,5
 141.978 1384.83 141.978 1384.83 191 1577 c 0,6,7
 206.273 1640 206.273 1640 269 1640 c 0,8,9
 299 1640 299 1640 319.5 1618.5 c 128,-1,10
 340 1597 340 1597 346 1572 c 1,11,12
 530.349670123 1547 530.349670123 1547 882 1547 c 0,13,14
 1003 1547 1003 1547 1079.22 1572 c 128,-1,15
 1155.44 1597 1155.44 1597 1190.22 1597 c 128,-1,16
 1225 1597 1225 1597 1251.5 1576.5 c 128,-1,17
 1278 1556 1278 1556 1278 1510.09 c 128,-1,18
 1278 1464.18 1278 1464.18 1228 1421 c 1,19,20
 1155.52 1360.6 1155.52 1360.6 1002.5 1059.5 c 0,21,22
 777.868 617.483 777.868 617.483 678 254.5 c 0,23,24
 652 160 652 160 642.5 95.5 c 128,-1,25
 633 31 633 31 602.5 8 c 128,-1,26
 572 -15 572 -15 531.740740741 -15 c 0,27,28
 491.481481481 -15 491.481481481 -15 463.740740741 13.8077 c 128,-1,29
 436 42.6154 436 42.6154 436 83.8077 c 0,30,31
 436 225.669037315 436 225.669037315 551.59 498.064 c 1,32,33
 687.643 806.459 687.643 806.459 749.821 930.229 c 1,34,35
 908.12 1233 908.12 1233 998 1385 c 1,36,37
 921.2 1377 921.2 1377 703.4 1377 c 128,-1,38
 485.6 1377 485.6 1377 314 1403 c 1,39,40
 288.208 1292.46 288.208 1292.46 239.299 1229.73 c 128,-1,41
 190.39 1167 190.39 1167 148.695 1167 c 0,0,1
EndSplineSet
EndChar

StartChar: four
Encoding: 52 52 43
Width: 1704
Flags: W
LayerCount: 2
Fore
SplineSet
1157 670 m 1,0,-1
 1422.2 690 l 1,1,2
 1533 690 1533 690 1533 584 c 0,3,4
 1533 534.196 1533 534.196 1449.5 508 c 0,5,6
 1424 500 1424 500 1391.5 500 c 128,-1,7
 1359 500 1359 500 1321.5 502 c 2,8,-1
 1244 506 l 2,9,10
 1222 508 1222 508 1200.5 508.5 c 128,-1,11
 1179 509 1179 509 1156 510 c 1,12,-1
 1156 157 l 1,13,-1
 1298 157 l 2,14,15
 1425 157 1425 157 1425 76 c 0,16,17
 1425 48 1425 48 1400.5 24 c 128,-1,18
 1376 0 1376 0 1318 0 c 1,19,-1
 1072 6 l 1,20,-1
 759 0 l 2,21,22
 715 0 715 0 689 21.5 c 128,-1,23
 663 43 663 43 663 79 c 128,-1,24
 663 115 663 115 693.5 136 c 128,-1,25
 724 157 724 157 776 157 c 2,26,-1
 992 157 l 1,27,-1
 992 511 l 1,28,-1
 528 511 l 1,29,-1
 372 514 l 1,30,-1
 349 514 l 2,31,32
 326 514 326 514 305.5 508 c 0,33,34
 240.583333333 489 240.583333333 489 201.983974359 489 c 128,-1,35
 163.384615385 489 163.384615385 489 140.192307692 516.409 c 128,-1,36
 117 543.818 117 543.818 117 576.909 c 128,-1,37
 117 610 117 610 133.5 635.5 c 128,-1,38
 150 661 150 661 173 686 c 128,-1,39
 196 711 196 711 222 736.5 c 128,-1,40
 248 762 248 762 282 815.5 c 0,41,42
 367.424633936 949.918173988 367.424633936 949.918173988 432.712316968 1160.52408699 c 128,-1,43
 498 1371.13 498 1371.13 498 1552 c 2,44,-1
 498 1609.5 l 2,45,46
 498 1694.14 498 1694.14 537 1741.5 c 0,47,48
 558 1767 558 1767 600 1767 c 0,49,50
 697 1767 697 1767 697 1645 c 0,51,52
 697 1414.72 697 1414.72 594.5 1100.5 c 0,53,54
 532.958 911.839 532.958 911.839 473.479 810.419 c 128,-1,55
 414 709 414 709 375 668 c 1,56,-1
 993 668 l 1,57,-1
 993 742 l 2,58,59
 993 968 993 968 987 1088 c 128,-1,60
 981 1208 981 1208 981 1257.82142857 c 128,-1,61
 981 1307.64285714 981 1307.64285714 1011.26 1336.82142857 c 128,-1,62
 1041.52 1366 1041.52 1366 1080.26 1366 c 128,-1,63
 1119 1366 1119 1366 1146.5 1340 c 128,-1,64
 1174 1314 1174 1314 1174 1261.5 c 128,-1,65
 1174 1209 1174 1209 1165.5 1070.16666667 c 128,-1,66
 1157 931.333333333 1157 931.333333333 1157 735 c 2,67,-1
 1157 670 l 1,0,-1
EndSplineSet
EndChar

StartChar: eight
Encoding: 56 56 44
Width: 1531
Flags: W
LayerCount: 2
Fore
SplineSet
1189 468 m 0,0,1
 1189 710 1189 710 755 806 c 0,2,3
 751 806 751 806 747 808 c 1,4,5
 550.126 798.625 550.126 798.625 445.563 703.4725 c 0,6,7
 341 608.32 341 608.32 341 476.441 c 0,8,9
 341 344.562 341 344.562 460.731 247.281 c 0,10,11
 580.462 150 580.462 150 764.7905 150 c 0,12,13
 949.119 150 949.119 150 1069.0595 239.1595 c 0,14,15
 1189 328.319 1189 328.319 1189 468 c 0,0,1
786 966 m 1,16,17
 969.54 987.062 969.54 987.062 1024 1112 c 0,18,19
 1041 1151 1041 1151 1041 1198 c 0,20,21
 1041 1297 1041 1297 967.5 1354 c 128,-1,22
 894 1411 894 1411 759.632 1411 c 0,23,24
 625.264 1411 625.264 1411 561.132 1356.175 c 0,25,26
 497 1301.35 497 1301.35 497 1219 c 0,27,28
 497 1101.75 497 1101.75 654.5 1016.5 c 0,29,30
 709 987 709 987 786 966 c 1,16,17
1012 898 m 1,31,32
 1376 756.04 1376 756.04 1376 476 c 0,33,34
 1376 276.069 1376 276.069 1206.035 130.5345 c 0,35,36
 1036.07 -15 1036.07 -15 746.3695 -15 c 0,37,38
 456.669 -15 456.669 -15 305.3345 130.0725 c 0,39,40
 154 275.145 154 275.145 154 476 c 0,41,42
 154 619.2 154 619.2 248.1425 738.447 c 0,43,44
 342.285 857.694 342.285 857.694 498 905 c 1,45,46
 310 1021.29 310 1021.29 310 1208 c 0,47,48
 310 1357.33 310 1357.33 412 1456.5 c 0,49,50
 533.886 1575 533.886 1575 767.488 1575 c 0,51,52
 1001.09 1575 1001.09 1575 1114.545 1473.81 c 0,53,54
 1228 1372.62 1228 1372.62 1228 1215.065 c 0,55,56
 1228 1057.51 1228 1057.51 1094 951 c 0,57,58
 1055 920 1055 920 1012 898 c 1,31,32
EndSplineSet
EndChar

StartChar: m
Encoding: 109 109 45
Width: 2040
Flags: W
LayerCount: 2
Fore
SplineSet
559 0 m 1,0,-1
 364 6 l 1,1,-1
 263 3 l 1,2,3
 224 0 224 0 174 0 c 0,4,5
 78 0 78 0 78 74 c 0,6,7
 78 110 78 110 108 130 c 128,-1,8
 138 150 138 150 191 150 c 2,9,-1
 279 150 l 1,10,-1
 279 802 l 2,11,12
 279 862 279 862 255 862 c 0,13,14
 240 862 240 862 216.4545 855 c 128,-1,15
 192.909 848 192.909 848 159.955 848 c 128,-1,16
 127 848 127 848 102.5 869 c 128,-1,17
 78 890 78 890 78 926.5 c 0,18,19
 78 1002.72 78 1002.72 187 1013 c 0,20,21
 253.379 1019.03 253.379 1019.03 295.1245 1031.015 c 128,-1,22
 336.87 1043 336.87 1043 364 1043 c 0,23,24
 455 1043 455 1043 455 947 c 2,25,-1
 455 834 l 1,26,27
 508.331 923.52 508.331 923.52 601.5885 979.26 c 128,-1,28
 694.846 1035 694.846 1035 785 1035 c 0,29,30
 1055.67 1035 1055.67 1035 1127 821 c 1,31,32
 1177.42 916.03 1177.42 916.03 1274.085 975.515 c 128,-1,33
 1370.75 1035 1370.75 1035 1468.38 1035 c 0,34,35
 1652.38297872 1035 1652.38297872 1035 1741.69148936 939.6025 c 128,-1,36
 1831 844.205 1831 844.205 1831 683 c 2,37,-1
 1831 145 l 1,38,-1
 1898 144 l 1,39,40
 2024 144 2024 144 2024 65 c 0,41,42
 2024 37 2024 37 2000 15.5 c 128,-1,43
 1976 -6 1976 -6 1937 -6 c 0,44,45
 1840 -6 1840 -6 1807 0 c 128,-1,46
 1774 6 1774 6 1740 6 c 128,-1,47
 1706 6 1706 6 1684.5 5 c 2,48,-1
 1640 3 l 1,49,50
 1604 0 1604 0 1548 0 c 0,51,52
 1451 0 1451 0 1451 74 c 0,53,54
 1451 110 1451 110 1481.5 130 c 128,-1,55
 1512 150 1512 150 1563 150 c 1,56,-1
 1658 148 l 1,57,-1
 1658 618 l 2,58,59
 1658 875 1658 875 1459 875 c 0,60,61
 1368.17 875 1368.17 875 1273.69 784.8635 c 128,-1,62
 1179.21 694.727 1179.21 694.727 1147 564 c 1,63,-1
 1147 150 l 1,64,-1
 1214 150 l 2,65,66
 1340 150 1340 150 1340 71 c 0,67,68
 1340 43 1340 43 1316 21.5 c 128,-1,69
 1292 0 1292 0 1253 0 c 1,70,-1
 1062.88 6 l 1,71,72
 1021 6 1021 6 1000 5 c 2,73,-1
 956 3 l 2,74,75
 908 0 908 0 865.5 0 c 128,-1,76
 823 0 823 0 795.5 19 c 128,-1,77
 768 38 768 38 768 74 c 128,-1,78
 768 110 768 110 800 130 c 128,-1,79
 832 150 832 150 885 150 c 2,80,-1
 974 150 l 1,81,-1
 974 618 l 2,82,83
 974 875 974 875 772 875 c 0,84,85
 680.253 875 680.253 875 583.7695 785.021 c 128,-1,86
 487.286 695.042 487.286 695.042 455 564 c 1,87,-1
 455 150 l 1,88,-1
 520 150 l 2,89,90
 646 150 646 150 646 71 c 0,91,92
 646 43 646 43 622 21.5 c 128,-1,93
 598 0 598 0 559 0 c 1,0,-1
EndSplineSet
EndChar

StartChar: p
Encoding: 112 112 46
Width: 1194
Flags: W
LayerCount: 2
Fore
SplineSet
669 879 m 0,0,1
 487.582 879 487.582 879 377 723 c 1,2,-1
 377 240 l 1,3,4
 477.66 143 477.66 143 635.8155 143 c 128,-1,5
 793.971 143 793.971 143 887.4855 252.638 c 128,-1,6
 981 362.276 981 362.276 981 508 c 0,7,8
 981 789.474 981 789.474 795 858 c 0,9,10
 738 879 738 879 669 879 c 0,0,1
377 903 m 1,11,12
 493.852459016 1035 493.852459016 1035 691.200039032 1035 c 0,13,14
 888.547619048 1035 888.547619048 1035 1021.77380952 904.872 c 128,-1,15
 1155 774.744 1155 774.744 1155 534.2995 c 128,-1,16
 1155 293.855 1155 293.855 1008.0275 139.4275 c 128,-1,17
 861.055 -15 861.055 -15 628 -15 c 0,18,19
 526.518 -15 526.518 -15 430.5 27.5 c 0,20,21
 400 41 400 41 377 59 c 1,22,-1
 377 -140 l 2,23,24
 377 -288.667 377 -288.667 404.5 -334.5 c 0,25,26
 415 -352 415 -352 437 -366 c 0,27,28
 480 -393.364 480 -393.364 480 -433.182 c 0,29,30
 480 -523 480 -523 380 -523 c 0,31,32
 258 -523 258 -523 217.5 -355 c 0,33,34
 204 -299 204 -299 204 -224 c 2,35,-1
 204 794 l 2,36,37
 204 832 204 832 197 842 c 128,-1,38
 190 852 190 852 177 852 c 1,39,-1
 92 840 l 1,40,41
 52 840 52 840 27 860.5 c 128,-1,42
 2 881 2 881 2 918 c 0,43,44
 2 993.519 2 993.519 111 1004 c 0,45,46
 171.69 1009.52 171.69 1009.52 202.845 1017.76 c 2,47,-1
 252 1030.5 l 2,48,49
 270 1035 270 1035 305.5 1035 c 128,-1,50
 341 1035 341 1035 359 1008 c 128,-1,51
 377 981 377 981 377 939 c 2,52,-1
 377 903 l 1,11,12
EndSplineSet
EndChar

StartChar: b
Encoding: 98 98 47
Width: 1194
Flags: W
LayerCount: 2
Fore
SplineSet
354 219 m 1,0,1
 450.9 143 450.9 143 589.9125 143 c 0,2,3
 728.925 143 728.925 143 830.4625 242.4 c 0,4,5
 932 341.8 932 341.8 932 510.621 c 0,6,7
 932 679.442 932 679.442 843.4575 776.221 c 0,8,9
 754.915 873 754.915 873 605.957 873 c 128,-1,10
 457 873 457 873 357 757 c 1,11,-1
 357 281 l 2,12,13
 357 247 357 247 354 219 c 1,0,1
311 67 m 1,14,15
 264.143 -15 264.143 -15 172.571 -15 c 128,-1,16
 81 -15 81 -15 81 70 c 0,17,18
 81 112.462 81 112.462 121.339 139.2555 c 0,19,20
 161.678 166.049 161.678 166.049 172.839 212.409 c 0,21,22
 184 258.769 184 258.769 184 395 c 2,23,-1
 184 1353 l 2,24,25
 184 1392 184 1392 177 1402 c 128,-1,26
 170 1412 170 1412 157 1412 c 1,27,-1
 72 1400 l 1,28,29
 32 1400 32 1400 7 1420 c 128,-1,30
 -18 1440 -18 1440 -18 1476.5 c 0,31,32
 -18 1552.41 -18 1552.41 90 1563 c 0,33,34
 162.08 1569.36 162.08 1569.36 200.5205 1581.68 c 0,35,36
 238.961 1594 238.961 1594 279.981 1594 c 0,37,38
 357 1594 357 1594 357 1498 c 2,39,-1
 357 933 l 1,40,41
 465.375 1035 465.375 1035 622 1035 c 0,42,43
 829.558 1035 829.558 1035 968.779 900.974 c 0,44,45
 1108 766.948 1108 766.948 1108 527.974 c 0,46,47
 1108 289 1108 289 956 137 c 0,48,49
 804 -15 804 -15 569 -15 c 0,50,51
 458.033 -15 458.033 -15 364.5 31 c 0,52,53
 334 46 334 46 311 67 c 1,14,15
EndSplineSet
EndChar

StartChar: q
Encoding: 113 113 48
Width: 1194
Flags: W
LayerCount: 2
Fore
SplineSet
841 807 m 1,0,1
 747.053 877 747.053 877 606.5215 877 c 0,2,3
 465.99 877 465.99 877 364.495 770.0485 c 0,4,5
 263 663.097 263 663.097 263 521 c 0,6,7
 263 337.558 263 337.558 352 240.279 c 0,8,9
 441 143 441 143 590.2 143 c 128,-1,10
 739.4 143 739.4 143 838 259 c 1,11,-1
 838 737 l 2,12,13
 838 774 838 774 841 807 c 1,0,1
838 85 m 1,14,15
 729.489 -15 729.489 -15 573 -15 c 0,16,17
 367.508 -15 367.508 -15 227.754 123.703 c 0,18,19
 88 262.406 88 262.406 88 495.703 c 0,20,21
 88 729 88 729 241 882 c 0,22,23
 394 1035 394 1035 626 1035 c 0,24,25
 736.032 1035 736.032 1035 829.5 987.5 c 0,26,27
 860 972 860 972 883 952 c 1,28,29
 930.429 1035 930.429 1035 1022.21 1035 c 128,-1,30
 1114 1035 1114 1035 1114 948 c 0,31,32
 1114 905.731 1114 905.731 1073.5 878.679 c 0,33,34
 1033 851.627 1033 851.627 1022 805.929 c 0,35,36
 1011 760.231 1011 760.231 1011 624 c 2,37,-1
 1011 -281 l 2,38,39
 1011 -341 1011 -341 1037 -341 c 0,40,41
 1051 -341 1051 -341 1076 -334.5 c 128,-1,42
 1101 -328 1101 -328 1132.5 -328 c 128,-1,43
 1164 -328 1164 -328 1188.5 -349 c 128,-1,44
 1213 -370 1213 -370 1213 -406 c 0,45,46
 1213 -481.615 1213 -481.615 1105 -492 c 0,47,48
 1040.055 -497.73 1040.055 -497.73 997.5715 -510.365 c 0,49,50
 955.088 -523 955.088 -523 914.552 -523 c 0,51,52
 838 -523 838 -523 838 -426 c 2,53,-1
 838 85 l 1,14,15
EndSplineSet
EndChar

StartChar: l
Encoding: 108 108 49
Width: 682
Flags: W
LayerCount: 2
Fore
SplineSet
600 214 m 0,0,1
 665 214 665 214 665 138 c 0,2,3
 665 80.7576 665 80.7576 591.5115 32.8788 c 0,4,5
 518.023 -15 518.023 -15 419 -15 c 0,6,7
 251.593 -15 251.593 -15 196 143 c 0,8,9
 177 197 177 197 177 271 c 2,10,-1
 177 1353 l 2,11,12
 177 1392 177 1392 170.5 1402 c 128,-1,13
 164 1412 164 1412 152 1412 c 1,14,-1
 65 1400 l 1,15,16
 26 1400 26 1400 0.5 1420 c 128,-1,17
 -25 1440 -25 1440 -25 1476.5 c 0,18,19
 -25 1552.41 -25 1552.41 83 1563 c 0,20,21
 153 1569 153 1569 192.706 1581.5 c 0,22,23
 232.412 1594 232.412 1594 273.206 1594 c 0,24,25
 351 1594 351 1594 351 1498 c 2,26,-1
 351 385 l 2,27,28
 351 245 351 245 365 206.5 c 128,-1,29
 379 168 379 168 396 156 c 128,-1,30
 413 144 413 144 448.375 144 c 0,31,32
 483.75 144 483.75 144 512.375 169 c 128,-1,33
 541 194 541 194 557 204 c 128,-1,34
 573 214 573 214 600 214 c 0,0,1
EndSplineSet
EndChar

StartChar: u
Encoding: 117 117 50
Width: 1190
Flags: W
LayerCount: 2
Fore
SplineSet
841 188 m 1,0,1
 741.975823524 -15 741.975823524 -15 509 -15 c 0,2,3
 433 -15 433 -15 367.5 12.5 c 0,4,5
 187 88.2824427481 187 88.2824427481 187 345 c 2,6,-1
 187 794 l 2,7,8
 187 852 187 852 161 852 c 1,9,-1
 87 840 l 1,10,11
 -2 840 -2 840 -2 922 c 0,12,13
 -2 994.769 -2 994.769 94 1004 c 0,14,15
 150.571 1009.14 150.571 1009.14 183.286 1017.57 c 2,16,-1
 234.5 1030.5 l 2,17,18
 253 1035 253 1035 288 1035 c 128,-1,19
 323 1035 323 1035 342 1008 c 128,-1,20
 361 981 361 981 361 939 c 2,21,-1
 361 410 l 2,22,23
 361 209.274 361 209.274 462.5 162 c 0,24,25
 499 145 499 145 549 145 c 0,26,27
 642.930232558 145 642.930232558 145 724.043116279 236.7855 c 128,-1,28
 805.156 328.571 805.156 328.571 838 462 c 1,29,-1
 838 794 l 2,30,31
 838 832 838 832 831 842 c 128,-1,32
 824 852 824 852 811 852 c 1,33,-1
 741 840 l 1,34,35
 652 840 652 840 652 922 c 0,36,37
 652 994.577 652 994.577 750 1004 c 0,38,39
 802.308 1008.62 802.308 1008.62 834.654 1017.31 c 2,40,-1
 885 1030.5 l 2,41,42
 903 1035 903 1035 938.5 1035 c 128,-1,43
 974 1035 974 1035 992.5 1008 c 128,-1,44
 1011 981 1011 981 1011 939 c 2,45,-1
 1011 395 l 2,46,47
 1011 206.714 1011 206.714 1057 164 c 0,48,49
 1071 151 1071 151 1093.5 142 c 0,50,51
 1134 125.8 1134 125.8 1134 78.9 c 0,52,53
 1134 -15 1134 -15 1022.643 -15 c 128,-1,54
 911.286 -15 911.286 -15 863.5 96.5 c 0,55,56
 847 135 847 135 841 188 c 1,0,1
EndSplineSet
EndChar

StartChar: j
Encoding: 106 106 51
Width: 682
Flags: W
LayerCount: 2
Fore
SplineSet
521 -53 m 2,0,1
 521 -506 521 -506 208.5 -506 c 0,2,3
 78.2727272727 -506 78.2727272727 -506 3.13636363636 -437.125 c 128,-1,4
 -72 -368.25 -72 -368.25 -72 -255 c 0,5,6
 -72 -182 -72 -182 -39 -139 c 128,-1,7
 -6 -96 -6 -96 40 -96 c 0,8,9
 132 -96 132 -96 132 -170 c 0,10,11
 132 -198 132 -198 117.5 -222.3865 c 128,-1,12
 103 -246.773 103 -246.773 103 -277.324 c 128,-1,13
 103 -307.875 103 -307.875 129.357 -330.9375 c 128,-1,14
 155.714 -354 155.714 -354 190.357 -354 c 0,15,16
 264.290322581 -354 264.290322581 -354 300.64516129 -294.684 c 128,-1,17
 337 -235.368 337 -235.368 337 -79 c 2,18,-1
 337 802 l 2,19,20
 337 862 337 862 305 862 c 1,21,-1
 190 848 l 1,22,23
 150 848 150 848 125 869 c 128,-1,24
 100 890 100 890 100 926.5 c 128,-1,25
 100 963 100 963 128.5 987 c 128,-1,26
 157 1011 157 1011 233 1014.5 c 128,-1,27
 309 1018 309 1018 343 1025.5 c 128,-1,28
 377 1033 377 1033 395 1038 c 128,-1,29
 413 1043 413 1043 435 1043 c 0,30,31
 521 1043 521 1043 521 947 c 2,32,-1
 521 -53 l 2,0,1
525 1376.5 m 0,33,34
 525 1280.97777778 525 1280.97777778 443.5 1252 c 0,35,36
 421 1244 421 1244 378.919354839 1244 c 0,37,38
 336.838709677 1244 336.838709677 1244 300.919354839 1276.75 c 128,-1,39
 265 1309.5 265 1309.5 265 1362.75 c 128,-1,40
 265 1416 265 1416 302 1451 c 128,-1,41
 339 1486 339 1486 401 1486 c 128,-1,42
 463 1486 463 1486 494 1452.5 c 128,-1,43
 525 1419 525 1419 525 1376.5 c 0,33,34
EndSplineSet
EndChar

StartChar: t
Encoding: 116 116 52
Width: 852
Flags: W
LayerCount: 2
Fore
SplineSet
439 1013 m 1,0,-1
 692 1020 l 1,1,2
 751 1020 751 1020 775 998.5 c 128,-1,3
 799 977 799 977 799 945.865384615 c 128,-1,4
 799 914.730769231 799 914.730769231 772.0215 890.865384615 c 128,-1,5
 745.043 867 745.043 867 690.7715 867 c 128,-1,6
 636.5 867 636.5 867 539 872 c 1,7,-1
 439 875 l 1,8,-1
 439 395 l 2,9,10
 439 245.552 439 245.552 460.5 204.776 c 128,-1,11
 482 164 482 164 503.5 154 c 128,-1,12
 525 144 525 144 568.857 144 c 128,-1,13
 612.714 144 612.714 144 651.857 179.5 c 128,-1,14
 691 215 691 215 709.5 226.5 c 128,-1,15
 728 238 728 238 757.5 238 c 128,-1,16
 787 238 787 238 807.5 215 c 128,-1,17
 828 192 828 192 828 161 c 0,18,19
 828 96.4520547945 828 96.4520547945 746.64 40.7260273973 c 128,-1,20
 665.28 -15 665.28 -15 574.64 -15 c 0,21,22
 418.151898734 -15 418.151898734 -15 341.575949367 66.75 c 128,-1,23
 265 148.5 265 148.5 265 281 c 2,24,-1
 265 868 l 1,25,26
 230 865 230 865 188.5 865 c 128,-1,27
 147 865 147 865 120.5 887 c 128,-1,28
 94 909 94 909 94 944.5 c 128,-1,29
 94 980 94 980 120.5 1000 c 128,-1,30
 147 1020 147 1020 185.5 1020 c 128,-1,31
 224 1020 224 1020 264 1018 c 1,32,33
 263 1051 263 1051 261.5 1096 c 2,34,-1
 258.5 1184.5 l 2,35,36
 257 1228 257 1228 255.5 1262 c 128,-1,37
 254 1296 254 1296 254 1307 c 0,38,39
 254 1358 254 1358 282 1383 c 128,-1,40
 310 1408 310 1408 351.916666667 1408 c 0,41,42
 448 1408 448 1408 448 1297 c 1,43,-1
 439 1013 l 1,0,-1
EndSplineSet
EndChar

StartChar: f
Encoding: 102 102 53
Width: 856
Flags: W
LayerCount: 2
Fore
SplineSet
629 0 m 1,0,-1
 412 6 l 2,1,2
 376 6 376 6 355 5 c 2,3,-1
 311 3 l 2,4,5
 260 0 260 0 219 0 c 128,-1,6
 178 0 178 0 151.5 19 c 128,-1,7
 125 38 125 38 125 74 c 128,-1,8
 125 110 125 110 156 130 c 128,-1,9
 187 150 187 150 238 150 c 2,10,-1
 317 150 l 1,11,-1
 317 888 l 1,12,13
 311 887 311 887 305.5 887 c 2,14,-1
 295 887 l 1,15,16
 244 884 244 884 203 884 c 128,-1,17
 162 884 162 884 135.5 903.5 c 128,-1,18
 109 923 109 923 109 958.5 c 128,-1,19
 109 994 109 994 135.5 1014 c 128,-1,20
 162 1034 162 1034 203 1034 c 128,-1,21
 244 1034 244 1034 295 1031 c 1,22,-1
 317 1029 l 1,23,-1
 317 1241 l 2,24,25
 317 1403.4 317 1403.4 399.8695 1498.7 c 128,-1,26
 482.739 1594 482.739 1594 611.37 1594 c 128,-1,27
 740 1594 740 1594 806 1541.5 c 128,-1,28
 872 1489 872 1489 872 1395 c 0,29,30
 872 1351 872 1351 850 1325.5 c 128,-1,31
 828 1300 828 1300 793 1300 c 0,32,33
 727.735 1300 727.735 1300 709.4455 1367 c 128,-1,34
 691.156 1434 691.156 1434 609 1434 c 0,35,36
 491 1434 491 1434 491 1205 c 2,37,-1
 491 1028 l 1,38,-1
 532 1031 l 1,39,40
 605 1034 605 1034 670.5 1034 c 128,-1,41
 736 1034 736 1034 760 1012.5 c 128,-1,42
 784 991 784 991 784 969.5 c 0,43,44
 784 884 784 884 665 884 c 128,-1,45
 546 884 546 884 491 889 c 1,46,-1
 491 150 l 1,47,-1
 611 150 l 2,48,49
 736 150 736 150 736 71 c 0,50,51
 736 43 736 43 711.5 21.5 c 128,-1,52
 687 0 687 0 629 0 c 1,0,-1
EndSplineSet
EndChar

StartChar: g
Encoding: 103 103 54
Width: 1194
Flags: W
LayerCount: 2
Fore
SplineSet
858 259 m 1,0,-1
 858 769.5 l 2,1,2
 858 785 858 785 860 799 c 1,3,4
 757 881 757 881 618.1 881 c 128,-1,5
 479.2 881 479.2 881 379.1 772.1955 c 128,-1,6
 279 663.391 279 663.391 279 521 c 0,7,8
 279 337.409 279 337.409 370 240.2045 c 128,-1,9
 461 143 461 143 609.233 143 c 128,-1,10
 757.467 143 757.467 143 858 259 c 1,0,-1
903 952 m 1,11,12
 950.429 1035 950.429 1035 1042.21 1035 c 128,-1,13
 1134 1035 1134 1035 1134 948 c 0,14,15
 1134 905.731 1134 905.731 1093.5 879.3655 c 128,-1,16
 1053 853 1053 853 1042.5 805.75 c 128,-1,17
 1032 758.5 1032 758.5 1032 624 c 2,18,-1
 1032 9 l 2,19,20
 1032 -237.61 1032 -237.61 909.1655 -382.305 c 128,-1,21
 786.331 -527 786.331 -527 581 -527 c 0,22,23
 413.471 -527 413.471 -527 315.2355 -453.059 c 128,-1,24
 217 -379.118 217 -379.118 217 -270 c 0,25,26
 217 -192.205 217 -192.205 258.81 -138.6025 c 128,-1,27
 300.62 -85 300.62 -85 367 -85 c 0,28,29
 405.5 -85 405.5 -85 438.25 -111.2 c 128,-1,30
 471 -137.4 471 -137.4 471 -167.2 c 128,-1,31
 471 -197 471 -197 461 -210 c 128,-1,32
 451 -223 451 -223 439.5 -234 c 128,-1,33
 428 -245 428 -245 414 -254.5 c 128,-1,34
 400 -264 400 -264 400 -280 c 0,35,36
 400 -317 400 -317 443.5 -341 c 128,-1,37
 487 -365 487 -365 566 -365 c 0,38,39
 708.813186813 -365 708.813186813 -365 783.406593407 -270.722 c 128,-1,40
 858 -176.444 858 -176.444 858 -4 c 2,41,-1
 858 85 l 1,42,43
 747.362 -15 747.362 -15 592 -15 c 0,44,45
 386.015 -15 386.015 -15 245.0075 123.903 c 128,-1,46
 104 262.806 104 262.806 104 500.1795 c 128,-1,47
 104 737.553 104 737.553 253.7855 886.2765 c 128,-1,48
 403.571 1035 403.571 1035 635 1035 c 0,49,50
 753 1035 753 1035 847.5 988.5 c 0,51,52
 879 973 879 973 903 952 c 1,11,12
EndSplineSet
EndChar

StartChar: r
Encoding: 114 114 55
Width: 1190
Flags: W
LayerCount: 2
Fore
SplineSet
683 0 m 1,0,-1
 423.5 6 l 1,1,2
 379 6 379 6 358 5 c 2,3,-1
 314 3 l 2,4,5
 264 0 264 0 226 0 c 0,6,7
 129 0 129 0 129 74 c 0,8,9
 129 110 129 110 159.5 130 c 128,-1,10
 190 150 190 150 241 150 c 2,11,-1
 331 150 l 1,12,-1
 331 802 l 2,13,14
 331 862 331 862 305 862 c 0,15,16
 293.25 862 293.25 862 267.6365 855 c 128,-1,17
 242.023 848 242.023 848 210.511 848 c 128,-1,18
 179 848 179 848 154 869 c 128,-1,19
 129 890 129 890 129 926.5 c 0,20,21
 129 1002.41 129 1002.41 237 1013 c 0,22,23
 303.879 1018.9 303.879 1018.9 346.632 1030.95 c 128,-1,24
 389.385 1043 389.385 1043 428.693 1043 c 0,25,26
 504 1043 504 1043 504 947 c 2,27,-1
 504 793 l 1,28,29
 582.164 964.961 582.164 964.961 760 1018 c 0,30,31
 817 1035 817 1035 873.5 1035 c 0,32,33
 981.416666667 1035 981.416666667 1035 1046.70833333 984.4515 c 128,-1,34
 1112 933.903 1112 933.903 1112 839.952 c 128,-1,35
 1112 746 1112 746 1079 696 c 128,-1,36
 1046 646 1046 646 991 646 c 0,37,38
 905 646 905 646 905 724 c 0,39,40
 905 740 905 740 908.5 750.5 c 2,41,-1
 916 772 l 2,42,43
 925 796.75 925 796.75 925 822.875 c 0,44,45
 925 880 925 880 827.804761905 880 c 0,46,47
 730.60952381 880 730.60952381 880 638.260761905 769.811 c 128,-1,48
 545.912 659.622 545.912 659.622 504 480 c 1,49,-1
 504 150 l 1,50,-1
 666 150 l 2,51,52
 794 150 794 150 794 71 c 0,53,54
 794 43 794 43 769.5 21.5 c 128,-1,55
 745 0 745 0 683 0 c 1,0,-1
EndSplineSet
EndChar

StartChar: v
Encoding: 118 118 56
Width: 1190
Flags: W
LayerCount: 2
Fore
SplineSet
1090 1020 m 1,0,1
 1171 1020 1171 1020 1171 963 c 0,2,3
 1171 924.333 1171 924.333 1135.5 895.167 c 0,4,5
 1065.17752426 837.389657746 1065.17752426 837.389657746 1029.55876213 789.304328873 c 128,-1,6
 993.94 741.219 993.94 741.219 954 645 c 0,7,8
 731.881370001 109.365782635 731.881370001 109.365782635 702.5 30.5 c 0,9,10
 693 5 693 5 665 -15.5 c 128,-1,11
 637 -36 637 -36 594 -36 c 0,12,13
 512.378 -36 512.378 -36 484 39 c 0,14,15
 470 77 470 77 442 144.5 c 2,16,-1
 234 645 l 2,17,18
 183.802 765.116 183.802 765.116 155.901 800.558 c 128,-1,19
 128 836 128 836 108.5 851 c 2,20,-1
 63 886 l 1,21,22
 16 923.6 16 923.6 16 963 c 0,23,24
 16 1020 16 1020 98 1020 c 1,25,-1
 210 1013 l 1,26,-1
 383 1020 l 1,27,28
 431 1020 431 1020 456 1001 c 128,-1,29
 481 982 481 982 481 954 c 0,30,31
 481 869 481 869 325 869 c 2,32,-1
 317 869 l 1,33,-1
 599 191 l 1,34,-1
 878 869 l 1,35,-1
 863 869 l 2,36,37
 708 869 708 869 708 954 c 0,38,39
 708 982 708 982 732.5 1001 c 128,-1,40
 757 1020 757 1020 805 1020 c 1,41,-1
 985 1013 l 1,42,-1
 1090 1020 l 1,0,1
EndSplineSet
EndChar

StartChar: c
Encoding: 99 99 57
Width: 1194
Flags: W
LayerCount: 2
Fore
SplineSet
967.333 325 m 0,0,1
 1056 325 1056 325 1056 246.5 c 0,2,3
 1056 210 1056 210 1027.5 164 c 128,-1,4
 999 118 999 118 944 78 c 0,5,6
 816.125 -15 816.125 -15 616.3465 -15 c 128,-1,7
 416.568 -15 416.568 -15 274.5 118 c 0,8,9
 204 184 204 184 161.5 282.5 c 128,-1,10
 119 381 119 381 119 499.5 c 0,11,12
 119 729 119 729 272 882 c 128,-1,13
 425 1035 425 1035 656 1035 c 0,14,15
 718.556 1035 718.556 1035 783 1015 c 1,16,17
 781 1020 781 1020 781 1024 c 2,18,-1
 781 1046.5 l 2,19,20
 781 1065 781 1065 799.5 1086.5 c 128,-1,21
 818 1108 818 1108 847 1108 c 0,22,23
 898.667 1108 898.667 1108 916 1056 c 1,24,-1
 928.5 1021 l 2,25,26
 951.562 958.103 951.562 958.103 1012.281 884.373 c 128,-1,27
 1073 810.643 1073 810.643 1073 773.821 c 128,-1,28
 1073 737 1073 737 1054 716 c 128,-1,29
 1035 695 1035 695 1003.94444444 695 c 0,30,31
 944.84601897 695 944.84601897 695 881 778 c 1,32,33
 800 877 800 877 644 877 c 128,-1,34
 488.152 877 488.152 877 390.576 770.846 c 128,-1,35
 293 664.692 293 664.692 293 501.5565 c 128,-1,36
 293 338.421 293 338.421 391.75 240.7105 c 128,-1,37
 490.5 143 490.5 143 636 143 c 0,38,39
 833.214 143 833.214 143 888 261 c 1,40,41
 922.667 325 922.667 325 967.333 325 c 0,0,1
EndSplineSet
EndChar

StartChar: w
Encoding: 119 119 58
Width: 1868
Flags: W
LayerCount: 2
Fore
SplineSet
1761 1014 m 1,0,1
 1842 1014 1842 1014 1842 949 c 0,2,3
 1842 916.8 1842 916.8 1791.455 876.3645 c 128,-1,4
 1740.91 835.929 1740.91 835.929 1709.025 791.1165 c 128,-1,5
 1677.14 746.304 1677.14 746.304 1634.57 637.652 c 2,6,-1
 1422.5 85 l 2,7,8
 1417 70 1417 70 1414 60 c 0,9,10
 1383.28 -36 1383.28 -36 1292 -36 c 0,11,12
 1252 -36 1252 -36 1219 -10.5 c 128,-1,13
 1186 15 1186 15 1173 62 c 0,14,15
 1171 70 1171 70 1166.5 83.5 c 128,-1,16
 1162 97 1162 97 1153.5 125 c 128,-1,17
 1145 153 1145 153 1129.5 199 c 2,18,-1
 945 748 l 1,19,20
 760.415 211.415 760.415 211.415 748.707 179.707 c 2,21,-1
 698 39 l 1,22,23
 669.324 -36 669.324 -36 584.878 -36 c 128,-1,24
 500.432 -36 500.432 -36 468 39 c 0,25,26
 463 51 463 51 456.5 68.5 c 2,27,-1
 238 645 l 1,28,29
 174.273 800.493 174.273 800.493 120.5 847 c 0,30,31
 102 863 102 863 67.5 889.594 c 128,-1,32
 33 916.188 33 916.188 33 957 c 0,33,34
 33 1014 33 1014 116 1014 c 1,35,-1
 220 1007 l 1,36,37
 248 1007 248 1007 270.5 1008.5 c 2,38,-1
 307 1011 l 2,39,40
 321 1012 321 1012 345.8 1016 c 128,-1,41
 370.6 1020 370.6 1020 421.8 1020 c 128,-1,42
 473 1020 473 1020 497 1001 c 128,-1,43
 521 982 521 982 521 954 c 0,44,45
 521 863 521 863 366 863 c 2,46,-1
 335 863 l 1,47,-1
 587 199 l 1,48,-1
 808 862 l 2,49,50
 854.31 999 854.31 999 946 999 c 0,51,52
 996.387 999 996.387 999 1023.7985 970.674 c 128,-1,53
 1051.21 942.348 1051.21 942.348 1077 863 c 2,54,-1
 1293 199 l 1,55,-1
 1548 863 l 1,56,-1
 1511 863 l 2,57,58
 1356 863 1356 863 1356 954 c 0,59,60
 1356 982 1356 982 1380.5 1001 c 128,-1,61
 1405 1020 1405 1020 1453 1020 c 1,62,-1
 1656 1007 l 1,63,-1
 1761 1014 l 1,0,1
EndSplineSet
EndChar

StartChar: y
Encoding: 121 121 59
Width: 1194
Flags: W
LayerCount: 2
Fore
SplineSet
1091 1020 m 1,0,1
 1173 1020 1173 1020 1173 952 c 0,2,3
 1173 918.458 1173 918.458 1151.5 903.229 c 128,-1,4
 1130 888 1130 888 1111.5 878 c 0,5,6
 1037.11349066 837.79107603 1037.11349066 837.79107603 960 645 c 1,7,-1
 646 -125 l 1,8,9
 553.212 -359.078 553.212 -359.078 477.9775 -449.539 c 128,-1,10
 402.743 -540 402.743 -540 283.287 -540 c 128,-1,11
 163.831 -540 163.831 -540 97.4155 -476.7985 c 128,-1,12
 31 -413.597 31 -413.597 31 -337.798 c 128,-1,13
 31 -262 31 -262 62.5 -221 c 128,-1,14
 94 -180 94 -180 141.5 -180 c 0,15,16
 232 -180 232 -180 232 -261 c 0,17,18
 232 -280.75 232 -280.75 223.5 -300.7605 c 128,-1,19
 215 -320.771 215 -320.771 215 -338.385 c 128,-1,20
 215 -356 215 -356 235.5 -370.5 c 128,-1,21
 256 -385 256 -385 284.5 -385 c 0,22,23
 341 -385 341 -385 397.6605 -300.0095 c 128,-1,24
 454.321 -215.019 454.321 -215.019 539 14 c 1,25,-1
 250 645 l 1,26,27
 171.491 813.506 171.491 813.506 84 876 c 0,28,29
 27 916.714 27 916.714 27 956 c 0,30,31
 27 1020 27 1020 110 1020 c 1,32,-1
 218 1013 l 1,33,-1
 397 1026 l 1,34,35
 445 1026 445 1026 470 1007 c 128,-1,36
 495 988 495 988 495 960 c 0,37,38
 495 869 495 869 340 869 c 1,39,-1
 626 209 l 1,40,-1
 871 869 l 1,41,-1
 856 869 l 2,42,43
 700 869 700 869 700 960 c 0,44,45
 700 988 700 988 724 1007 c 128,-1,46
 748 1026 748 1026 796 1026 c 1,47,-1
 977 1013 l 1,48,-1
 1091 1020 l 1,0,1
EndSplineSet
EndChar

StartChar: k
Encoding: 107 107 60
Width: 1364
Flags: W
LayerCount: 2
Fore
SplineSet
538 0 m 1,0,-1
 355 6 l 1,1,-1
 254 3 l 1,2,3
 215 0 215 0 175 0 c 0,4,5
 79 0 79 0 79 74 c 0,6,7
 79 110 79 110 109 130 c 128,-1,8
 139 150 139 150 192 150 c 2,9,-1
 278 150 l 1,10,-1
 278 1352 l 2,11,12
 278 1412 278 1412 254 1412 c 0,13,14
 246 1412 246 1412 235.5 1409.5 c 2,15,-1
 212 1404 l 2,16,17
 187 1399 187 1399 166 1399 c 0,18,19
 78 1399 78 1399 78 1480 c 0,20,21
 78 1512 78 1512 106 1534.5 c 128,-1,22
 134 1557 134 1557 192.4155 1562.565 c 128,-1,23
 250.831 1568.13 250.831 1568.13 278.915 1576.06 c 2,24,-1
 324.5 1589 l 2,25,26
 342 1594 342 1594 363 1594 c 0,27,28
 454 1594 454 1594 454 1497 c 2,29,-1
 454 548 l 1,30,31
 663.383 616.704 663.383 616.704 826.5 770.5 c 0,32,33
 879 820 879 820 915 874 c 1,34,-1
 801 868 l 1,35,36
 753 868 753 868 725.5 889 c 128,-1,37
 698 910 698 910 698 944.5 c 128,-1,38
 698 979 698 979 727 1000 c 128,-1,39
 756 1021 756 1021 810 1021 c 1,40,-1
 1016 1013 l 1,41,-1
 1191 1025 l 1,42,43
 1244 1025 1244 1025 1267.5 1003 c 128,-1,44
 1291 981 1291 981 1291 949 c 0,45,46
 1291 873 1291 873 1186 873 c 2,47,-1
 1153.5 873 l 2,48,49
 1135 873 1135 873 1110 875 c 1,50,51
 1021.6 733.567 1021.6 733.567 843 598 c 1,52,53
 952.649 473.122 952.649 473.122 1026.82 351.061 c 1,54,-1
 1146 150 l 1,55,-1
 1214 150 l 2,56,57
 1340 150 1340 150 1340 71 c 0,58,59
 1340 43 1340 43 1316 21.5 c 128,-1,60
 1292 0 1292 0 1253 0 c 1,61,-1
 1060 6 l 1,62,-1
 959 3 l 1,63,64
 920 0 920 0 870 0 c 0,65,66
 774 0 774 0 774 74 c 0,67,68
 774 110 774 110 804 130 c 128,-1,69
 834 150 834 150 887 150 c 2,70,-1
 955 150 l 1,71,72
 828.798 372.958 828.798 372.958 710 509 c 1,73,74
 577.362 430.246 577.362 430.246 454 395 c 1,75,-1
 454 150 l 1,76,-1
 499 150 l 2,77,78
 625 150 625 150 625 71 c 0,79,80
 625 43 625 43 601 21.5 c 128,-1,81
 577 0 577 0 538 0 c 1,0,-1
EndSplineSet
EndChar

StartChar: z
Encoding: 122 122 61
Width: 1192
Flags: W
LayerCount: 2
Fore
SplineSet
190 718 m 0,0,1
 124 718 124 718 124 793.5 c 0,2,3
 124 830 124 830 159 880 c 0,4,5
 226.158415842 975.940594059 226.158415842 975.940594059 244.5 1022.5 c 2,6,-1
 258 1058 l 2,7,8
 279.111 1115 279.111 1115 331 1115 c 0,9,10
 360 1115 360 1115 380 1096.5 c 128,-1,11
 400 1078 400 1078 400 1058 c 128,-1,12
 400 1038 400 1038 396 1026 c 1,13,14
 459.636 1006 459.636 1006 513.818 1006 c 2,15,-1
 581 1006 l 1,16,-1
 902 1019 l 1,17,18
 1040 1019 1040 1019 1040 929 c 0,19,20
 1040 860 1040 860 935 755 c 1,21,-1
 351 163 l 1,22,23
 556.333 152 556.333 152 676.667 152 c 128,-1,24
 797 152 797 152 817 156.5 c 0,25,26
 885.000834217 171.800187699 885.000834217 171.800187699 927 239 c 1,27,28
 1003.36 365.388 1003.36 365.388 1044 377 c 0,29,30
 1058 381 1058 381 1079.16666667 381 c 128,-1,31
 1100.33333333 381 1100.33333333 381 1121.66666667 360.7895 c 128,-1,32
 1143 340.579 1143 340.579 1143 304.3095 c 128,-1,33
 1143 268.04 1143 268.04 1107 225.52 c 0,34,35
 1035.04 140.531 1035.04 140.531 977 -25 c 1,36,37
 949 -101 949 -101 886 -101 c 0,38,39
 854 -101 854 -101 836.5 -81 c 128,-1,40
 819 -61 819 -61 819 -41 c 128,-1,41
 819 -21 819 -21 822 -9 c 1,42,43
 687 16 687 16 585 16 c 0,44,45
 421 16 421 16 349 10 c 2,46,-1
 299 6 l 1,47,48
 206.190288312 -0.0570248891693 206.190288312 -0.0570248891693 177.095144156 -0.0285124445847 c 128,-1,49
 148 0 148 0 123 24.5 c 128,-1,50
 98 49 98 49 98 82.2916666667 c 128,-1,51
 98 115.583333333 98 115.583333333 119.6305 148.930166667 c 128,-1,52
 141.261 182.277 141.261 182.277 205 250 c 1,53,-1
 813 870 l 1,54,55
 649 878 649 878 517.3125 878 c 128,-1,56
 385.625 878 385.625 878 351.8975 864.163 c 128,-1,57
 318.17 850.326 318.17 850.326 293.085 803.163 c 128,-1,58
 268 756 268 756 245 737 c 128,-1,59
 222 718 222 718 190 718 c 0,0,1
EndSplineSet
EndChar

StartChar: x
Encoding: 120 120 62
Width: 1360
Flags: W
LayerCount: 2
Fore
SplineSet
1196.5 0 m 1,0,-1
 1080.5 6 l 1,1,2
 1057 6 1057 6 1033.5 4.5 c 2,3,-1
 981 1 l 2,4,5
 951 -1 951 -1 922 -3.5 c 128,-1,6
 893 -6 893 -6 846 -6 c 128,-1,7
 799 -6 799 -6 770.5 17 c 128,-1,8
 742 40 742 40 742 73.6 c 0,9,10
 742 148 742 148 901 148 c 2,11,-1
 921 148 l 1,12,-1
 658 421 l 1,13,-1
 426 148 l 1,14,-1
 462 148 l 2,15,16
 620 148 620 148 620 70 c 0,17,18
 620 34 620 34 582.5 14 c 128,-1,19
 545 -6 545 -6 500.5 -6 c 128,-1,20
 456 -6 456 -6 429 -4 c 2,21,-1
 377 0 l 2,22,23
 351 2 351 2 327.5 4 c 128,-1,24
 304 6 304 6 281 6 c 1,25,-1
 172 0 l 1,26,27
 128 0 128 0 106 20.5 c 128,-1,28
 84 41 84 41 84 69 c 0,29,30
 84 124.9 84 124.9 168 148 c 1,31,32
 235.181 168.994 235.181 168.994 305 248 c 1,33,-1
 560 522 l 1,34,-1
 330 761 l 1,35,36
 257.435 833.565 257.435 833.565 195.5 857 c 0,37,38
 177 864 177 864 149.5 874 c 0,39,40
 88 896.364 88 896.364 88 950 c 0,41,42
 88 978 88 978 110 999 c 128,-1,43
 132 1020 132 1020 174 1020 c 1,44,-1
 295 1014 l 1,45,-1
 470 1024 l 1,46,47
 512 1024 512 1024 536.5 1003.5 c 128,-1,48
 561 983 561 983 561 952 c 0,49,50
 561 870.899 561 870.899 430 869 c 1,51,-1
 689 613 l 1,52,-1
 936 869 l 1,53,-1
 920 869 l 2,54,55
 782 869 782 869 782 951 c 0,56,57
 782 982 782 982 806.5 1002.5 c 128,-1,58
 831 1023 831 1023 873 1023 c 1,59,-1
 1049 1014 l 1,60,-1
 1178.25 1020 l 1,61,62
 1210 1020 1210 1020 1233 999 c 128,-1,63
 1256 978 1256 978 1256 948.5 c 0,64,65
 1256 897.382 1256 897.382 1187 871 c 1,66,67
 1091.12 839.038 1091.12 839.038 995 739 c 1,68,-1
 786 517 l 1,69,-1
 1058 248 l 2,70,71
 1124.92 181.077 1124.92 181.077 1152.96 166.538 c 128,-1,72
 1181 152 1181 152 1210.5 143.5 c 0,73,74
 1278 124.051 1278 124.051 1278 70 c 0,75,76
 1278 41 1278 41 1253.5 20.5 c 128,-1,77
 1229 0 1229 0 1196.5 0 c 1,0,-1
EndSplineSet
EndChar

StartChar: exclam
Encoding: 33 33 63
Width: 512
Flags: W
LayerCount: 2
Fore
SplineSet
154 23 m 128,-1,1
 116 61 116 61 116 122 c 128,-1,2
 116 183 116 183 152 222 c 128,-1,3
 188 261 188 261 254 261 c 128,-1,4
 320 261 320 261 357.5 223.5 c 128,-1,5
 395 186 395 186 395 125.27027027 c 128,-1,6
 395 64.5405405405 395 64.5405405405 356.2765 24.7702702703 c 128,-1,7
 317.553 -15 317.553 -15 254.776 -15 c 128,-1,0
 192 -15 192 -15 154 23 c 128,-1,1
360 1491.4 m 1,8,-1
 349 1236 l 1,9,-1
 349 887 l 2,10,11
 349 775 349 775 355 715 c 128,-1,12
 361 655 361 655 361 631.5 c 128,-1,13
 361 608 361 608 351 587.5 c 128,-1,14
 341 567 341 567 326 553.5 c 0,15,16
 296.555555556 527 296.555555556 527 252.677777778 527 c 128,-1,17
 208.8 527 208.8 527 179.4 558.5 c 128,-1,18
 150 590 150 590 150 622 c 128,-1,19
 150 654 150 654 152.5 674.5 c 2,20,-1
 158 718 l 2,21,22
 167 784 167 784 167 887 c 2,23,-1
 167 1236 l 2,24,25
 167 1344.5 167 1344.5 158.5 1391.905 c 128,-1,26
 150 1439.31 150 1439.31 150 1479.15 c 128,-1,27
 150 1519 150 1519 178 1547 c 128,-1,28
 206 1575 206 1575 252.25 1575 c 128,-1,29
 298.5 1575 298.5 1575 329.25 1550.4 c 128,-1,30
 360 1525.8 360 1525.8 360 1491.4 c 1,8,-1
EndSplineSet
EndChar

StartChar: bullet
Encoding: 8226 8226 65
Width: 512
Flags: W
LayerCount: 2
Fore
SplineSet
119.541666667 528.44 m 128,-1,1
 67 578.88 67 578.88 67 659 c 0,2,3
 67 784.071 67 784.071 177 826.5 c 0,4,5
 212 840 212 840 255 840 c 0,6,7
 339.340425532 840 339.340425532 840 392.170212766 790.34 c 128,-1,8
 445 740.68 445 740.68 445 662.05 c 128,-1,9
 445 583.42 445 583.42 391.2145 530.71 c 128,-1,10
 337.429 478 337.429 478 254.756166667 478 c 128,-1,0
 172.083333333 478 172.083333333 478 119.541666667 528.44 c 128,-1,1
EndSplineSet
EndChar

StartChar: period
Encoding: 46 46 66
Width: 512
Flags: W
LayerCount: 2
Fore
SplineSet
150.5 24.5 m 128,-1,1
 111 64 111 64 111 128 c 128,-1,2
 111 192 111 192 148.5 232 c 128,-1,3
 186 272 186 272 254.5 272 c 128,-1,4
 323 272 323 272 362 233 c 128,-1,5
 401 194 401 194 401 130.7763 c 0,6,7
 401 67.5526 401 67.5526 360.782 26.2763 c 0,8,9
 320.564 -15 320.564 -15 255.282 -15 c 128,-1,0
 190 -15 190 -15 150.5 24.5 c 128,-1,1
EndSplineSet
EndChar

StartChar: comma
Encoding: 44 44 68
Width: 512
Flags: W
LayerCount: 2
Fore
SplineSet
155 -318 m 0,0,1
 96 -318 96 -318 96 -267 c 0,2,3
 96 -231.217 96 -231.217 144.5 -197.609 c 0,4,5
 242 -130.045 242 -130.045 242 -73 c 0,6,7
 242 -39.4286 242 -39.4286 209.5 -4.71429 c 0,8,9
 144 65.2484 144 65.2484 144 122.624 c 128,-1,10
 144 180 144 180 179.5 214 c 128,-1,11
 215 248 215 248 275.708333333 248 c 0,12,13
 336.416666667 248 336.416666667 248 375.708333333 197.027 c 128,-1,14
 415 146.054 415 146.054 415 81.527 c 0,15,16
 415 -33.7692 415 -33.7692 354.371 -151.2321 c 128,-1,17
 293.742 -268.695 293.742 -268.695 199.5 -307.5 c 0,18,19
 174 -318 174 -318 155 -318 c 0,0,1
EndSplineSet
EndChar

StartChar: question
Encoding: 63 63 71
Width: 851
Flags: W
LayerCount: 2
Fore
SplineSet
333 23 m 128,-1,1
 295 61 295 61 295 122 c 128,-1,2
 295 183 295 183 331 222 c 128,-1,3
 367 261 367 261 433 261 c 128,-1,4
 499 261 499 261 536.5 223.5 c 128,-1,5
 574 186 574 186 574 125.27027027 c 128,-1,6
 574 64.5405405405 574 64.5405405405 535.2765 24.7702702703 c 128,-1,7
 496.553 -15 496.553 -15 433.776 -15 c 128,-1,0
 371 -15 371 -15 333 23 c 128,-1,1
261.388888889 573.066 m 128,-1,9
 189 640.132 189 640.132 189 737.3375 c 128,-1,10
 189 834.543 189 834.543 221.5 891.772 c 0,11,12
 277.082 989.645 277.082 989.645 365.041 1067.82 c 128,-1,13
 453 1146 453 1146 484.5 1200.5 c 128,-1,14
 516 1255 516 1255 516 1311 c 128,-1,15
 516 1367 516 1367 491 1395.5 c 128,-1,16
 466 1424 466 1424 424.147058824 1424 c 128,-1,17
 382.294117647 1424 382.294117647 1424 359.617058824 1407.935 c 128,-1,18
 336.94 1391.87 336.94 1391.87 317.97 1351.94 c 128,-1,19
 299 1312 299 1312 280 1295.5 c 128,-1,20
 261 1279 261 1279 226.5 1279 c 128,-1,21
 192 1279 192 1279 171 1303 c 128,-1,22
 150 1327 150 1327 150 1367 c 0,23,24
 150 1451.20547945 150 1451.20547945 229.272 1513.10273973 c 128,-1,25
 308.544 1575 308.544 1575 426.859 1575 c 128,-1,26
 545.174 1575 545.174 1575 623.087 1502.35 c 128,-1,27
 701 1429.7 701 1429.7 701 1318 c 0,28,29
 701 1166.42319301 701 1166.42319301 549.331 1023.9 c 0,30,31
 427.433676114 909.36827923 427.433676114 909.36827923 398.216838057 858.017639615 c 128,-1,32
 369 806.667 369 806.667 369 757.833 c 0,33,34
 369 655 369 655 454 655 c 0,35,36
 506.957 655 506.957 655 534.978 692.5 c 128,-1,37
 563 730 563 730 579 742 c 128,-1,38
 595 754 595 754 620.5 754 c 128,-1,39
 646 754 646 754 664.5 736.5 c 128,-1,40
 683 719 683 719 683 683.5 c 0,41,42
 683 615.115942029 683 615.115942029 606.173469388 560.557971014 c 128,-1,43
 529.346938776 506 529.346938776 506 431.562358277 506 c 128,-1,8
 333.777777778 506 333.777777778 506 261.388888889 573.066 c 128,-1,9
EndSplineSet
EndChar

StartChar: quoteleft
Encoding: 8216 8216 73
Width: 512
Flags: W
LayerCount: 2
Fore
SplineSet
340 1594 m 0,0,1
 399 1594 399 1594 399 1543 c 0,2,3
 399 1507.22 399 1507.22 356.5 1477.61 c 0,4,5
 277 1422.22 277 1422.22 277 1365 c 0,6,7
 277 1331.43 277 1331.43 323.5 1281.76 c 0,8,9
 370 1232.09 370 1232.09 370 1177.255 c 128,-1,10
 370 1122.42 370 1122.42 336.7165 1090.21 c 128,-1,11
 303.433 1058 303.433 1058 247.575195652 1058 c 0,12,13
 191.717391304 1058 191.717391304 1058 152.358695652 1106.93 c 128,-1,14
 113 1155.86 113 1155.86 113 1220.43 c 0,15,16
 113 1393.78 113 1393.78 206 1507 c 0,17,18
 250.143 1560.74 250.143 1560.74 286.571 1577.37 c 128,-1,19
 323 1594 323 1594 340 1594 c 0,0,1
EndSplineSet
EndChar

StartChar: quotesingle
Encoding: 39 39 79
Width: 512
Flags: W
LayerCount: 2
Fore
SplineSet
256 971 m 0,0,1
 187 971 187 971 187 1072 c 0,2,3
 187 1215.67 187 1215.67 175 1292.83 c 2,4,-1
 157.5 1403 l 2,5,6
 152 1436 152 1436 152 1480.5 c 128,-1,7
 152 1525 152 1525 181 1559.5 c 128,-1,8
 210 1594 210 1594 259 1594 c 128,-1,9
 308 1594 308 1594 333.5 1558.5 c 128,-1,10
 359 1523 359 1523 359 1471.75 c 0,11,12
 359 1420.5 359 1420.5 342.5 1326.375 c 0,13,14
 326 1232.25 326 1232.25 326 1072 c 0,15,16
 326 1022 326 1022 305.5 996.5 c 128,-1,17
 285 971 285 971 256 971 c 0,0,1
EndSplineSet
EndChar

StartChar: guilsinglleft
Encoding: 8249 8249 81
Width: 849
Flags: W
LayerCount: 2
Fore
SplineSet
203.346193408 489.951860437 m 128,-1,1
 194 504.75 194 504.75 194 527.875 c 0,2,3
 194 569.667 194 569.667 261 630.333 c 0,4,5
 375.475 733.987 375.475 733.987 472 870 c 0,6,7
 507.54 918.867 507.54 918.867 530.77 928.934 c 128,-1,8
 554 939 554 939 581.5 939 c 128,-1,9
 609 939 609 939 632 920 c 128,-1,10
 655 901 655 901 655 866.53125 c 0,11,12
 655 832.0625 655 832.0625 641.4325 807.47125 c 128,-1,13
 627.865 782.88 627.865 782.88 575.297301051 736.23536422 c 0,14,15
 522.729602101 689.590728439 522.729602101 689.590728439 440.223 588.558 c 1,16,-1
 393 529 l 1,17,18
 412 503 412 503 474.665 429.178 c 128,-1,19
 537.33 355.356 537.33 355.356 582.542834396 315.336925158 c 0,20,21
 627.755668791 275.317850316 627.755668791 275.317850316 641.377834396 250.627925158 c 128,-1,22
 655 225.938 655 225.938 655 191.469 c 128,-1,23
 655 157 655 157 632 138 c 128,-1,24
 609 119 609 119 574.3 119 c 0,25,26
 539.6 119 539.6 119 517.4925 137.423 c 128,-1,27
 495.385 155.846 495.385 155.846 437.088 237.169 c 128,-1,28
 378.791 318.493 378.791 318.493 295.741693408 396.823360437 c 128,-1,0
 212.692386817 475.153720874 212.692386817 475.153720874 203.346193408 489.951860437 c 128,-1,1
EndSplineSet
EndChar

StartChar: hyphen
Encoding: 45 45 85
Width: 1022
Flags: W
LayerCount: 2
Fore
SplineSet
704 571 m 1,0,-1
 511 577 l 1,1,2
 475 577 475 577 453.5 576 c 2,3,-1
 410 574 l 2,4,5
 359 571 359 571 318 571 c 128,-1,6
 277 571 277 571 250.5 597 c 128,-1,7
 224 623 224 623 224 659.28 c 0,8,9
 224 695.56 224 695.56 250.7915 721.28 c 128,-1,10
 277.583 747 277.583 747 321 747 c 1,11,-1
 511 740 l 1,12,-1
 701 747 l 1,13,14
 767.375 747 767.375 747 791 693 c 0,15,16
 798 677 798 677 798 650 c 128,-1,17
 798 623 798 623 771.5 597 c 128,-1,18
 745 571 745 571 704 571 c 1,0,-1
EndSplineSet
EndChar

StartChar: endash
Encoding: 8211 8211 86
Width: 1025
Flags: W
LayerCount: 2
Fore
SplineSet
477 577 m 1,0,-1
 221 571 l 1,1,2
 159 571 159 571 129.5 597 c 128,-1,3
 100 623 100 623 100 658.5 c 128,-1,4
 100 694 100 694 131.5 720.5 c 128,-1,5
 163 747 163 747 234 747 c 1,6,-1
 477 740 l 1,7,-1
 736 747 l 1,8,9
 796 747 796 747 825 720.5 c 128,-1,10
 854 694 854 694 854 658.5 c 128,-1,11
 854 623 854 623 826.5 597 c 128,-1,12
 799 571 799 571 761 571 c 128,-1,13
 723 571 723 571 692 572 c 2,14,-1
 629 574 l 2,15,16
 555 577 555 577 477 577 c 1,0,-1
EndSplineSet
EndChar

StartChar: emdash
Encoding: 8212 8212 87
Width: 1196
Flags: W
LayerCount: 2
Fore
SplineSet
1000 571 m 1,0,-1
 577 582 l 1,1,-1
 157 571 l 1,2,3
 0 571 0 571 0 659 c 128,-1,4
 0 747 0 747 170 747 c 1,5,-1
 538.833 735 l 1,6,7
 706 735 706 735 805 741 c 128,-1,8
 904 747 904 747 1004 747 c 0,9,10
 1154 747 1154 747 1154 659 c 128,-1,11
 1154 571 1154 571 1000 571 c 1,0,-1
EndSplineSet
EndChar

StartChar: bar
Encoding: 124 124 88
Width: 849
Flags: W
LayerCount: 2
Fore
SplineSet
424 -360 m 128,-1,1
 324 -360 324 -360 324 -200 c 0,2,3
 324 -136.333 324 -136.333 328.5 -70.1667 c 0,4,5
 334.678592474 20.6815388083 334.678592474 20.6815388083 336.5 277.5 c 2,6,-1
 337.5 414 l 2,7,8
 338 480 338 480 338 534 c 2,9,-1
 338 693 l 2,10,11
 338 745 338 745 337.5 810.5 c 128,-1,12
 337 876 337 876 335.846240363 1044.448907 c 128,-1,13
 334.692480726 1212.89781401 334.692480726 1212.89781401 330.368 1274.35 c 2,14,-1
 326.5 1328.5 l 2,15,16
 325 1349 325 1349 324 1371 c 2,17,-1
 322 1414 l 2,18,19
 321 1435 321 1435 321 1481.05 c 128,-1,20
 321 1527.1 321 1527.1 351.409 1560.55 c 128,-1,21
 381.818 1594 381.818 1594 424 1594 c 0,22,23
 492.667 1594 492.667 1594 517.5 1519.5 c 0,24,25
 527 1491 527 1491 527 1461 c 128,-1,26
 527 1431 527 1431 526 1410 c 128,-1,27
 525 1389 525 1389 523.5 1367.5 c 128,-1,28
 522 1346 522 1346 521 1326.5 c 128,-1,29
 520 1307 520 1307 519 1287.5 c 128,-1,30
 518 1268 518 1268 517 1216.5 c 0,31,32
 511 907.5 511 907.5 511 698 c 2,33,-1
 511 540.5 l 2,34,35
 511 488 511 488 511.5 422 c 2,36,-1
 512.5 284.5 l 2,37,38
 514.36 18.5221 514.36 18.5221 519.18 -65.67595 c 128,-1,39
 524 -149.874 524 -149.874 524 -212 c 0,40,0
 524 -360 524 -360 424 -360 c 128,-1,1
EndSplineSet
EndChar

StartChar: brokenbar
Encoding: 166 166 89
Width: 849
Flags: W
LayerCount: 2
Fore
SplineSet
527 339.8335 m 1,0,-1
 511 67 l 1,1,-1
 524 -212 l 1,2,3
 524 -360 524 -360 424 -360 c 128,-1,4
 324 -360 324 -360 324 -200 c 0,5,6
 324 -166 324 -166 327 -132 c 2,7,-1
 333 -61 l 2,8,9
 338 6.5 338 6.5 338 54.25 c 1,10,-1
 321 345.333 l 1,11,12
 321 427.1 321 427.1 351.409 460.55 c 128,-1,13
 381.818 494 381.818 494 424 494 c 0,14,15
 527 494 527 494 527 339.8335 c 1,0,-1
524 888 m 1,16,17
 524 740 524 740 424 740 c 128,-1,18
 324 740 324 740 324 900 c 0,19,20
 324 934 324 934 327 973 c 2,21,-1
 333 1049 l 2,22,23
 338 1116.5 338 1116.5 338 1167 c 1,24,-1
 321 1452 l 1,25,26
 321 1563.31 321 1563.31 388 1587.5 c 0,27,28
 406 1594 406 1594 424 1594 c 0,29,30
 492.667 1594 492.667 1594 517.5 1519.5 c 0,31,32
 527 1491 527 1491 527 1448 c 1,33,-1
 511 1167 l 1,34,-1
 524 888 l 1,16,17
EndSplineSet
EndChar

StartChar: slash
Encoding: 47 47 90
Width: 1024
Flags: W
LayerCount: 2
Fore
SplineSet
241.5 -182.5 m 0,0,1
 233 -163 233 -163 233 -131.6765 c 0,2,3
 233 -100.353 233 -100.353 272 -4 c 1,4,-1
 311.5 97 l 2,5,6
 334 156 334 156 357 244 c 2,7,-1
 609 1203 l 2,8,9
 633.267 1292.6 633.267 1292.6 652.633 1408.3 c 128,-1,10
 672 1524 672 1524 703.5 1559 c 128,-1,11
 735 1594 735 1594 778.5 1594 c 128,-1,12
 822 1594 822 1594 846.5 1568.5 c 128,-1,13
 871 1543 871 1543 871 1504 c 0,14,15
 871 1465 871 1465 852.5 1409 c 2,16,-1
 818 1301 l 2,17,18
 802 1249 802 1249 781 1171 c 2,19,-1
 493 103 l 2,20,21
 485 72 485 72 478.5 40.5 c 2,22,-1
 465.5 -24.5 l 2,23,24
 459 -58 459 -58 448.5 -116.5 c 0,25,26
 427.051 -236 427.051 -236 320 -236 c 0,27,28
 264.821 -236 264.821 -236 241.5 -182.5 c 0,0,1
EndSplineSet
EndChar

StartChar: underscore
Encoding: 95 95 91
Width: 849
Flags: W
LayerCount: 2
Fore
SplineSet
860 0 m 1,0,-1
 860 -165 l 1,1,-1
 -10 -165 l 1,2,-1
 -10 0 l 1,3,-1
 860 0 l 1,0,-1
EndSplineSet
EndChar

StartChar: plus
Encoding: 43 43 92
Width: 1192
Flags: W
LayerCount: 2
Fore
SplineSet
591 133 m 128,-1,1
 508 133 508 133 508 260 c 2,2,-1
 508 529 l 1,3,-1
 271 529 l 2,4,5
 144 529 144 529 144 610 c 0,6,7
 144 645 144 645 174.5 668 c 128,-1,8
 205 691 205 691 271 691 c 2,9,-1
 508 691 l 1,10,-1
 508 963 l 2,11,12
 508 1026 508 1026 532 1056.5 c 128,-1,13
 556 1087 556 1087 591 1087 c 0,14,15
 674 1087 674 1087 674 963 c 2,16,-1
 674 691 l 1,17,-1
 924 691 l 2,18,19
 981 691 981 691 1014.5 670 c 128,-1,20
 1048 649 1048 649 1048 610 c 0,21,22
 1048 529 1048 529 924 529 c 2,23,-1
 674 529 l 1,24,-1
 674 260 l 2,25,0
 674 133 674 133 591 133 c 128,-1,1
EndSplineSet
EndChar

StartChar: equal
Encoding: 61 61 93
Width: 1022
Flags: W
LayerCount: 2
Fore
SplineSet
963 427 m 0,0,1
 963 346 963 346 839 346 c 2,2,-1
 186 346 l 2,3,4
 59 346 59 346 59 427 c 0,5,6
 59 462 59 462 89.5 485 c 128,-1,7
 120 508 120 508 186 508 c 2,8,-1
 839 508 l 2,9,10
 896 508 896 508 929.5 487 c 128,-1,11
 963 466 963 466 963 427 c 0,0,1
963 786 m 0,12,13
 963 705 963 705 839 705 c 2,14,-1
 186 705 l 2,15,16
 59 705 59 705 59 786 c 0,17,18
 59 821 59 821 89.5 844 c 128,-1,19
 120 867 120 867 186 867 c 2,20,-1
 839 867 l 2,21,22
 896 867 896 867 929.5 846 c 128,-1,23
 963 825 963 825 963 786 c 0,12,13
EndSplineSet
EndChar

StartChar: divide
Encoding: 247 247 94
Width: 1022
Flags: W
LayerCount: 2
Fore
SplineSet
409 145 m 128,-1,1
 371 183 371 183 371 244 c 128,-1,2
 371 305 371 305 407 344 c 128,-1,3
 443 383 443 383 509 383 c 128,-1,4
 575 383 575 383 612.5 345.5 c 128,-1,5
 650 308 650 308 650 247.27027027 c 0,6,7
 650 186.540540541 650 186.540540541 611.2765 146.77027027 c 128,-1,8
 572.553 107 572.553 107 509.776 107 c 128,-1,0
 447 107 447 107 409 145 c 128,-1,1
958 610 m 0,9,10
 958 529 958 529 834 529 c 2,11,-1
 191 529 l 2,12,13
 64 529 64 529 64 610 c 0,14,15
 64 645 64 645 94.5 668 c 128,-1,16
 125 691 125 691 191 691 c 2,17,-1
 834 691 l 2,18,19
 891 691 891 691 924.5 670 c 128,-1,20
 958 649 958 649 958 610 c 0,9,10
650 1001.5 m 0,21,22
 650 847 650 847 494.5 847 c 0,23,24
 447 847 447 847 409 885 c 128,-1,25
 371 923 371 923 371 984 c 128,-1,26
 371 1045 371 1045 407 1084 c 128,-1,27
 443 1123 443 1123 509 1123 c 128,-1,28
 575 1123 575 1123 612.5 1085.5 c 128,-1,29
 650 1048 650 1048 650 1001.5 c 0,21,22
EndSplineSet
EndChar

StartChar: multiply
Encoding: 215 215 95
Width: 1022
Flags: W
LayerCount: 2
Fore
SplineSet
793.5 970 m 0,0,1
 872 970 872 970 872 895 c 0,2,3
 872 858 872 858 819 805 c 2,4,-1
 624 610 l 1,5,-1
 818 417 l 2,6,7
 871 364 871 364 871 326 c 128,-1,8
 871 288 871 288 850.5 267.5 c 128,-1,9
 830 247 830 247 795 247 c 128,-1,10
 760 247 760 247 704 303 c 2,11,-1
 510 496 l 1,12,-1
 316 303 l 1,13,14
 262 247 262 247 226 247 c 128,-1,15
 190 247 190 247 169.5 267.5 c 128,-1,16
 149 288 149 288 149 326 c 128,-1,17
 149 364 149 364 202 417 c 2,18,-1
 396 611 l 1,19,-1
 202 805 l 2,20,21
 149 858 149 858 149 895 c 0,22,23
 149 970 149 970 227.5 970 c 0,24,25
 265 970 265 970 316 919 c 2,26,-1
 510 725 l 1,27,-1
 705 919 l 2,28,29
 756 970 756 970 793.5 970 c 0,0,1
EndSplineSet
EndChar

StartChar: logicalnot
Encoding: 172 172 96
Width: 1192
Flags: W
LayerCount: 2
Fore
SplineSet
970 211 m 128,-1,1
 887 211 887 211 887 338 c 2,2,-1
 887 529 l 1,3,-1
 265 529 l 2,4,5
 198 529 198 529 168 548.5 c 128,-1,6
 138 568 138 568 138 610 c 0,7,8
 138 691 138 691 265 691 c 2,9,-1
 918 691 l 2,10,11
 990 691 990 691 1021 663.5 c 128,-1,12
 1052 636 1052 636 1052 576 c 2,13,-1
 1053 338 l 2,14,0
 1053 211 1053 211 970 211 c 128,-1,1
EndSplineSet
EndChar

StartChar: plusminus
Encoding: 177 177 97
Width: 1104
Flags: W
LayerCount: 2
Fore
SplineSet
227 172 m 2,0,1
 100 172 100 172 100 253 c 0,2,3
 100 288 100 288 130.5 311 c 128,-1,4
 161 334 161 334 227 334 c 2,5,-1
 880 334 l 2,6,7
 937 334 937 334 970.5 313 c 128,-1,8
 1004 292 1004 292 1004 253 c 0,9,10
 1004 172 1004 172 880 172 c 2,11,-1
 227 172 l 2,0,1
630 565 m 2,12,13
 630 438 630 438 547 438 c 128,-1,14
 464 438 464 438 464 565 c 2,15,-1
 464 774 l 1,16,-1
 227 774 l 2,17,18
 100 774 100 774 100 855 c 0,19,20
 100 890 100 890 130.5 913 c 128,-1,21
 161 936 161 936 227 936 c 2,22,-1
 464 936 l 1,23,-1
 464 1178 l 2,24,25
 464 1241 464 1241 488 1271.5 c 128,-1,26
 512 1302 512 1302 547 1302 c 0,27,28
 630 1302 630 1302 630 1178 c 2,29,-1
 630 936 l 1,30,-1
 880 936 l 2,31,32
 937 936 937 936 970.5 915 c 128,-1,33
 1004 894 1004 894 1004 855 c 0,34,35
 1004 774 1004 774 880 774 c 2,36,-1
 630 774 l 1,37,-1
 630 565 l 2,12,13
EndSplineSet
EndChar

StartChar: less
Encoding: 60 60 98
Width: 1022
Flags: W
LayerCount: 2
Fore
SplineSet
208.5 527 m 2,0,1
 86 598.129032258 86 598.129032258 86 672 c 0,2,3
 86 723.142857143 86 723.142857143 104.3135 751.920928571 c 128,-1,4
 122.627 780.699 122.627 780.699 204.813 827.849 c 0,5,6
 572.679 1041.15 572.679 1041.15 624.339 1074.57 c 128,-1,7
 676 1108 676 1108 695.5 1131.5 c 0,8,9
 745.702 1192 745.702 1192 790.351 1192 c 128,-1,10
 835 1192 835 1192 859.5 1169.5 c 128,-1,11
 884 1147 884 1147 884 1114.21428571 c 128,-1,12
 884 1081.42857143 884 1081.42857143 857.551 1043.64428571 c 128,-1,13
 831.102 1005.86 831.102 1005.86 719.551 938.43 c 2,14,-1
 536 829 l 1,15,-1
 272 679 l 1,16,-1
 675 446.5 l 1,17,18
 831.102 352.14 831.102 352.14 865.5 303 c 0,19,20
 884 276.571 884 276.571 884 243.786 c 128,-1,21
 884 211 884 211 859.5 188.5 c 128,-1,22
 835 166 835 166 799.5 166 c 0,23,24
 745.70212766 166 745.70212766 166 695.5 226.5 c 0,25,26
 668.61829653 258.895899054 668.61829653 258.895899054 524.5 344.5 c 1,27,-1
 208.5 527 l 2,0,1
EndSplineSet
EndChar

StartChar: degree
Encoding: 176 176 100
Width: 855
Flags: W
LayerCount: 2
Fore
SplineSet
290 1321.46 m 0,0,1
 290 1214.2 290 1214.2 375 1178.5 c 0,2,3
 400 1168 400 1168 445 1168 c 0,4,5
 490 1168 490 1168 528 1206 c 128,-1,6
 566 1244 566 1244 566 1304 c 128,-1,7
 566 1364 566 1364 529 1404 c 128,-1,8
 492 1444 492 1444 428.405405405 1444 c 0,9,10
 364.810810811 1444 364.810810811 1444 327.405405405 1404.455 c 128,-1,11
 290 1364.91 290 1364.91 290 1321.46 c 0,0,1
224.943661972 1110.62 m 128,-1,13
 144 1186.24 144 1186.24 144 1302.185 c 128,-1,14
 144 1418.13 144 1418.13 224.554 1496.565 c 128,-1,15
 305.108 1575 305.108 1575 427.9255 1575 c 128,-1,16
 550.743 1575 550.743 1575 630.8715 1501.195 c 128,-1,17
 711 1427.39 711 1427.39 711 1310.69 c 128,-1,18
 711 1193.99 711 1193.99 626.0615 1114.495 c 128,-1,19
 541.123 1035 541.123 1035 423.505161972 1035 c 128,-1,12
 305.887323944 1035 305.887323944 1035 224.943661972 1110.62 c 128,-1,13
EndSplineSet
EndChar

StartChar: parenleft
Encoding: 40 40 101
Width: 856
Flags: W
LayerCount: 2
Fore
SplineSet
704 -224 m 0,0,1
 596.136 -224 596.136 -224 468 -104 c 1,2,3
 150 189.221 150 189.221 150 675.5005 c 128,-1,4
 150 1161.78 150 1161.78 468 1455 c 1,5,6
 596.136 1575 596.136 1575 704 1575 c 0,7,8
 742 1575 742 1575 765 1554 c 128,-1,9
 788 1533 788 1533 788 1501.23529412 c 0,10,11
 788 1469.47058824 788 1469.47058824 772.4015 1447.45029412 c 128,-1,12
 756.803 1425.43 756.803 1425.43 690.901 1393.21 c 128,-1,13
 625 1361 625 1361 554.5 1294 c 0,14,15
 333 1083.4964539 333 1083.4964539 333 676 c 0,16,17
 333 410.222 333 410.222 434.1205 222.28085 c 128,-1,18
 535.241 34.3397 535.241 34.3397 712 -53 c 0,19,20
 788 -90.1162790698 788 -90.1162790698 788 -150 c 0,21,22
 788 -181 788 -181 765 -202.5 c 128,-1,23
 742 -224 742 -224 704 -224 c 0,0,1
EndSplineSet
EndChar

StartChar: bracketleft
Encoding: 91 91 103
Width: 856
Flags: W
LayerCount: 2
Fore
SplineSet
324 1575 m 1,0,-1
 470 1569 l 1,1,-1
 601 1575 l 1,2,3
 652 1575 652 1575 679.5 1553.5 c 128,-1,4
 707 1532 707 1532 707 1495.24 c 0,5,6
 707 1458.48 707 1458.48 681.2885 1431.74 c 128,-1,7
 655.577 1405 655.577 1405 615.288 1405 c 128,-1,8
 575 1405 575 1405 555.833333333 1407.12962963 c 0,9,10
 536.666666667 1409.25925926 536.666666667 1409.25925926 492 1410.5 c 2,11,-1
 454.5 1411.5 l 2,12,13
 435 1412 435 1412 418 1412 c 2,14,-1
 365 1412 l 1,15,-1
 365 -61 l 1,16,-1
 418 -61 l 2,17,18
 435 -61 435 -61 454.5 -60.5 c 2,19,-1
 492 -59.5 l 2,20,21
 537 -58.25 537 -58.25 556 -56.125 c 128,-1,22
 575 -54 575 -54 599 -54 c 0,23,24
 707 -54 707 -54 707 -136 c 0,25,26
 707 -172 707 -172 679.5 -198 c 128,-1,27
 652 -224 652 -224 601 -224 c 1,28,-1
 470 -218 l 2,29,30
 451 -218 451 -218 435.5 -219 c 2,31,-1
 404 -221 l 1,32,33
 378.5 -224 378.5 -224 316.75 -224 c 128,-1,34
 255 -224 255 -224 217.5 -179.5 c 128,-1,35
 180 -135 180 -135 180 -50.5 c 128,-1,36
 180 34 180 34 183 113 c 128,-1,37
 186 192 186 192 187 230.5 c 128,-1,38
 188 269 188 269 189.5 314 c 128,-1,39
 191 359 191 359 192.5 439.25 c 128,-1,40
 194 519.5 194 519.5 194 636.75 c 128,-1,41
 194 754 194 754 193.5 819 c 128,-1,42
 193 884 193 884 192 938 c 128,-1,43
 191 992 191 992 189.5 1037 c 128,-1,44
 188 1082 188 1082 187 1120.5 c 128,-1,45
 186 1159 186 1159 184.5 1198.5 c 128,-1,46
 183 1238 183 1238 181.5 1296.5 c 128,-1,47
 180 1355 180 1355 180 1420.5 c 128,-1,48
 180 1486 180 1486 217.5 1530.5 c 128,-1,49
 255 1575 255 1575 324 1575 c 1,0,-1
EndSplineSet
EndChar

StartChar: braceleft
Encoding: 123 123 105
Width: 856
Flags: W
LayerCount: 2
Fore
SplineSet
587 -223 m 0,0,1
 291.353 -223 291.353 -223 277 204 c 1,2,3
 267.514 425.977 267.514 425.977 248.257 484.489 c 128,-1,4
 229 543 229 543 212.5 557.5 c 128,-1,5
 196 572 196 572 150 579 c 128,-1,6
 104 586 104 586 77 611 c 128,-1,7
 50 636 50 636 50 676 c 128,-1,8
 50 716 50 716 77 741 c 128,-1,9
 104 766 104 766 150 773 c 128,-1,10
 196 780 196 780 212.5 794.5 c 128,-1,11
 229 809 229 809 248.257 867.5115 c 128,-1,12
 267.514 926.023 267.514 926.023 274.257 1096.51 c 128,-1,13
 281 1267 281 1267 306 1348.5 c 0,14,15
 375.478527607 1575 375.478527607 1575 587 1575 c 0,16,17
 738.15 1575 738.15 1575 775 1508 c 0,18,19
 786 1488 786 1488 786 1457 c 128,-1,20
 786 1426 786 1426 759.5 1403 c 128,-1,21
 733 1380 733 1380 701 1380 c 128,-1,22
 669 1380 669 1380 635.2965 1397.5 c 128,-1,23
 601.593 1415 601.593 1415 572.796 1415 c 128,-1,24
 544 1415 544 1415 522 1399 c 128,-1,25
 500 1383 500 1383 479.882 1316.4 c 128,-1,26
 459.764 1249.8 459.764 1249.8 444 970 c 1,27,28
 429.28 738.687 429.28 738.687 291 676 c 1,29,30
 429.263 611.477 429.263 611.477 444 382 c 1,31,32
 459.628 102.644 459.628 102.644 479.814 35.8221 c 128,-1,33
 500 -31 500 -31 522 -47 c 128,-1,34
 544 -63 544 -63 573.1155 -63 c 128,-1,35
 602.231 -63 602.231 -63 635.764 -45.1663875 c 0,36,37
 669.297 -27.332775 669.297 -27.332775 702.76825 -27.332775 c 128,-1,38
 736.2395 -27.332775 736.2395 -27.332775 761.11975 -49.1663875 c 0,39,40
 786 -71 786 -71 786 -100 c 0,41,42
 786 -159 786 -159 735 -191 c 128,-1,43
 684 -223 684 -223 587 -223 c 0,0,1
EndSplineSet
EndChar

StartChar: germandbls
Encoding: 223 223 107
Width: 1366
Flags: W
LayerCount: 2
Fore
SplineSet
877 237 m 0,0,1
 877 143 877 143 993 143 c 0,2,3
 1056.56666667 143 1056.56666667 143 1095.78333333 206.5945 c 128,-1,4
 1135 270.189 1135 270.189 1135 340.595 c 0,5,6
 1135 468.103448276 1135 468.103448276 1082.765 547.360224138 c 128,-1,7
 1030.53 626.617 1030.53 626.617 882 735 c 0,8,9
 697 869.216 697 869.216 697 969 c 0,10,11
 697 1012.81 697 1012.81 719.559 1048.38 c 128,-1,12
 742.118 1083.95 742.118 1083.95 800.059 1137.48 c 128,-1,13
 858 1191 858 1191 875.5 1221.5 c 128,-1,14
 893 1252 893 1252 893 1286 c 0,15,16
 893 1352.06896552 893 1352.06896552 830.4735 1393.03448276 c 128,-1,17
 767.947 1434 767.947 1434 682 1434 c 0,18,19
 567 1434 567 1434 505.5 1343 c 128,-1,20
 444 1252 444 1252 444 1066 c 2,21,-1
 444 150 l 1,22,-1
 482 150 l 2,23,24
 608 150 608 150 608 71 c 0,25,26
 608 43 608 43 584 21.5 c 128,-1,27
 560 0 560 0 515 0 c 128,-1,28
 470 0 470 0 434 3 c 1,29,-1
 356 6 l 1,30,-1
 255 3 l 1,31,32
 216 0 216 0 166 0 c 0,33,34
 70 0 70 0 70 74 c 0,35,36
 70 110 70 110 100 130 c 128,-1,37
 130 150 130 150 183 150 c 2,38,-1
 270 150 l 1,39,-1
 270 868 l 1,40,41
 240 865 240 865 191 865 c 128,-1,42
 142 865 142 865 115.5 887 c 128,-1,43
 89 909 89 909 89 944.5 c 128,-1,44
 89 980 89 980 115.5 1000 c 128,-1,45
 142 1020 142 1020 184 1020 c 128,-1,46
 226 1020 226 1020 270 1018 c 1,47,-1
 270 1083 l 2,48,49
 270 1307.76 270 1307.76 384.9125 1450.88 c 128,-1,50
 499.825 1594 499.825 1594 680.1535 1594 c 128,-1,51
 860.482 1594 860.482 1594 957.741 1508.37 c 128,-1,52
 1055 1422.74 1055 1422.74 1055 1291.49 c 128,-1,53
 1055 1160.24 1055 1160.24 919 1046 c 0,54,55
 872.857 1008 872.857 1008 869.429 996 c 128,-1,56
 866 984 866 984 866 971.1875 c 0,57,58
 866 942.776318282 866 942.776318282 1022.19474137 836.127470765 c 128,-1,59
 1178.38948274 729.478623248 1178.38948274 729.478623248 1243.19474137 625.599811624 c 128,-1,60
 1308 521.721 1308 521.721 1308 405.86 c 0,61,62
 1308 201.366666667 1308 201.366666667 1213.47 93.1833333333 c 128,-1,63
 1118.94 -15 1118.94 -15 980.4785 -15 c 128,-1,64
 842.017 -15 842.017 -15 771.0085 47.53 c 128,-1,65
 700 110.06 700 110.06 700 189 c 0,66,67
 700 241 700 241 733.5 274.5 c 128,-1,68
 767 308 767 308 805.5 308 c 0,69,70
 877 308 877 308 877 237 c 0,0,1
EndSplineSet
EndChar

StartChar: percent
Encoding: 37 37 108
Width: 1707
Flags: W
LayerCount: 2
Fore
SplineSet
1216.22 141 m 0,0,1
 1300.71428571 141 1300.71428571 141 1342.35714286 185.846 c 128,-1,2
 1384 230.692 1384 230.692 1384 278.846 c 0,3,4
 1384 364.425 1384 364.425 1341.87 409.7125 c 128,-1,5
 1299.74 455 1299.74 455 1230 455 c 128,-1,6
 1160.26 455 1160.26 455 1118.13 409.7125 c 128,-1,7
 1076 364.425 1076 364.425 1076 299.01 c 128,-1,8
 1076 233.595 1076 233.595 1121.22 187.298 c 128,-1,9
 1166.44 141 1166.44 141 1216.22 141 c 0,0,1
1005.585 508.571428571 m 128,-1,11
 1096.17 597 1096.17 597 1231 597 c 128,-1,12
 1365.73 597 1365.73 597 1453.865 515.235 c 128,-1,13
 1542 433.47 1542 433.47 1542 303.643 c 128,-1,14
 1542 173.816 1542 173.816 1447.485 86.9079944304 c 128,-1,15
 1352.97 -1.113915e-05 1352.97 -1.113915e-05 1222.625 -5.569575e-06 c 128,-1,16
 1092.28 0 1092.28 0 1003.64 84.3675 c 128,-1,17
 915 168.735 915 168.735 915 294.438928571 c 128,-1,10
 915 420.142857143 915 420.142857143 1005.585 508.571428571 c 128,-1,11
326 1293.71 m 0,18,19
 326 1171.21052632 326 1171.21052632 421.5 1131 c 0,20,21
 450 1119 450 1119 483 1119 c 0,22,23
 550.714285714 1119 550.714285714 1119 592.357142857 1163.845 c 128,-1,24
 634 1208.69 634 1208.69 634 1256.85 c 0,25,26
 634 1342.425 634 1342.425 591.872 1387.7125 c 128,-1,27
 549.744 1433 549.744 1433 480 1433 c 128,-1,28
 410.256 1433 410.256 1433 368.128 1387.715 c 128,-1,29
 326 1342.43 326 1342.43 326 1293.71 c 0,18,19
253.639240506 1062.365 m 128,-1,31
 165 1146.73 165 1146.73 165 1272.925 c 128,-1,32
 165 1399.12 165 1399.12 255.0855 1487.06 c 128,-1,33
 345.171 1575 345.171 1575 480.449 1575 c 128,-1,34
 615.727 1575 615.727 1575 703.8635 1493.235 c 128,-1,35
 792 1411.47 792 1411.47 792 1281.645 c 128,-1,36
 792 1151.82 792 1151.82 697.4875 1064.91 c 128,-1,37
 602.975 978 602.975 978 472.626740506 978 c 128,-1,30
 342.278481013 978 342.278481013 978 253.639240506 1062.365 c 128,-1,31
264 87 m 0,38,39
 264 151.774795275 264 151.774795275 339.462 232.192 c 0,40,41
 462.258585758 363.059355625 462.258585758 363.059355625 539 480 c 1,42,-1
 1013 1184 l 2,43,44
 1045 1232 1045 1232 1080 1294 c 2,45,-1
 1153 1422 l 2,46,47
 1203.11 1508.18 1203.11 1508.18 1243.015 1541.59 c 128,-1,48
 1282.92 1575 1282.92 1575 1326.96 1575 c 128,-1,49
 1371 1575 1371 1575 1397 1552 c 128,-1,50
 1423 1529 1423 1529 1423 1505.5 c 0,51,52
 1423 1435.8633702 1423 1435.8633702 1362.92 1363.4866851 c 128,-1,53
 1302.84 1291.11 1302.84 1291.11 1283.92 1266.05 c 2,54,-1
 1243 1211 l 2,55,56
 1221 1181 1221 1181 942.9295 773.491 c 128,-1,57
 664.859 365.982 664.859 365.982 642.93 331.991 c 2,58,-1
 518 128 l 2,59,60
 472.774 53.2795 472.774 53.2795 435.111 26.639748567 c 1,61,62
 375.270907872 -0.144048723451 375.270907872 -0.144048723451 366.481144413 -0.144048723451 c 0,63,64
 357.691380954 -0.144048723451 357.691380954 -0.144048723451 356.724 -1.43302e-06 c 0,65,66
 316 0 316 0 290 26 c 0,67,68
 264 52 264 52 264 87 c 0,38,39
EndSplineSet
EndChar

StartChar: mu
Encoding: 181 181 109
AltUni2: 0003bc.ffffffff.0
Width: 1363
Flags: W
LayerCount: 2
Fore
SplineSet
579 -15 m 0,0,1
 439.9 -15 439.9 -15 362 42 c 1,2,-1
 369 -115 l 2,3,4
 374.657 -248.892 374.657 -248.892 388.829 -286.446 c 128,-1,5
 403 -324 403 -324 418 -338.5 c 128,-1,6
 433 -353 433 -353 455 -366.5 c 128,-1,7
 477 -380 477 -380 491 -396 c 128,-1,8
 505 -412 505 -412 505 -452 c 128,-1,9
 505 -492 505 -492 476 -516 c 128,-1,10
 447 -540 447 -540 394.024 -540 c 128,-1,11
 341.048 -540 341.048 -540 310.024 -507.5 c 0,12,13
 254.669268402 -449.511707809 254.669268402 -449.511707809 233.334634201 -353.505853904 c 128,-1,14
 212 -257.5 212 -257.5 212 -80 c 2,15,-1
 212 734 l 2,16,17
 212 816 212 816 208 855.3335 c 128,-1,18
 204 894.667 204 894.667 204 924 c 0,19,20
 204 1035 204 1035 300 1035 c 0,21,22
 345 1035 345 1035 369 1011.5 c 128,-1,23
 393 988 393 988 393 924 c 1,24,-1
 386 732 l 1,25,-1
 386 280 l 2,26,27
 386 233.66 386 233.66 443.305 189.33 c 128,-1,28
 500.61 145 500.61 145 594 145 c 0,29,30
 735.617 145 735.617 145 821 268.5 c 0,31,32
 849 309 849 309 863 362 c 1,33,-1
 863 734 l 2,34,35
 863 816 863 816 859 855.3335 c 128,-1,36
 855 894.667 855 894.667 855 924 c 0,37,38
 855 1035 855 1035 951 1035 c 0,39,40
 996 1035 996 1035 1020 1011.5 c 128,-1,41
 1044 988 1044 988 1044 924 c 1,42,-1
 1037 732 l 1,43,-1
 1037 395 l 2,44,45
 1037 251.214 1037 251.214 1046.5 216.607 c 128,-1,46
 1056 182 1056 182 1067 170.5 c 128,-1,47
 1078 159 1078 159 1103 149 c 0,48,49
 1159 126.6 1159 126.6 1159 79.3 c 0,50,51
 1159 -15 1159 -15 1050 -15 c 0,52,53
 990 -15 990 -15 941 26.5 c 128,-1,54
 892 68 892 68 872 151 c 1,55,56
 810.892 38.9678 810.892 38.9678 674.5 -1.5 c 0,57,58
 629 -15 629 -15 579 -15 c 0,0,1
EndSplineSet
EndChar

StartChar: numbersign
Encoding: 35 35 110
Width: 1536
Flags: W
LayerCount: 2
Fore
SplineSet
727 882 m 1,0,-1
 589 881 l 1,1,-1
 533 674 l 1,2,3
 722.125 674 l 2,4,5
 796 674 796 674 824 675 c 1,6,-1
 878 881 l 1,7,8
 840 882 840 882 802.5 882 c 2,9,-1
 727 882 l 1,0,-1
627 521 m 2,10,-1
 491 520 l 1,11,12
 456.215 388.975 456.215 388.975 445.607 345.988 c 2,13,-1
 394 123 l 2,14,15
 362.062110966 -15 362.062110966 -15 274.36 -15 c 0,16,17
 186 -15 186 -15 186 73 c 0,18,19
 186 120.118 186 120.118 211 182.059 c 128,-1,20
 236 244 236 244 248 277.5 c 2,21,-1
 271.5 344 l 2,22,23
 293.147 406.118 293.147 406.118 309 465 c 2,24,-1
 321 511 l 1,25,26
 286.5 508 286.5 508 217 508 c 0,27,28
 80 508 80 508 80 598 c 0,29,30
 80 641 80 641 120 664.5 c 128,-1,31
 160 688 160 688 228.5 688 c 128,-1,32
 297 688 297 688 365 680 c 1,33,-1
 415 872 l 1,34,35
 382 869 382 869 317 869 c 0,36,37
 180 869 180 869 180 959 c 0,38,39
 180 1002 180 1002 220 1025.5 c 128,-1,40
 260 1049 260 1049 330 1049 c 1,41,-1
 460 1042 l 1,42,-1
 502 1203 l 2,43,44
 534.375 1327.88 534.375 1327.88 554.188 1425.94 c 128,-1,45
 574 1524 574 1524 602.5 1559 c 128,-1,46
 631 1594 631 1594 674.5 1594 c 0,47,48
 761 1594 761 1594 761 1501 c 0,49,50
 761 1465 761 1465 736 1388.5 c 2,51,-1
 694.5 1259 l 2,52,53
 678 1206 678 1206 668 1171 c 2,54,-1
 631 1035 l 1,55,-1
 818.875 1035 l 2,56,57
 892 1035 892 1035 918 1036 c 1,58,-1
 962 1203 l 2,59,60
 991.778 1312.95 991.778 1312.95 1012.39 1418.47 c 128,-1,61
 1033 1524 1033 1524 1062 1559 c 128,-1,62
 1091 1594 1091 1594 1134.5 1594 c 0,63,64
 1221 1594 1221 1594 1221 1501 c 0,65,66
 1221 1465 1221 1465 1199.5 1400 c 2,67,-1
 1161 1281.5 l 2,68,69
 1144 1228 1144 1228 1128 1171 c 2,70,-1
 1093 1044 l 1,71,72
 1150.5 1049 1150.5 1049 1204 1049 c 0,73,74
 1354 1049 1354 1049 1354 967 c 0,75,76
 1354 899.983 1354 899.983 1272.5 876.5 c 0,77,78
 1243 868 1243 868 1198 868 c 128,-1,79
 1153 868 1153 868 1107 872 c 1,80,-1
 1047 875 l 1,81,-1
 995 683 l 1,82,83
 1050 688 1050 688 1104 688 c 0,84,85
 1254 688 1254 688 1254 606 c 0,86,87
 1254 538.983 1254 538.983 1172.5 515.5 c 0,88,89
 1143 507 1143 507 1098 507 c 128,-1,90
 1053 507 1053 507 1007 511 c 1,91,-1
 949 514 l 1,92,-1
 934 458 l 1,93,94
 907.994080514 365.534508496 907.994080514 365.534508496 854.012 124.086 c 0,95,96
 822.913886917 -15 822.913886917 -15 734.456943459 -15 c 128,-1,97
 646 -15 646 -15 646 73 c 0,98,99
 646 120.118 646 120.118 671 182.059 c 128,-1,100
 696 244 696 244 708 277.5 c 2,101,-1
 731.5 344 l 2,102,103
 753.147 406.118 753.147 406.118 769 465 c 2,104,-1
 783 519 l 1,105,106
 705 521 705 521 627 521 c 2,10,-1
EndSplineSet
EndChar

StartChar: section
Encoding: 167 167 111
Width: 1196
Flags: W
LayerCount: 2
Fore
SplineSet
389.5 818 m 128,-1,1
 351 771 351 771 351 725.5 c 0,2,3
 351 641.636363636 351 641.636363636 414.829 583.610181818 c 128,-1,4
 478.658 525.584 478.658 525.584 642 480 c 1,5,-1
 674.5 470 l 2,6,7
 690 465 690 465 704 460 c 1,8,9
 767 486 767 486 805 533 c 128,-1,10
 843 580 843 580 843 628.5 c 0,11,12
 843 718.333333333 843 718.333333333 781.5375 769.552166667 c 128,-1,13
 720.075 820.771 720.075 820.771 552 871 c 0,14,15
 510.667 884.333 510.667 884.333 492 891 c 1,16,0
 428 865 428 865 389.5 818 c 128,-1,1
848 387 m 1,17,18
 994 283.263 994 283.263 994 131.43585 c 128,-1,19
 994 -20.3913 994 -20.3913 873.304 -122.19565 c 128,-1,20
 752.608 -224 752.608 -224 546 -224 c 0,21,22
 392.217 -224 392.217 -224 287.1085 -148.4531 c 128,-1,23
 182 -72.9062 182 -72.9062 182 7.8469 c 128,-1,24
 182 88.6 182 88.6 238.5 122.5 c 0,25,26
 256 133 256 133 285 133 c 128,-1,27
 314 133 314 133 338.5 112 c 128,-1,28
 363 91 363 91 369.5 62 c 0,29,30
 382.24127095 5.15432960894 382.24127095 5.15432960894 441.047135475 -29.9228351955 c 128,-1,31
 499.853 -65 499.853 -65 575.426 -65 c 0,32,33
 703.8 -65 703.8 -65 756.9 -13.9423 c 128,-1,34
 810 37.1154 810 37.1154 810 108.4467 c 128,-1,35
 810 179.778 810 179.778 750.5 227 c 128,-1,36
 690.817 274.368 690.817 274.368 564.908 313.684 c 0,37,38
 339.413032096 384.097001224 339.413032096 384.097001224 250.706516048 471.828500612 c 128,-1,39
 162 559.56 162 559.56 162 688.3095 c 128,-1,40
 162 817.059 162 817.059 273 915 c 0,41,42
 307 945 307 945 349 966 c 1,43,44
 201 1075.05 201 1075.05 201 1241 c 0,45,46
 201 1377.67 201 1377.67 319.8225 1476.335 c 128,-1,47
 438.645 1575 438.645 1575 648 1575 c 0,48,49
 801.783 1575 801.783 1575 906.8915 1499.455 c 128,-1,50
 1012 1423.91 1012 1423.91 1012 1342.24 c 128,-1,51
 1012 1260.57 1012 1260.57 955.5 1228.5 c 0,52,53
 937 1218 937 1218 908 1218 c 128,-1,54
 879 1218 879 1218 855.5 1239 c 128,-1,55
 832 1260 832 1260 825.5 1289 c 0,56,57
 812.75872905 1345.84567039 812.75872905 1345.84567039 753.952864525 1380.9228352 c 128,-1,58
 695.147 1416 695.147 1416 619.573 1416 c 0,59,60
 491.224489796 1416 491.224489796 1416 438.612244898 1365.45 c 128,-1,61
 386 1314.9 386 1314.9 386 1245.95 c 0,62,63
 386 1113.74409449 386 1113.74409449 644 1033.5 c 0,64,65
 868.371120463 963.715281431 868.371120463 963.715281431 950.685560231 879.441140715 c 128,-1,66
 1033 795.167 1033 795.167 1033 667.7305 c 128,-1,67
 1033 540.294 1033 540.294 923 440 c 0,68,69
 889 409 889 409 848 387 c 1,17,18
EndSplineSet
EndChar

StartChar: paragraph
Encoding: 182 182 112
Width: 1707
Flags: W
LayerCount: 2
Fore
SplineSet
796 -224 m 128,-1,1
 696 -224 696 -224 696 -84 c 0,2,3
 696 -17 696 -17 703 81 c 0,4,5
 710 179 710 179 710 308 c 2,6,-1
 710 651 l 1,7,8
 415.384 656.666 415.384 656.666 252.692 798.3655 c 128,-1,9
 90 940.065 90 940.065 90 1143.6675 c 128,-1,10
 90 1347.27 90 1347.27 266.437 1461.135 c 128,-1,11
 442.874 1575 442.874 1575 759 1575 c 1,12,-1
 1271 1568 l 1,13,-1
 1446 1575 l 1,14,15
 1528.25 1575 1528.25 1575 1547.5 1526 c 0,16,17
 1553 1512 1553 1512 1553 1497 c 0,18,19
 1553 1414 1553 1414 1427 1414 c 2,20,-1
 1361 1414 l 1,21,-1
 1361 308 l 2,22,23
 1361 158 1361 158 1367.5 62.66665 c 128,-1,24
 1374 -32.6667 1374 -32.6667 1374 -94.3333 c 128,-1,25
 1374 -156 1374 -156 1348 -190 c 128,-1,26
 1322 -224 1322 -224 1279 -224 c 0,27,28
 1174 -224 1174 -224 1174 -84 c 0,29,30
 1174 -17 1174 -17 1181 81 c 0,31,32
 1188 179 1188 179 1188 308 c 2,33,-1
 1188 1414 l 1,34,-1
 883 1414 l 1,35,-1
 883 308 l 2,36,37
 883 158 883 158 889.5 62.66665 c 128,-1,38
 896 -32.6667 896 -32.6667 896 -96 c 0,39,0
 896 -224 896 -224 796 -224 c 128,-1,1
EndSplineSet
EndChar

StartChar: ampersand
Encoding: 38 38 113
Width: 1703
Flags: W
LayerCount: 2
Fore
SplineSet
943 261 m 1,0,1
 715 442.962 715 442.962 521 678 c 1,2,3
 362.161 564.543 362.161 564.543 330.5 457.5 c 0,4,5
 320 422 320 422 320 376.5 c 0,6,7
 320 279.459459459 320 279.459459459 397.7345 212.22972973 c 128,-1,8
 475.469 145 475.469 145 581.234 145 c 0,9,10
 765.717 145 765.717 145 943 261 c 1,0,1
575 908 m 1,11,12
 759.424 1034.62 759.424 1034.62 786.5 1141.5 c 0,13,14
 796 1179 796 1179 796 1227 c 0,15,16
 796 1319.74074074 796 1319.74074074 740.674 1366.87037037 c 128,-1,17
 685.348 1414 685.348 1414 616.674 1414 c 0,18,19
 507.615384615 1414 507.615384615 1414 460.307692308 1358.09 c 128,-1,20
 413 1302.18 413 1302.18 413 1256.09 c 0,21,22
 413 1174.18421053 413 1174.18421053 450.001 1097.26210526 c 128,-1,23
 487.002 1020.34 487.002 1020.34 575 908 c 1,11,12
1076 163 m 1,24,25
 847.457 -15 847.457 -15 603.476 -15 c 128,-1,26
 359.495 -15 359.495 -15 232.5 107.5 c 0,27,28
 129 207.336 129 207.336 129 370.668 c 128,-1,29
 129 534 129 534 283 688 c 0,30,31
 339 744 339 744 420 804 c 1,32,33
 232 1048.75495666 232 1048.75495666 232 1206.18392994 c 0,34,35
 232 1363.61290323 232 1363.61290323 330.295 1469.30645161 c 128,-1,36
 428.59 1575 428.59 1575 601.888 1575 c 128,-1,37
 775.186 1575 775.186 1575 876.593 1484.155 c 128,-1,38
 978 1393.31 978 1393.31 978 1258 c 0,39,40
 978 1056.15 978 1056.15 821 900.5 c 0,41,42
 763 843 763 843 678 782 c 1,43,-1
 712 743 l 1,44,45
 889.602 526.365 889.602 526.365 1088 376 c 1,46,47
 1229.38 511.095 1229.38 511.095 1275 651 c 0,48,49
 1290 697 1290 697 1290 736.8635 c 128,-1,50
 1290 776.727 1290 776.727 1253 811.864 c 128,-1,51
 1216 847 1216 847 1216 888.516129032 c 0,52,53
 1216 930.032258065 1216 930.032258065 1249.12 961.016129032 c 128,-1,54
 1282.24 992 1282.24 992 1344.2944186 992 c 0,55,56
 1406.34883721 992 1406.34883721 992 1444.6744186 947.4595 c 128,-1,57
 1483 902.919 1483 902.919 1483 837.959 c 0,58,59
 1483 714 1483 714 1408.5 565 c 128,-1,60
 1333.95 415.896 1333.95 415.896 1213 289 c 1,61,62
 1338 211 1338 211 1431.69883041 183.213450292 c 0,63,64
 1525.39766082 155.426900585 1525.39766082 155.426900585 1554.19883041 132.025950292 c 128,-1,65
 1583 108.625 1583 108.625 1583 73 c 0,66,67
 1583 -15 1583 -15 1479 -15 c 0,68,69
 1336.93 -15 1336.93 -15 1076 163 c 1,24,25
EndSplineSet
EndChar

StartChar: asciicircum
Encoding: 94 94 114
Width: 1196
Flags: W
LayerCount: 2
Fore
SplineSet
276.5 840 m 128,-1,1
 263 836 263 836 239.5 836 c 128,-1,2
 216 836 216 836 195 856 c 128,-1,3
 174 876 174 876 174 896.5 c 0,4,5
 174 937.222222222 174 937.222222222 211.5 990 c 2,6,-1
 243 1034 l 1,7,-1
 483 1518 l 1,8,9
 539.558139535 1594 539.558139535 1594 582.591569767 1594 c 128,-1,10
 625.625 1594 625.625 1594 649.0625 1579 c 128,-1,11
 672.5 1564 672.5 1564 707 1518 c 1,12,-1
 955 1034 l 1,13,14
 1013.51 957.679 1013.51 957.679 1017.76 934.339 c 128,-1,15
 1022 911 1022 911 1022 890.5 c 128,-1,16
 1022 870 1022 870 1002 853 c 128,-1,17
 982 836 982 836 950.333333333 836 c 128,-1,18
 918.666666667 836 918.666666667 836 894.493333333 854.13 c 128,-1,19
 870.32 872.26 870.32 872.26 825 932 c 1,20,-1
 595 1359 l 1,21,-1
 373 932 l 1,22,23
 329.377 872.515 329.377 872.515 309.689 858.257 c 128,-1,0
 290 844 290 844 276.5 840 c 128,-1,1
EndSplineSet
EndChar

StartChar: at
Encoding: 64 64 115
Width: 2218
Flags: W
LayerCount: 2
Fore
SplineSet
1074 302 m 0,0,1
 1218.01 302 1218.01 302 1306 433 c 1,2,-1
 1306 793 l 1,3,4
 1249.05 859.437 1249.05 859.437 1134.5 886 c 0,5,6
 1100 894 1100 894 1056.5 894 c 0,7,8
 957.216216216 894 957.216216216 894 886.608108108 816.015 c 128,-1,9
 816 738.03 816 738.03 816 601.6235 c 128,-1,10
 816 465.217 816 465.217 888.1925 383.6085 c 128,-1,11
 960.385 302 960.385 302 1074 302 c 0,0,1
1345 286 m 1,12,13
 1251.52215426 148 1251.52215426 148 1029.5 148 c 0,14,15
 960 148 960 148 883.5 180 c 128,-1,16
 807 212 807 212 753 271 c 0,17,18
 641 393.37 641 393.37 641 592.694 c 128,-1,19
 641 792.018 641 792.018 756.145 923.009 c 128,-1,20
 871.29 1054 871.29 1054 1051.96 1054 c 128,-1,21
 1232.62 1054 1232.62 1054 1344 955 c 1,22,23
 1395.56 1054 1395.56 1054 1486 1054 c 0,24,25
 1549.35 1054 1549.35 1054 1570.5 1004 c 0,26,27
 1576 991 1576 991 1576 971 c 0,28,29
 1576 928.652 1576 928.652 1529 898 c 1,30,31
 1497.94 875.222 1497.94 875.222 1488.97 840.9745 c 128,-1,32
 1480 806.727 1480 806.727 1480 699 c 2,33,-1
 1480 455 l 2,34,35
 1480 370.191 1480 370.191 1529.025 331.5955 c 128,-1,36
 1578.05 293 1578.05 293 1635 293 c 0,37,38
 1754.57142857 293 1754.57142857 293 1831.78571429 401.1 c 128,-1,39
 1909 509.2 1909 509.2 1909 725.298 c 128,-1,40
 1909 941.396 1909 941.396 1796 1104.5 c 0,41,42
 1640.28 1329.27 1640.28 1329.27 1329 1392.5 c 0,43,44
 1233 1412 1233 1412 1122.5 1412 c 0,45,46
 896.470588235 1412 896.470588235 1412 708.54046748 1307.25206384 c 128,-1,47
 520.610346725 1202.50412768 520.610346725 1202.50412768 415.305173363 1020.80106384 c 128,-1,48
 310 839.098 310 839.098 310 639.049 c 0,49,50
 310 270.494680851 310 270.494680851 509.098 59.7473404255 c 128,-1,51
 708.196 -151 708.196 -151 987 -151 c 0,52,53
 1022.83 -151 1022.83 -151 1059.98181085 -135.627732909 c 128,-1,54
 1097.1336217 -120.255465817 1097.1336217 -120.255465817 1131.4211048 -120.255465817 c 0,55,56
 1192.5434642 -120.255465817 1192.5434642 -120.255465817 1211 -183 c 0,57,58
 1216 -200 1216 -200 1216 -217.5 c 0,59,60
 1216 -261.468085106 1216 -261.468085106 1166.755 -300.234042553 c 128,-1,61
 1117.51 -339 1117.51 -339 1010.26 -339 c 0,62,63
 783.162162162 -339 783.162162162 -339 579.882266977 -224.461581901 c 128,-1,64
 376.602371793 -109.923163802 376.602371793 -109.923163802 253.301185896 106.108918099 c 128,-1,65
 130 322.141 130 322.141 130 600.5745 c 128,-1,66
 130 879.008 130 879.008 258.049 1098.229 c 128,-1,67
 386.098 1317.45 386.098 1317.45 618.925 1446.225 c 128,-1,68
 851.752 1575 851.752 1575 1150 1575 c 0,69,70
 1550.33 1575 1550.33 1575 1819.165 1334.79900293 c 128,-1,71
 2088 1094.59800587 2088 1094.59800587 2088 732 c 0,72,73
 2088 476.571428571 2088 476.571428571 1954.45 312.285714286 c 128,-1,74
 1820.9 148 1820.9 148 1618.8 148 c 128,-1,75
 1416.69 148 1416.69 148 1345 286 c 1,12,13
EndSplineSet
EndChar

StartChar: yen
Encoding: 165 165 116
Width: 1710
Flags: W
LayerCount: 2
Fore
SplineSet
82 1570 m 1,0,-1
 215.261 1556 l 1,1,2
 249 1556 249 1556 271 1557 c 2,3,-1
 315.5 1559 l 2,4,5
 365.931 1561.24 365.931 1561.24 388.466 1563.62 c 2,6,-1
 429 1568 l 2,7,8
 492 1575 492 1575 534 1575 c 128,-1,9
 576 1575 576 1575 601 1554.5 c 128,-1,10
 626 1534 626 1534 626 1497 c 128,-1,11
 626 1460 626 1460 585.5 1434 c 128,-1,12
 545 1408 545 1408 457 1408 c 2,13,-1
 417 1408 l 1,14,-1
 673 1078.5 l 1,15,-1
 777 939 l 2,16,17
 824 875 824 875 856 827 c 1,18,-1
 857 827 l 1,19,-1
 936.5 938 l 1,20,-1
 1163 1234 l 1,21,-1
 1301 1408 l 1,22,-1
 1255 1408 l 2,23,24
 1180 1408 1180 1408 1137 1431.5 c 128,-1,25
 1094 1455 1094 1455 1094 1493.5 c 128,-1,26
 1094 1532 1094 1532 1119 1553.5 c 128,-1,27
 1144 1575 1144 1575 1180 1575 c 128,-1,28
 1216 1575 1216 1575 1251 1571.5 c 2,29,-1
 1315 1565 l 2,30,31
 1344.52 1561.31 1344.52 1561.31 1381.76 1559.66 c 2,32,-1
 1440.5 1557 l 2,33,34
 1462 1556 1462 1556 1479 1556 c 1,35,-1
 1630 1568 l 1,36,37
 1687.15 1568 1687.15 1568 1710.5 1519.5 c 0,38,39
 1717 1506 1717 1506 1717 1475.58571429 c 128,-1,40
 1717 1445.17142857 1717 1445.17142857 1684.59 1429.43071429 c 128,-1,41
 1652.18 1413.69 1652.18 1413.69 1615.09 1409.34 c 0,42,43
 1550.8314226 1401.82093217 1550.8314226 1401.82093217 1494.85513264 1358.69165957 c 128,-1,44
 1438.87884268 1315.56238698 1438.87884268 1315.56238698 1337 1193.5 c 1,45,-1
 1215 1040 l 1,46,-1
 1055 827 l 1,47,-1
 1343 827 l 2,48,49
 1396 827 1396 827 1421.5 806.5 c 128,-1,50
 1447 786 1447 786 1447 756 c 0,51,52
 1447 685 1447 685 1343 685 c 2,53,-1
 954 685 l 1,54,-1
 954 517 l 1,55,-1
 1343 517 l 2,56,57
 1396 517 1396 517 1421.5 496.5 c 128,-1,58
 1447 476 1447 476 1447 446 c 0,59,60
 1447 375 1447 375 1343 375 c 2,61,-1
 954 375 l 1,62,-1
 954 161 l 1,63,-1
 1065 161 l 2,64,65
 1135 161 1135 161 1163 136.5 c 128,-1,66
 1191 112 1191 112 1191 80 c 128,-1,67
 1191 48 1191 48 1167 24 c 128,-1,68
 1143 0 1143 0 1085 0 c 2,69,-1
 1060 0 l 2,70,71
 1045 0 1045 0 1028 0.5 c 2,72,-1
 994.5 1.5 l 2,73,74
 978 2 978 2 946 4 c 128,-1,75
 914 6 914 6 865 6 c 128,-1,76
 816 6 816 6 775.5 4 c 128,-1,77
 735 2 735 2 717 1.5 c 2,78,-1
 680.5 0.5 l 2,79,80
 662 0 662 0 645.5 0 c 2,81,-1
 619 0 l 2,82,83
 574 0 574 0 547.5 21.5 c 128,-1,84
 521 43 521 43 521 79 c 128,-1,85
 521 115 521 115 552 138 c 128,-1,86
 583 161 583 161 635 161 c 2,87,-1
 768 161 l 1,88,-1
 768 375 l 1,89,-1
 370 375 l 2,90,91
 263 375 263 375 263 446 c 128,-1,92
 263 517 263 517 370 517 c 2,93,-1
 768 517 l 1,94,-1
 768 684 l 1,95,-1
 767 685 l 1,96,-1
 370 685 l 2,97,98
 263 685 263 685 263 756 c 128,-1,99
 263 827 263 827 370 827 c 2,100,-1
 661 827 l 1,101,102
 362.416 1224.82 362.416 1224.82 305.208 1284.41 c 128,-1,103
 248 1344 248 1344 212.9525 1369.21 c 128,-1,104
 177.905 1394.42 177.905 1394.42 134.953 1402.71 c 128,-1,105
 92 1411 92 1411 72 1414.5 c 0,106,107
 -6 1428.15 -6 1428.15 -6 1491 c 0,108,109
 -6 1570 -6 1570 82 1570 c 1,0,-1
EndSplineSet
EndChar

StartChar: Euro
Encoding: 8364 8364 117
Width: 1710
Flags: W
LayerCount: 2
Fore
SplineSet
145 555 m 2,0,1
 38 555 38 555 38 626 c 128,-1,2
 38 697 38 697 145 697 c 2,3,-1
 278 697 l 1,4,5
 275 737 275 737 275 780 c 128,-1,6
 275 823 275 823 279 865 c 1,7,-1
 145 865 l 2,8,9
 38 865 38 865 38 936 c 128,-1,10
 38 1007 38 1007 145 1007 c 2,11,-1
 302 1007 l 1,12,13
 368.134 1265.34 368.134 1265.34 570.447 1420.17 c 128,-1,14
 772.76 1575 772.76 1575 1052.51 1575 c 128,-1,15
 1332.26 1575 1332.26 1575 1511 1448 c 1,16,17
 1651 1347.02 1651 1347.02 1651 1245 c 0,18,19
 1651 1208 1651 1208 1633 1181 c 128,-1,20
 1615 1154 1615 1154 1581.5 1154 c 128,-1,21
 1548 1154 1548 1154 1524.5 1170 c 128,-1,22
 1501 1186 1501 1186 1474.5 1228.5 c 0,23,24
 1418.99183802 1317.52252394 1418.99183802 1317.52252394 1307.45091901 1372.26126197 c 128,-1,25
 1195.91 1427 1195.91 1427 1071.45 1427 c 0,26,27
 842.190909091 1427 842.190909091 1427 696.809454545 1313.58 c 128,-1,28
 551.428 1200.16 551.428 1200.16 498 1007 c 1,29,-1
 1218 1007 l 2,30,31
 1271 1007 1271 1007 1296.5 986.5 c 128,-1,32
 1322 966 1322 966 1322 936 c 0,33,34
 1322 865 1322 865 1218 865 c 2,35,-1
 472 865 l 1,36,37
 469 826 469 826 469 782.5 c 128,-1,38
 469 739 469 739 473 697 c 1,39,-1
 1088 697 l 2,40,41
 1141 697 1141 697 1166.5 676.5 c 128,-1,42
 1192 656 1192 656 1192 626 c 0,43,44
 1192 555 1192 555 1088 555 c 2,45,-1
 501 555 l 1,46,47
 560.172 355.789 560.172 355.789 719.012 244.3945 c 128,-1,48
 877.852 133 877.852 133 1092.766 133 c 128,-1,49
 1307.68 133 1307.68 133 1436 253.5 c 0,50,51
 1477 292 1477 292 1497.5 334 c 128,-1,52
 1518 376 1518 376 1539.5 390.5 c 128,-1,53
 1561 405 1561 405 1595.5 405 c 128,-1,54
 1630 405 1630 405 1651 381.5 c 128,-1,55
 1672 358 1672 358 1672 315 c 0,56,57
 1672 233.8 1672 233.8 1521 113 c 1,58,59
 1355.07 -15 1355.07 -15 1070.5385 -15 c 128,-1,60
 786.007 -15 786.007 -15 577.6685 136.3305 c 128,-1,61
 369.33 287.661 369.33 287.661 302 555 c 1,62,-1
 145 555 l 2,0,1
EndSplineSet
EndChar

StartChar: sterling
Encoding: 163 163 118
Width: 1369
Flags: W
LayerCount: 2
Fore
SplineSet
385.572366299 450.502092487 m 0,0,1
 385.572366299 531.60840468 385.572366299 531.60840468 353 665 c 1,2,-1
 171 665 l 2,3,4
 65 665 65 665 65 736 c 128,-1,5
 65 807 65 807 173 807 c 2,6,-1
 314 807 l 1,7,8
 255 1013.5 255 1013.5 255 1118.75 c 0,9,10
 255 1326.90909091 255 1326.90909091 391.45 1450.95454545 c 128,-1,11
 527.9 1575 527.9 1575 783 1575 c 0,12,13
 977.389 1575 977.389 1575 1093.1945 1479.38 c 128,-1,14
 1209 1383.76 1209 1383.76 1209 1268.065 c 128,-1,15
 1209 1152.37 1209 1152.37 1146.25 1090.685 c 128,-1,16
 1083.5 1029 1083.5 1029 1008 1029 c 0,17,18
 900 1029 900 1029 900 1113 c 0,19,20
 900 1181.14 900 1181.14 978 1198 c 0,21,22
 1029 1209.77 1029 1209.77 1029 1268 c 128,-1,23
 1029 1326.11 1029 1326.11 951.2325 1372.555 c 128,-1,24
 873.465 1419 873.465 1419 772.733 1419 c 0,25,26
 597.913580247 1419 597.913580247 1419 519.456790123 1335.38 c 128,-1,27
 441 1251.76 441 1251.76 441 1128.31 c 128,-1,28
 441 1004.87 441 1004.87 497 807 c 1,29,-1
 816 807 l 2,30,31
 869 807 869 807 894 786.5 c 128,-1,32
 919 766 919 766 919 737 c 0,33,34
 919 665 919 665 814 665 c 2,35,-1
 537 665 l 1,36,37
 573 527.545 573 527.545 573 430.523 c 128,-1,38
 573 333.5 573 333.5 518 251 c 1,39,40
 618.792 247.946 618.792 247.946 731.374145991 206.284895002 c 128,-1,41
 843.956291983 164.623790003 843.956291983 164.623790003 889.778145991 155.811895002 c 128,-1,42
 935.6 147 935.6 147 980.3 147 c 0,43,44
 1079.7 147 1079.7 147 1121.795 226 c 128,-1,45
 1163.89 305 1163.89 305 1217 305 c 0,46,47
 1251.6 305 1251.6 305 1277.8 277.7085 c 128,-1,48
 1304 250.417 1304 250.417 1304 211.708 c 128,-1,49
 1304 173 1304 173 1275 131 c 128,-1,50
 1246 89 1246 89 1198 56.5 c 0,51,52
 1092.4 -15 1092.4 -15 961.978 -15 c 128,-1,53
 831.556 -15 831.556 -15 684.968 41.3038 c 128,-1,54
 538.38 97.6076 538.38 97.6076 504.19 101.304 c 128,-1,55
 470 105 470 105 441.3595 105 c 128,-1,56
 412.719 105 412.719 105 345.859 56 c 128,-1,57
 279 7 279 7 247.5 -4 c 128,-1,58
 216 -15 216 -15 183.5 -15 c 128,-1,59
 151 -15 151 -15 124 8 c 128,-1,60
 97 31 97 31 97 76 c 128,-1,61
 97 121 97 121 122.731 146.731 c 128,-1,62
 148.462 172.462 148.462 172.462 227.731 199.731 c 0,63,64
 385.572366299 254.029400781 385.572366299 254.029400781 385.572366299 450.502092487 c 0,0,1
EndSplineSet
EndChar

StartChar: currency
Encoding: 164 164 119
Width: 1199
Flags: W
LayerCount: 2
Fore
SplineSet
770.75 490.5 m 128,-1,1
 846 555 846 555 846 663.1305 c 128,-1,2
 846 771.261 846 771.261 772.8925 840.1305 c 128,-1,3
 699.785 909 699.785 909 595.675 909 c 128,-1,4
 491.565 909 491.565 909 423.7825 842.2935 c 128,-1,5
 356 775.587 356 775.587 356 669.389 c 128,-1,6
 356 563.191 356 563.191 427.7615 494.5955 c 128,-1,7
 499.523 426 499.523 426 597.5115 426 c 128,-1,0
 695.5 426 695.5 426 770.75 490.5 c 128,-1,1
1112.28049849 223.167940481 m 0,8,9
 1112.28049849 135 1112.28049849 135 1023.846 135 c 0,10,11
 982.692 135 982.692 135 945.346 176.5 c 0,12,13
 847.881 283.119 847.881 283.119 806 325 c 1,14,15
 706.444 269 706.444 269 593.097 269 c 128,-1,16
 479.75 269 479.75 269 386 319 c 1,17,-1
 256 181 l 1,18,19
 215.308 135 215.308 135 174.154 135 c 128,-1,20
 133 135 133 135 110.5 156 c 128,-1,21
 88 177 88 177 87.1629828074 192.066293444 c 128,-1,22
 86.3259656149 207.132586888 86.3259656149 207.132586888 86.3259656149 210.247170633 c 0,23,24
 86.3259656149 265.451487726 86.3259656149 265.451487726 141 315 c 0,25,26
 225.335 390.633 225.335 390.633 263 427 c 1,27,28
 192 524.371 192 524.371 192 661.417 c 128,-1,29
 192 798.462 192 798.462 275 907 c 1,30,-1
 141 1032 l 1,31,32
 85.7237124596 1082.09373828 85.7237124596 1082.09373828 85.7237124596 1124.98460162 c 128,-1,33
 85.7237124596 1167.87546496 85.7237124596 1167.87546496 109.36185623 1189.93773248 c 128,-1,34
 133 1212 133 1212 159.5 1212 c 0,35,36
 215.308 1212 215.308 1212 253.154 1169.5 c 0,37,38
 352.132 1060.87 352.132 1060.87 400 1013 c 1,39,40
 491.8 1064 491.8 1064 599.9 1064 c 128,-1,41
 708 1064 708 1064 802 1017 c 1,42,-1
 942 1166 l 1,43,44
 982.692 1212 982.692 1212 1023.85 1212 c 128,-1,45
 1065 1212 1065 1212 1087.5 1191 c 128,-1,46
 1110 1170 1110 1170 1110.85704674 1154.57381547 c 128,-1,47
 1111.71409347 1139.14763094 1111.71409347 1139.14763094 1111.71409347 1135.36853844 c 0,48,49
 1111.71409347 1081.60341257 1111.71409347 1081.60341257 1068.38 1042.67 c 2,50,-1
 930 914 l 1,51,52
 1010 812.947 1010 812.947 1010 675.197 c 128,-1,53
 1010 537.447 1010 537.447 929 433 c 1,54,-1
 1057 315 l 2,55,56
 1112.28049849 264.901747231 1112.28049849 264.901747231 1112.28049849 223.167940481 c 0,8,9
EndSplineSet
EndChar

StartChar: asterisk
Encoding: 42 42 120
Width: 1196
Flags: W
LayerCount: 2
Fore
SplineSet
501 1195 m 1,0,-1
 480 1479.57 l 1,1,2
 480 1533 480 1533 503.5 1563.5 c 128,-1,3
 527 1594 527 1594 566.879310345 1594 c 128,-1,4
 606.75862069 1594 606.75862069 1594 631.879310345 1563.645 c 128,-1,5
 657 1533.29 657 1533.29 657 1484.845 c 128,-1,6
 657 1436.4 657 1436.4 646 1351.2 c 128,-1,7
 635 1266 635 1266 633 1193 c 1,8,9
 721.696 1215.17 721.696 1215.17 773.848 1242.59 c 2,10,-1
 848 1281.5 l 2,11,12
 910.174 1314 910.174 1314 947.587 1314 c 128,-1,13
 985 1314 985 1314 1010.5 1292 c 128,-1,14
 1036 1270 1036 1270 1036 1237 c 0,15,16
 1036 1180.26315789 1036 1180.26315789 985.848 1156.50657895 c 128,-1,17
 935.696 1132.75 935.696 1132.75 832.373 1110.32 c 128,-1,18
 729.05 1087.89 729.05 1087.89 676 1068 c 1,19,20
 709.746 1016.49 709.746 1016.49 754.873 969.746 c 2,21,-1
 825.5 895 l 1,22,23
 874.134 841.598 874.134 841.598 881.567 819.299 c 128,-1,24
 889 797 889 797 889 769.5 c 128,-1,25
 889 742 889 742 866.5 719.5 c 128,-1,26
 844 697 844 697 808.5 697 c 0,27,28
 737.846873145 697 737.846873145 697 658.241 844.259 c 0,29,30
 610.605587477 932.378471701 610.605587477 932.378471701 594.5 956 c 2,31,-1
 567 996 l 1,32,33
 523.615 938.154 523.615 938.154 491.808 878.577 c 128,-1,34
 460 819 460 819 438.5 783.5 c 128,-1,35
 417 748 417 748 399.5 729 c 128,-1,36
 382 710 382 710 366.5 703.5 c 128,-1,37
 351 697 351 697 324.5 697 c 128,-1,38
 298 697 298 697 273.5 717 c 128,-1,39
 249 737 249 737 249 764 c 0,40,41
 249 842.899038638 249 842.899038638 348.233 944.239 c 1,42,-1
 418.5 1017.5 l 2,43,44
 442 1043 442 1043 462 1069 c 1,45,46
 414.083 1088.17 414.083 1088.17 363.042 1098.58 c 2,47,-1
 289 1114 l 1,48,49
 138.943 1142.31 138.943 1142.31 109.5 1195 c 0,50,51
 100 1212 100 1212 100 1240.53846154 c 128,-1,52
 100 1269.07692308 100 1269.07692308 126.716645022 1290.65641583 c 128,-1,53
 153.433290043 1312.23590859 153.433290043 1312.23590859 198.303439806 1312.23590859 c 128,-1,54
 243.173589569 1312.23590859 243.173589569 1312.23590859 345.115794784 1262.0929543 c 128,-1,55
 447.058 1211.95 447.058 1211.95 501 1195 c 1,0,-1
EndSplineSet
EndChar

StartChar: onesuperior
Encoding: 185 185 121
Width: 855
Flags: W
LayerCount: 2
Fore
SplineSet
419.5 661 m 1,0,-1
 322 657 l 1,1,-1
 282 657 l 2,2,3
 240 657 240 657 221.5 678 c 128,-1,4
 203 699 203 699 203 724.5 c 128,-1,5
 203 750 203 750 223 771 c 128,-1,6
 243 792 243 792 285 792 c 2,7,-1
 392 792 l 1,8,-1
 392 1354 l 1,9,10
 373 1335 373 1335 357.5 1317.5 c 2,11,-1
 322 1277 l 2,12,13
 266.269 1214 266.269 1214 226.635 1214 c 128,-1,14
 187 1214 187 1214 165.5 1235 c 128,-1,15
 144 1256 144 1256 144 1286.33333333 c 0,16,17
 144 1316.66666667 144 1316.66666667 160.2535 1339.24333333 c 128,-1,18
 176.507 1361.82 176.507 1361.82 245.743 1412.115 c 128,-1,19
 314.979 1462.41 314.979 1462.41 360.49 1513.71 c 128,-1,20
 406 1565 406 1565 431 1575.5 c 128,-1,21
 456 1586 456 1586 482 1586 c 128,-1,22
 508 1586 508 1586 529.5 1567.5 c 128,-1,23
 551 1549 551 1549 551 1514 c 2,24,-1
 551 792 l 1,25,-1
 627 792 l 2,26,27
 672 792 672 792 691.5 771 c 128,-1,28
 711 750 711 750 711 723.5 c 128,-1,29
 711 697 711 697 689 677 c 128,-1,30
 667 657 667 657 629 657 c 2,31,-1
 470 661 l 1,32,-1
 419.5 661 l 1,0,-1
EndSplineSet
EndChar

StartChar: twosuperior
Encoding: 178 178 122
Width: 1025
Flags: W
LayerCount: 2
Fore
SplineSet
495 848 m 1,0,1
 657.25 789 657.25 789 698.125 789 c 0,2,3
 772.895 789 772.895 789 796.8705 834 c 128,-1,4
 820.846 879 820.846 879 857.923 879 c 0,5,6
 930 879 930 879 930 803 c 0,7,8
 930 748.129 930 748.129 861.711 698.5645 c 128,-1,9
 793.422 649 793.422 649 700.1695 649 c 128,-1,10
 606.917 649 606.917 649 499 686 c 1,11,-1
 442 704 l 2,12,13
 373.25 726 373.25 726 339.625 726 c 128,-1,14
 306 726 306 726 291.5 713.5 c 128,-1,15
 277 701 277 701 241.6665 675 c 128,-1,16
 206.333 649 206.333 649 169.667 649 c 128,-1,17
 133 649 133 649 113.5 670.5 c 128,-1,18
 94 692 94 692 94 721 c 0,19,20
 94 783 94 783 192 832 c 1,21,22
 422.615 944.448 422.615 944.448 545.8075 1069.709 c 128,-1,23
 669 1194.97 669 1194.97 669 1300 c 0,24,25
 669 1370 669 1370 622.5 1414 c 128,-1,26
 576 1458 576 1458 481 1458 c 0,27,28
 340.137 1458 340.137 1458 307 1373.5 c 0,29,30
 297 1348 297 1348 297 1320 c 0,31,32
 297 1265.96 297 1265.96 343.5 1254.105 c 128,-1,33
 390 1242.25 390 1242.25 390 1188 c 0,34,35
 390 1163 390 1163 369.5 1145 c 128,-1,36
 349 1127 349 1127 314 1127 c 0,37,38
 243.897959184 1127 243.897959184 1127 193.948979592 1179.075 c 128,-1,39
 144 1231.15 144 1231.15 144 1297.57 c 0,40,41
 144 1423.82758621 144 1423.82758621 235.617 1504.9137931 c 128,-1,42
 327.234 1586 327.234 1586 487.617 1586 c 128,-1,43
 648 1586 648 1586 738.5 1506.145 c 128,-1,44
 829 1426.29 829 1426.29 829 1310 c 0,45,46
 829 1075.73 829 1075.73 495 848 c 1,0,1
EndSplineSet
EndChar

StartChar: threesuperior
Encoding: 179 179 123
Width: 1025
Flags: W
LayerCount: 2
Fore
SplineSet
224.675324675 731.354 m 128,-1,1
 122 813.708 122 813.708 122 929 c 0,2,3
 122 1005.11 122 1005.11 160.818 1052.555 c 128,-1,4
 199.636 1100 199.636 1100 241.818 1100 c 0,5,6
 327 1100 327 1100 327 1030 c 0,7,8
 327 1004.14 327 1004.14 298.5 977.535 c 128,-1,9
 270 950.93 270 950.93 270 924.965 c 0,10,11
 270 866.032258065 270 866.032258065 336.4525 821.016129032 c 128,-1,12
 402.905 776 402.905 776 477.952 776 c 0,13,14
 741 776 741 776 741 1013 c 0,15,16
 741 1100.56 741 1100.56 686.7355 1153.78 c 128,-1,17
 632.471 1207 632.471 1207 546 1207 c 0,18,19
 503.556 1207 503.556 1207 463.7095 1189 c 128,-1,20
 423.863 1171 423.863 1171 401.432 1171 c 128,-1,21
 379 1171 379 1171 363.5 1185.5 c 128,-1,22
 348 1200 348 1200 348 1223 c 128,-1,23
 348 1246 348 1246 359.5 1263.5 c 128,-1,24
 371 1281 371 1281 394 1307 c 2,25,-1
 514 1439 l 1,26,-1
 490 1439 l 2,27,28
 317.75 1439 317.75 1439 268.7359375 1448.10477941 c 0,29,30
 219.721875 1457.20955882 219.721875 1457.20955882 202.3609375 1477.63477941 c 128,-1,31
 185 1498.06 185 1498.06 185 1523.53 c 128,-1,32
 185 1549 185 1549 204.5 1569.5 c 128,-1,33
 224 1590 224 1590 249.5 1590 c 128,-1,34
 275 1590 275 1590 325 1580 c 0,35,36
 375 1570 375 1570 477.5 1570 c 128,-1,37
 580 1570 580 1570 627.2045 1585.5 c 128,-1,38
 674.409 1601 674.409 1601 699 1601 c 0,39,40
 755 1601 755 1601 755 1549 c 0,41,42
 755 1521.52 755 1521.52 704 1467 c 2,43,-1
 577 1333 l 1,44,45
 715.36 1328.87 715.36 1328.87 808.68 1245.095 c 128,-1,46
 902 1161.32 902 1161.32 902 1013.049 c 128,-1,47
 902 864.778 902 864.778 787.7645 756.889 c 128,-1,48
 673.529 649 673.529 649 500.439824675 649 c 128,-1,0
 327.350649351 649 327.350649351 649 224.675324675 731.354 c 128,-1,1
EndSplineSet
EndChar

StartChar: onequarter
Encoding: 188 188 124
Width: 2221
Flags: W
LayerCount: 2
Fore
SplineSet
438.5 661 m 1,0,-1
 341 657 l 1,1,-1
 301 657 l 2,2,3
 259 657 259 657 240.5 678 c 128,-1,4
 222 699 222 699 222 724.5 c 128,-1,5
 222 750 222 750 242 771 c 128,-1,6
 262 792 262 792 304 792 c 2,7,-1
 411 792 l 1,8,-1
 411 1354 l 1,9,10
 392 1335 392 1335 376.5 1317.5 c 2,11,-1
 341 1277 l 2,12,13
 285.269 1214 285.269 1214 245.635 1214 c 128,-1,14
 206 1214 206 1214 184.5 1235 c 128,-1,15
 163 1256 163 1256 163 1286.33333333 c 0,16,17
 163 1316.66666667 163 1316.66666667 179.2535 1339.24333333 c 128,-1,18
 195.507 1361.82 195.507 1361.82 264.743 1412.115 c 128,-1,19
 333.979 1462.41 333.979 1462.41 379.49 1513.71 c 128,-1,20
 425 1565 425 1565 450 1575.5 c 128,-1,21
 475 1586 475 1586 501 1586 c 128,-1,22
 527 1586 527 1586 548.5 1567.5 c 128,-1,23
 570 1549 570 1549 570 1514 c 2,24,-1
 570 792 l 1,25,-1
 646 792 l 2,26,27
 691 792 691 792 710.5 771 c 128,-1,28
 730 750 730 750 730 723.5 c 128,-1,29
 730 697 730 697 708 677 c 128,-1,30
 686 657 686 657 648 657 c 2,31,-1
 489 661 l 1,32,-1
 438.5 661 l 1,0,-1
1408 399 m 1,33,34
 1458 404 1458 404 1477 404 c 2,35,-1
 1673 404 l 1,36,-1
 1673 701 l 1,37,-1
 1408 399 l 1,33,34
1317 272 m 2,38,39
 1218 272 1218 272 1218 340 c 0,40,41
 1218 389.043 1218 389.043 1279 458 c 2,42,-1
 1618 845 l 1,43,44
 1690.24 929 1690.24 929 1747 929 c 0,45,46
 1833 929 1833 929 1833 840 c 2,47,-1
 1833 407 l 1,48,-1
 1869 410 l 2,49,50
 1931.5 415 1931.5 415 1968.75 415 c 128,-1,51
 2006 415 2006 415 2032 393.5 c 128,-1,52
 2058 372 2058 372 2058 339.5 c 128,-1,53
 2058 307 2058 307 2032 286 c 128,-1,54
 2006 265 2006 265 1959 265 c 128,-1,55
 1912 265 1912 265 1862 269 c 1,56,-1
 1833 270 l 1,57,-1
 1833 135 l 1,58,-1
 1892 135 l 2,59,60
 1937 135 1937 135 1956.5 114 c 128,-1,61
 1976 93 1976 93 1976 66.5 c 128,-1,62
 1976 40 1976 40 1954.5 20 c 128,-1,63
 1933 0 1933 0 1895 0 c 1,64,-1
 1755 4 l 1,65,-1
 1578 0 l 1,66,67
 1528 0 1528 0 1508 21 c 128,-1,68
 1488 42 1488 42 1488 67.5 c 128,-1,69
 1488 93 1488 93 1508 114 c 128,-1,70
 1528 135 1528 135 1570 135 c 2,71,-1
 1673 135 l 1,72,-1
 1673 272 l 1,73,-1
 1317 272 l 2,38,39
398 24 m 128,-1,75
 378 48 378 48 378 71.5 c 0,76,77
 378 151.749819161 378 151.749819161 466.137 229.449 c 0,78,79
 511 269 511 269 537.5 295 c 2,80,-1
 653.5 415 l 1,81,-1
 711 480 l 1,82,-1
 1308 1184 l 2,83,84
 1349 1232 1349 1232 1395 1294 c 2,85,-1
 1491 1422 l 2,86,87
 1558.49 1512.69 1558.49 1512.69 1595.705 1543.845 c 128,-1,88
 1632.92 1575 1632.92 1575 1677.46 1575 c 128,-1,89
 1722 1575 1722 1575 1743.5 1553 c 128,-1,90
 1765 1531 1765 1531 1765 1505 c 0,91,92
 1765 1434.02691751 1765 1434.02691751 1683.53067922 1354.82128842 c 0,93,94
 1602.06135844 1275.61565934 1602.06135844 1275.61565934 1489 1142 c 1,95,96
 766.604 299.982 766.604 299.982 713.683 234.4985 c 128,-1,97
 660.762 169.015 660.762 169.015 617.538356894 111.866151189 c 0,98,99
 574.314713788 54.7173023776 574.314713788 54.7173023776 534.691856894 27.3586519606 c 128,-1,100
 495.069 1.543655e-06 495.069 1.543655e-06 456.534 0 c 128,-1,74
 418 0 418 0 398 24 c 128,-1,75
EndSplineSet
EndChar

StartChar: onehalf
Encoding: 189 189 125
Width: 2218
Flags: W
LayerCount: 2
Fore
SplineSet
1683 184 m 1,0,1
 1845.25 125 1845.25 125 1886.12 125 c 0,2,3
 1960.89 125 1960.89 125 1984.87 170 c 128,-1,4
 2008.85 215 2008.85 215 2045.92 215 c 0,5,6
 2118 215 2118 215 2118 139 c 0,7,8
 2118 84.129 2118 84.129 2049.71 34.5645 c 128,-1,9
 1981.42 -15 1981.42 -15 1888.17 -15 c 128,-1,10
 1794.92 -15 1794.92 -15 1687 22 c 1,11,-1
 1630 40 l 2,12,13
 1561.25 62 1561.25 62 1527.62 62 c 128,-1,14
 1494 62 1494 62 1479.5 49.5 c 128,-1,15
 1465 37 1465 37 1429.665 11 c 128,-1,16
 1394.33 -15 1394.33 -15 1357.67 -15 c 128,-1,17
 1321 -15 1321 -15 1301.5 6.5 c 128,-1,18
 1282 28 1282 28 1282 57 c 0,19,20
 1282 119 1282 119 1380 168 c 1,21,22
 1610.61 280.448 1610.61 280.448 1733.805 405.7115 c 128,-1,23
 1857 530.975 1857 530.975 1857 636 c 0,24,25
 1857 706 1857 706 1810.5 750 c 128,-1,26
 1764 794 1764 794 1669 794 c 0,27,28
 1528.14 794 1528.14 794 1495 709.5 c 0,29,30
 1485 684 1485 684 1485 656 c 0,31,32
 1485 601.957 1485 601.957 1531.5 590.1035 c 128,-1,33
 1578 578.25 1578 578.25 1578 524 c 0,34,35
 1578 499 1578 499 1557.5 481 c 128,-1,36
 1537 463 1537 463 1502 463 c 0,37,38
 1431.89795918 463 1431.89795918 463 1381.94897959 515.0745 c 128,-1,39
 1332 567.149 1332 567.149 1332 633.574 c 0,40,41
 1332 759.827586207 1332 759.827586207 1423.615 840.913793103 c 128,-1,42
 1515.23 922 1515.23 922 1675.615 922 c 128,-1,43
 1836 922 1836 922 1926.5 842.147 c 128,-1,44
 2017 762.294 2017 762.294 2017 646 c 0,45,46
 2017 411.727 2017 411.727 1683 184 c 1,0,1
375.5 661 m 1,47,-1
 278 657 l 1,48,-1
 238 657 l 2,49,50
 196 657 196 657 177.5 678 c 128,-1,51
 159 699 159 699 159 724.5 c 128,-1,52
 159 750 159 750 179 771 c 128,-1,53
 199 792 199 792 241 792 c 2,54,-1
 348 792 l 1,55,-1
 348 1354 l 1,56,57
 329 1335 329 1335 313.5 1317.5 c 2,58,-1
 278 1277 l 2,59,60
 222.269 1214 222.269 1214 182.635 1214 c 128,-1,61
 143 1214 143 1214 121.5 1235 c 128,-1,62
 100 1256 100 1256 100 1286.33333333 c 0,63,64
 100 1316.66666667 100 1316.66666667 116.2535 1339.24333333 c 128,-1,65
 132.507 1361.82 132.507 1361.82 201.743 1412.115 c 128,-1,66
 270.979 1462.41 270.979 1462.41 316.49 1513.71 c 128,-1,67
 362 1565 362 1565 387 1575.5 c 128,-1,68
 412 1586 412 1586 438 1586 c 128,-1,69
 464 1586 464 1586 485.5 1567.5 c 128,-1,70
 507 1549 507 1549 507 1514 c 2,71,-1
 507 792 l 1,72,-1
 583 792 l 2,73,74
 628 792 628 792 647.5 771 c 128,-1,75
 667 750 667 750 667 723.5 c 128,-1,76
 667 697 667 697 645 677 c 128,-1,77
 623 657 623 657 585 657 c 2,78,-1
 426 661 l 1,79,-1
 375.5 661 l 1,47,-1
369 24.0000007718 m 128,-1,81
 349 48 349 48 349 71.5 c 0,82,83
 349 151.749819161 349 151.749819161 437.137 229.449 c 0,84,85
 482 269 482 269 508.5 295 c 2,86,-1
 624.5 415 l 1,87,-1
 682 480 l 1,88,-1
 1279 1184 l 2,89,90
 1320 1232 1320 1232 1366 1294 c 2,91,-1
 1462 1422 l 2,92,93
 1529.49 1512.69 1529.49 1512.69 1566.705 1543.845 c 128,-1,94
 1603.92 1575 1603.92 1575 1648.46 1575 c 128,-1,95
 1693 1575 1693 1575 1714.5 1553 c 128,-1,96
 1736 1531 1736 1531 1736 1505 c 0,97,98
 1736 1434.02691751 1736 1434.02691751 1654.53067922 1354.82128842 c 0,99,100
 1573.06135844 1275.61565934 1573.06135844 1275.61565934 1460 1142 c 1,101,102
 737.604 299.982 737.604 299.982 684.683 234.4985 c 128,-1,103
 631.762 169.015 631.762 169.015 588.538356894 111.866151189 c 0,104,105
 545.314713788 54.7173023776 545.314713788 54.7173023776 505.691856894 27.3586527324 c 128,-1,106
 466.069 3.08731e-06 466.069 3.08731e-06 427.5345 2.31548e-06 c 128,-1,80
 389 1.54365e-06 389 1.54365e-06 369 24.0000007718 c 128,-1,81
EndSplineSet
EndChar

StartChar: threequarters
Encoding: 190 190 126
Width: 2385
Flags: W
LayerCount: 2
Fore
SplineSet
268.675324675 731.354 m 128,-1,1
 166 813.708 166 813.708 166 929 c 0,2,3
 166 1005.11 166 1005.11 204.818 1052.555 c 128,-1,4
 243.636 1100 243.636 1100 285.818 1100 c 0,5,6
 371 1100 371 1100 371 1030 c 0,7,8
 371 1004.14 371 1004.14 342.5 977.535 c 128,-1,9
 314 950.93 314 950.93 314 924.965 c 0,10,11
 314 866.032258065 314 866.032258065 380.4525 821.016129032 c 128,-1,12
 446.905 776 446.905 776 521.952 776 c 0,13,14
 785 776 785 776 785 1013 c 0,15,16
 785 1100.56 785 1100.56 730.7355 1153.78 c 128,-1,17
 676.471 1207 676.471 1207 590 1207 c 0,18,19
 547.556 1207 547.556 1207 507.7095 1189 c 128,-1,20
 467.863 1171 467.863 1171 445.432 1171 c 128,-1,21
 423 1171 423 1171 407.5 1185.5 c 128,-1,22
 392 1200 392 1200 392 1223 c 128,-1,23
 392 1246 392 1246 403.5 1263.5 c 128,-1,24
 415 1281 415 1281 438 1307 c 2,25,-1
 558 1439 l 1,26,-1
 534 1439 l 2,27,28
 361.75 1439 361.75 1439 312.7359375 1448.10477941 c 0,29,30
 263.721875 1457.20955882 263.721875 1457.20955882 246.3609375 1477.63477941 c 128,-1,31
 229 1498.06 229 1498.06 229 1523.53 c 128,-1,32
 229 1549 229 1549 248.5 1569.5 c 128,-1,33
 268 1590 268 1590 293.5 1590 c 128,-1,34
 319 1590 319 1590 369 1580 c 0,35,36
 419 1570 419 1570 521.5 1570 c 128,-1,37
 624 1570 624 1570 671.2045 1585.5 c 128,-1,38
 718.409 1601 718.409 1601 743 1601 c 0,39,40
 799 1601 799 1601 799 1549 c 0,41,42
 799 1521.52 799 1521.52 748 1467 c 2,43,-1
 621 1333 l 1,44,45
 759.36 1328.87 759.36 1328.87 852.68 1245.095 c 128,-1,46
 946 1161.32 946 1161.32 946 1013.049 c 128,-1,47
 946 864.778 946 864.778 831.7645 756.889 c 128,-1,48
 717.529 649 717.529 649 544.439824675 649 c 128,-1,0
 371.350649351 649 371.350649351 649 268.675324675 731.354 c 128,-1,1
1568 399 m 1,49,50
 1618 404 1618 404 1637 404 c 2,51,-1
 1833 404 l 1,52,-1
 1833 701 l 1,53,-1
 1568 399 l 1,49,50
1477 272 m 2,54,55
 1378 272 1378 272 1378 340 c 0,56,57
 1378 389.043 1378 389.043 1439 458 c 2,58,-1
 1778 845 l 1,59,60
 1850.24 929 1850.24 929 1907 929 c 0,61,62
 1993 929 1993 929 1993 840 c 2,63,-1
 1993 407 l 1,64,-1
 2029 410 l 2,65,66
 2091.5 415 2091.5 415 2128.75 415 c 128,-1,67
 2166 415 2166 415 2192 393.5 c 128,-1,68
 2218 372 2218 372 2218 339.5 c 128,-1,69
 2218 307 2218 307 2192 286 c 128,-1,70
 2166 265 2166 265 2119 265 c 128,-1,71
 2072 265 2072 265 2022 269 c 1,72,-1
 1993 270 l 1,73,-1
 1993 135 l 1,74,-1
 2052 135 l 2,75,76
 2097 135 2097 135 2116.5 114 c 128,-1,77
 2136 93 2136 93 2136 66.5 c 128,-1,78
 2136 40 2136 40 2114.5 20 c 128,-1,79
 2093 0 2093 0 2055 0 c 1,80,-1
 1915 4 l 1,81,-1
 1738 0 l 1,82,83
 1688 0 1688 0 1668 21 c 128,-1,84
 1648 42 1648 42 1648 67.5 c 128,-1,85
 1648 93 1648 93 1668 114 c 128,-1,86
 1688 135 1688 135 1730 135 c 2,87,-1
 1833 135 l 1,88,-1
 1833 272 l 1,89,-1
 1477 272 l 2,54,55
558 24 m 128,-1,91
 538 48 538 48 538 71.5 c 0,92,93
 538 151.749819161 538 151.749819161 626.137 229.449 c 0,94,95
 671 269 671 269 697.5 295 c 2,96,-1
 813.5 415 l 1,97,-1
 871 480 l 1,98,-1
 1468 1184 l 2,99,100
 1509 1232 1509 1232 1555 1294 c 2,101,-1
 1651 1422 l 2,102,103
 1718.49 1512.69 1718.49 1512.69 1755.705 1543.845 c 128,-1,104
 1792.92 1575 1792.92 1575 1837.46 1575 c 128,-1,105
 1882 1575 1882 1575 1903.5 1553 c 128,-1,106
 1925 1531 1925 1531 1925 1505 c 0,107,108
 1925 1434.02691751 1925 1434.02691751 1843.53067922 1354.82128842 c 0,109,110
 1762.06135844 1275.61565934 1762.06135844 1275.61565934 1649 1142 c 1,111,112
 926.604 299.982 926.604 299.982 873.683 234.4985 c 128,-1,113
 820.762 169.015 820.762 169.015 777.538356894 111.866151189 c 0,114,115
 734.314713788 54.7173023776 734.314713788 54.7173023776 694.691856894 27.3586519606 c 128,-1,116
 655.069 1.543655e-06 655.069 1.543655e-06 616.534 0 c 128,-1,90
 578 0 578 0 558 24 c 128,-1,91
EndSplineSet
EndChar

StartChar: ordfeminine
Encoding: 170 170 127
Width: 1196
Flags: W
LayerCount: 2
Fore
SplineSet
773 1050 m 1,0,1
 643.455 1075 643.455 1075 546.5275 1075 c 0,2,3
 449.6 1075 449.6 1075 395.3 1037.735 c 128,-1,4
 341 1000.47 341 1000.47 341 951.049 c 128,-1,5
 341 901.628 341 901.628 386.018 872.314 c 128,-1,6
 431.036 843 431.036 843 505 843 c 0,7,8
 670.196 843 670.196 843 773 950 c 1,9,-1
 773 1050 l 1,0,1
795 803 m 1,10,11
 698.199712737 693 698.199712737 693 483.5 693 c 0,12,13
 338.230769231 693 338.230769231 693 252.115384615 759.637 c 128,-1,14
 166 826.274 166 826.274 166 941 c 0,15,16
 166 1131.27 166 1131.27 376.5 1188 c 0,17,18
 447 1207 447 1207 558.214 1207 c 128,-1,19
 669.429 1207 669.429 1207 773 1182 c 1,20,-1
 773 1275 l 2,21,22
 773 1353 773 1353 722.5 1399 c 128,-1,23
 672 1445 672 1445 563.5 1445 c 128,-1,24
 455 1445 455 1445 425 1409 c 0,25,26
 415 1397 415 1397 401 1374.5 c 0,27,28
 364.6 1316 364.6 1316 305 1316 c 0,29,30
 221 1316 221 1316 221 1393.01 c 128,-1,31
 221 1470.02 221 1470.02 321.0525 1532.01 c 128,-1,32
 421.105 1594 421.105 1594 571 1594 c 0,33,34
 832.218 1594 832.218 1594 912.5 1413 c 0,35,36
 940 1351 940 1351 940 1267 c 2,37,-1
 940 1044 l 2,38,39
 940 886.222 940 886.222 965 851.5 c 0,40,41
 974 839 974 839 1002 820.838 c 128,-1,42
 1030 802.676 1030 802.676 1030 766.838 c 0,43,44
 1030 693 1030 693 933.125 693 c 128,-1,45
 836.25 693 836.25 693 795 803 c 1,10,11
EndSplineSet
EndChar

StartChar: ordmasculine
Encoding: 186 186 128
Width: 1196
Flags: W
LayerCount: 2
Fore
SplineSet
794.848684211 920.373 m 128,-1,1
 869 999.746 869 999.746 869 1134 c 0,2,3
 869 1356.57 869 1356.57 712 1424.5 c 0,4,5
 660 1447 660 1447 594.5 1447 c 0,6,7
 468.923076923 1447 468.923076923 1447 396.461538462 1365.085 c 128,-1,8
 324 1283.17 324 1283.17 324 1146.845 c 128,-1,9
 324 1010.52 324 1010.52 402.4815 925.76 c 128,-1,10
 480.963 841 480.963 841 600.830184211 841 c 128,-1,0
 720.697368421 841 720.697368421 841 794.848684211 920.373 c 128,-1,1
280.694915254 817.109 m 128,-1,12
 165 941.218 165 941.218 165 1136.389 c 128,-1,13
 165 1331.56 165 1331.56 289.817 1462.78 c 128,-1,14
 414.634 1594 414.634 1594 602.817 1594 c 128,-1,15
 791 1594 791 1594 911 1474 c 128,-1,16
 1031 1354 1031 1354 1031 1152.138 c 128,-1,17
 1031 950.276 1031 950.276 906.65 821.638 c 128,-1,18
 782.3 693 782.3 693 589.344915254 693 c 128,-1,11
 396.389830508 693 396.389830508 693 280.694915254 817.109 c 128,-1,12
EndSplineSet
EndChar

StartChar: copyright
Encoding: 169 169 129
Width: 1880
Flags: W
LayerCount: 2
Fore
SplineSet
670.7935 1044.27142857 m 128,-1,1
 782.587 1155 782.587 1155 961 1155 c 0,2,3
 997 1155 997 1155 1031 1145 c 1,4,5
 1030 1150 1030 1150 1030 1166.5 c 128,-1,6
 1030 1183 1030 1183 1047.5 1199.5 c 128,-1,7
 1065 1216 1065 1216 1089 1216 c 0,8,9
 1140 1216 1140 1216 1154.235 1172.8 c 128,-1,10
 1168.47 1129.6 1168.47 1129.6 1191.73 1094.3 c 2,11,-1
 1240 1023 l 2,12,13
 1266 983.133 1266 983.133 1266 955.567 c 128,-1,14
 1266 928 1266 928 1248 910.5 c 128,-1,15
 1230 893 1230 893 1194.39 893 c 128,-1,16
 1158.78 893 1158.78 893 1127.39 931 c 0,17,18
 1067.09 1004 1067.09 1004 956.7595 1004 c 128,-1,19
 846.429 1004 846.429 1004 789.2145 938.4635 c 128,-1,20
 732 872.927 732 872.927 732 767.964 c 128,-1,21
 732 663 732 663 791.5 600.5 c 128,-1,22
 851 538 851 538 962.075 538 c 128,-1,23
 1073.15 538 1073.15 538 1103.77 596 c 128,-1,24
 1134.39 654 1134.39 654 1187 654 c 0,25,26
 1219 654 1219 654 1236.5 632 c 128,-1,27
 1254 610 1254 610 1254 575.5 c 0,28,29
 1254 499.913580247 1254 499.913580247 1166.5 440.5 c 128,-1,30
 1078.87 381 1078.87 381 973.436 381 c 0,31,32
 783 381 783 381 671 493 c 128,-1,33
 559 605 559 605 559 769.271428571 c 128,-1,0
 559 933.542857143 559 933.542857143 670.7935 1044.27142857 c 128,-1,1
480.5 321 m 128,-1,35
 664.964 144 664.964 144 950.657 144 c 128,-1,36
 1236.35 144 1236.35 144 1410.175 314.7005 c 128,-1,37
 1584 485.401 1584 485.401 1584 773.7605 c 128,-1,38
 1584 1062.12 1584 1062.12 1404.965 1239.06 c 128,-1,39
 1225.93 1416 1225.93 1416 939.74 1416 c 128,-1,40
 653.55 1416 653.55 1416 474.775 1238.275 c 128,-1,41
 296 1060.55 296 1060.55 296 779.29234104 c 128,-1,34
 296 498.034682081 296 498.034682081 480.5 321 c 128,-1,35
119 794.5 m 0,42,43
 119 934 119 934 179.5 1081 c 128,-1,44
 240 1228 240 1228 349.5 1338 c 128,-1,45
 459 1448 459 1448 611.5 1511.5 c 128,-1,46
 764 1575 764 1575 949 1575 c 0,47,48
 1289.49 1575 1289.49 1575 1522.5 1354.5 c 0,49,50
 1674.51 1210.65 1674.51 1210.65 1732 1001.5 c 0,51,52
 1761 896 1761 896 1761 777.5 c 0,53,54
 1761 546 1761 546 1647.96984925 365.151758794 c 128,-1,55
 1534.93969849 184.303517588 1534.93969849 184.303517588 1344.87984925 84.651758794 c 128,-1,56
 1154.82 -15 1154.82 -15 937.3595 -15 c 128,-1,57
 719.899 -15 719.899 -15 532.906 87.278 c 128,-1,58
 345.913 189.556 345.913 189.556 232.4565 369.0235 c 128,-1,59
 119 548.491 119 548.491 119 794.5 c 0,42,43
EndSplineSet
EndChar

StartChar: asciitilde
Encoding: 126 126 130
Width: 1338
Flags: W
LayerCount: 2
Fore
SplineSet
190.5 369.5 m 128,-1,1
 177 366 177 366 156 366 c 128,-1,2
 135 366 135 366 112.5 390 c 128,-1,3
 90 414 90 414 90 473.5 c 128,-1,4
 90 533 90 533 115.5 592.5 c 128,-1,5
 141 652 141 652 184.5 694 c 0,6,7
 275.643 782 275.643 782 405 782 c 0,8,9
 479.258 782 479.258 782 533.329 757.35 c 128,-1,10
 587.4 732.7 587.4 732.7 686.7 658.35 c 2,11,-1
 824 557 l 1,12,13
 895.936 505.887 895.936 505.887 918.968 499.944 c 128,-1,14
 942 494 942 494 959 494 c 0,15,16
 1056.63120567 494 1056.63120567 494 1089.5 643.5 c 0,17,18
 1105 714 1105 714 1122.5 731 c 128,-1,19
 1140 748 1140 748 1170.5 748 c 128,-1,20
 1201 748 1201 748 1224.5 724 c 128,-1,21
 1248 700 1248 700 1248 640.5 c 128,-1,22
 1248 581 1248 581 1222.5 521.5 c 128,-1,23
 1197 462 1197 462 1153.5 420 c 0,24,25
 1062.36 332 1062.36 332 934.4505 332 c 128,-1,26
 806.541 332 806.541 332 646 464 c 1,27,-1
 545 545 l 2,28,29
 470.748 604.021 470.748 604.021 443.874 612.01 c 128,-1,30
 417 620 417 620 396 620 c 0,31,32
 284.308142533 620 284.308142533 620 248.938 471.241 c 0,33,34
 231.876 399.482 231.876 399.482 217.938 386.241 c 128,-1,0
 204 373 204 373 190.5 369.5 c 128,-1,1
EndSplineSet
EndChar

StartChar: registered
Encoding: 174 174 131
Width: 1366
Flags: W
LayerCount: 2
Fore
SplineSet
667 1033 m 2,0,1
 801 1033 801 1033 801 1107 c 0,2,3
 801 1146.74 801 1146.74 777.5 1159.87 c 0,4,5
 734.316 1184 734.316 1184 651 1184 c 2,6,-1
 631 1184 l 2,7,8
 623 1184 623 1184 616 1183 c 1,9,-1
 616 1033 l 1,10,-1
 667 1033 l 2,0,1
929 1105 m 0,11,12
 929 989.714 929 989.714 809 949 c 1,13,14
 843.772 891.874 843.772 891.874 891.5 879.5 c 0,15,16
 905 876 905 876 924.5 872 c 0,17,18
 965 863.692 965 863.692 965 818 c 0,19,20
 965 798 965 798 949.5 781 c 128,-1,21
 934 764 934 764 905.5 764 c 0,22,23
 814.323 764 814.323 764 749.5 843.5 c 0,24,25
 723 876 723 876 694 936 c 1,26,-1
 616 936 l 1,27,-1
 616 866 l 1,28,-1
 644 866 l 2,29,30
 668 866 668 866 681.5 851.5 c 128,-1,31
 695 837 695 837 695 819.5 c 128,-1,32
 695 802 695 802 683 784.5 c 128,-1,33
 671 767 671 767 645 767 c 2,34,-1
 477 767 l 2,35,36
 451 767 451 767 436.5 782 c 128,-1,37
 422 797 422 797 422 818 c 128,-1,38
 422 839 422 839 436.5 852.5 c 128,-1,39
 451 866 451 866 477 866 c 2,40,-1
 499 866 l 1,41,-1
 499 1168 l 1,42,43
 487 1165 487 1165 463 1165 c 128,-1,44
 439 1165 439 1165 424 1182 c 128,-1,45
 409 1199 409 1199 409 1222.5 c 128,-1,46
 409 1246 409 1246 435.5 1265.5 c 128,-1,47
 462 1285 462 1285 524 1285 c 2,48,-1
 667 1285 l 2,49,50
 929 1285 929 1285 929 1105 c 0,11,12
996.945454545 704.9645 m 128,-1,52
 1114 819.929 1114 819.929 1114 1014.0195 c 128,-1,53
 1114 1208.11 1114 1208.11 993.46 1326.555 c 128,-1,54
 872.92 1445 872.92 1445 680.46 1445 c 128,-1,55
 488 1445 488 1445 368.5 1325.5 c 128,-1,56
 249 1206 249 1206 249 1016.8795 c 128,-1,57
 249 827.759 249 827.759 372.125 708.8795 c 128,-1,58
 495.25 590 495.25 590 687.570454545 590 c 128,-1,51
 879.890909091 590 879.890909091 590 996.945454545 704.9645 c 128,-1,52
272 618.5 m 128,-1,60
 107 776 107 776 107 1012.36 c 128,-1,61
 107 1248.72 107 1248.72 273.3585 1411.86 c 128,-1,62
 439.717 1575 439.717 1575 680.5695 1575 c 128,-1,63
 921.422 1575 921.422 1575 1089.711 1417.43 c 128,-1,64
 1258 1259.86 1258 1259.86 1258 1016.169 c 128,-1,65
 1258 772.478 1258 772.478 1088.394 616.739 c 128,-1,66
 918.788 461 918.788 461 677.894 461 c 128,-1,59
 437 461 437 461 272 618.5 c 128,-1,60
EndSplineSet
EndChar

StartChar: dollar
Encoding: 36 36 132
Width: 1369
Flags: W
LayerCount: 2
Fore
SplineSet
519 7 m 1,0,1
 487.429 -58 487.429 -58 423.312 -58 c 128,-1,2
 359.195 -58 359.195 -58 343 25 c 0,3,4
 334.04 69.8013 334.04 69.8013 297.02 124.901 c 1,5,-1
 146.5 336 l 2,6,7
 86.2472 420.947 86.2472 420.947 77.6236 448.973 c 128,-1,8
 69 477 69 477 69 502.5 c 128,-1,9
 69 528 69 528 87 550 c 128,-1,10
 105 572 105 572 139.5 572 c 128,-1,11
 174 572 174 572 204.5 549.5 c 128,-1,12
 235 527 235 527 273 460 c 0,13,14
 364.463 298.737 364.463 298.737 431.8335 238.958 c 0,15,16
 529.834536133 152 529.834536133 152 751 152 c 0,17,18
 823 152 823 152 896 173 c 0,19,20
 1118.16813309 236.911380752 1118.16813309 236.911380752 1118.16813309 444.737966528 c 0,21,22
 1118.16813309 629.759688025 1118.16813309 629.759688025 889.5 740.5 c 0,23,24
 810 779 810 779 691 808 c 0,25,26
 450.501209323 866.608948989 450.501209323 866.608948989 344.250604661 967.009474494 c 128,-1,27
 238 1067.41 238 1067.41 238 1213.9 c 128,-1,28
 238 1360.39 238 1360.39 346.171 1457.12 c 128,-1,29
 454.342 1553.85 454.342 1553.85 662 1571 c 1,30,-1
 662 1852 l 2,31,32
 662 1905 662 1905 682.5 1930.5 c 128,-1,33
 703 1956 703 1956 733 1956 c 0,34,35
 804 1956 804 1956 804 1852 c 2,36,-1
 804 1575 l 1,37,38
 871.297 1572.76 871.297 1572.76 903 1570 c 1,39,-1
 903 1572 l 1,40,41
 905 1604 905 1604 926.5 1622 c 128,-1,42
 948 1640 948 1640 978.916666667 1640 c 128,-1,43
 1009.83333333 1640 1009.83333333 1640 1035.29166667 1618.18 c 128,-1,44
 1060.75 1596.36 1060.75 1596.36 1093.045 1530.72 c 128,-1,45
 1125.34 1465.08 1125.34 1465.08 1163.17 1418.04 c 2,46,-1
 1216.5 1351.5 l 2,47,48
 1260 1296.77 1260 1296.77 1260 1257.39 c 0,49,50
 1260 1174 1260 1174 1186 1174 c 0,51,52
 1126.55 1174 1126.55 1174 1068.885 1267.195 c 128,-1,53
 1011.22 1360.39 1011.22 1360.39 945.61 1393.195 c 128,-1,54
 880 1426 880 1426 774.5 1426 c 0,55,56
 590.576271186 1426 590.576271186 1426 512.788135593 1364.805 c 128,-1,57
 435 1303.61 435 1303.61 435 1222.995 c 128,-1,58
 435 1142.38 435 1142.38 501.5265 1080.54 c 128,-1,59
 568.053 1018.7 568.053 1018.7 739.027 975.848 c 0,60,61
 1041.04927226 900.157391998 1041.04927226 900.157391998 1167.87463613 778.326195999 c 0,62,63
 1299.10692067 652.261616396 1299.10692067 652.261616396 1299.10692067 469.414658274 c 128,-1,64
 1299.10692067 286.567700151 1299.10692067 286.567700151 1162.64846034 151.144600076 c 128,-1,65
 1026.19 15.7215 1026.19 15.7215 814 -9 c 1,66,-1
 814 -288 l 2,67,68
 814 -395 814 -395 743 -395 c 128,-1,69
 672 -395 672 -395 672 -288 c 2,70,-1
 672 -14 l 1,71,72
 581.691 -9.59468 581.691 -9.59468 519 7 c 1,0,1
EndSplineSet
EndChar

StartChar: cent
Encoding: 162 162 133
Width: 1029
Flags: W
LayerCount: 2
Fore
SplineSet
526 -275 m 128,-1,1
 455 -275 455 -275 455 -168 c 2,2,-1
 455 94 l 1,3,4
 293.895 119.777 293.895 119.777 187.4475 237.5925 c 128,-1,5
 81 355.408 81 355.408 81 538.982 c 128,-1,6
 81 722.556 81 722.556 185.892 850.757 c 128,-1,7
 290.784 978.958 290.784 978.958 455 1011 c 1,8,-1
 455 1278 l 2,9,10
 455 1331 455 1331 475.5 1356.5 c 128,-1,11
 496 1382 496 1382 526 1382 c 0,12,13
 597 1382 597 1382 597 1278 c 2,14,-1
 597 1018 l 1,15,16
 657.118 1011.56 657.118 1011.56 693 999 c 1,17,18
 696 1025 696 1025 712.5 1041.5 c 128,-1,19
 729 1058 729 1058 753.5 1058 c 0,20,21
 797.909 1058 797.909 1058 815 1011 c 0,22,23
 823.135 989.308 823.135 989.308 851.92 942.907 c 128,-1,24
 880.705 896.506 880.705 896.506 896.852 877.253 c 128,-1,25
 913 858 913 858 930.5 833 c 128,-1,26
 948 808 948 808 948 778 c 128,-1,27
 948 748 948 748 930.5 729.5 c 128,-1,28
 913 711 913 711 893 711 c 0,29,30
 832.124020013 711 832.124020013 711 783.21 772.371 c 0,31,32
 711.770906447 862 711.770906447 862 563.934835939 862 c 0,33,34
 416.098765432 862 416.098765432 862 336.049382716 776.684 c 128,-1,35
 256 691.368 256 691.368 256 552.184 c 128,-1,36
 256 413 256 413 332 329.5 c 128,-1,37
 408 246 408 246 563.3335 246 c 128,-1,38
 718.667 246 718.667 246 780 338 c 0,39,40
 802 371 802 371 819.5 384 c 128,-1,41
 837 397 837 397 865 397 c 128,-1,42
 893 397 893 397 912.5 377.5 c 128,-1,43
 932 358 932 358 932 326.5 c 0,44,45
 932 253.2 932 253.2 838.633 178.5065 c 128,-1,46
 745.266 103.813 745.266 103.813 597 91 c 1,47,-1
 597 -168 l 2,48,0
 597 -275 597 -275 526 -275 c 128,-1,1
EndSplineSet
EndChar

StartChar: ae
Encoding: 230 230 134
Width: 1880
Flags: W
LayerCount: 2
Fore
SplineSet
548.643 441 m 0,0,1
 326.578947368 441 326.578947368 441 283 337.5 c 0,2,3
 271 309 271 309 271 280.5 c 0,4,5
 271 221.867924528 271 221.867924528 325.9485 181.433962264 c 128,-1,6
 380.897 141 380.897 141 484.805642857 141 c 0,7,8
 588.714285714 141 588.714285714 141 683.276642857 185.129 c 128,-1,9
 777.839 229.258 777.839 229.258 829 306 c 1,10,11
 811 355 811 355 805 409 c 1,12,13
 647.286 441 647.286 441 548.643 441 c 0,0,1
977 605 m 1,14,15
 1049 601 1049 601 1105.5 601 c 2,16,-1
 1207.5 601 l 2,17,18
 1455.9 601 1455.9 601 1512.95 631.0265 c 128,-1,19
 1570 661.053 1570 661.053 1570 722.082 c 128,-1,20
 1570 783.111 1570 783.111 1501.22 830.0555 c 128,-1,21
 1432.44 877 1432.44 877 1347.22 877 c 0,22,23
 1195.15714286 877 1195.15714286 877 1097.84357143 803.7545 c 128,-1,24
 1000.53 730.509 1000.53 730.509 977 605 c 1,14,15
1655.85 315 m 0,25,26
 1744 315 1744 315 1744 236.5 c 0,27,28
 1744 200 1744 200 1716.5 155.5 c 128,-1,29
 1689 111 1689 111 1635.5 73 c 0,30,31
 1511.61 -15 1511.61 -15 1323 -15 c 0,32,33
 1188 -15 1188 -15 1080.5 36.5 c 128,-1,34
 973 88 973 88 904 174 c 1,35,36
 743.929 -15 743.929 -15 469.559 -15 c 128,-1,37
 195.189 -15 195.189 -15 115 155 c 0,38,39
 90 208 90 208 90 276 c 0,40,41
 90 417.871559633 90 417.871559633 201.778 500.935779817 c 128,-1,42
 313.556 584 313.556 584 529 584 c 0,43,44
 681.235 584 681.235 584 803 554 c 1,45,-1
 803 647 l 2,46,47
 803 767 803 767 743 823.5 c 128,-1,48
 683 880 683 880 574 880 c 128,-1,49
 465 880 465 880 414.5 859 c 128,-1,50
 364 838 364 838 349.069 790.207 c 128,-1,51
 334.138 742.414 334.138 742.414 292.5 721 c 0,52,53
 275 712 275 712 252 712 c 0,54,55
 157 712 157 712 157 814 c 0,56,57
 157 901.075 157 901.075 271.484 968.0375 c 128,-1,58
 385.968 1035 385.968 1035 562 1035 c 0,59,60
 830.319 1035 830.319 1035 930 842 c 1,61,62
 997 930 997 930 1098.5 982.5 c 128,-1,63
 1200 1035 1200 1035 1315.5 1035 c 0,64,65
 1521.03448276 1035 1521.03448276 1035 1632.51724138 942.6285 c 128,-1,66
 1744 850.257 1744 850.257 1744 715.212 c 128,-1,67
 1744 580.167 1744 580.167 1635.5769473 513.908084078 c 0,68,69
 1527.1538946 447.649168155 1527.1538946 447.649168155 1185.91275087 447.649168155 c 0,70,71
 1090.43544886 447.649168155 1090.43544886 447.649168155 977 453 c 1,72,73
 987.003 314.965 987.003 314.965 1084.5 229 c 128,-1,74
 1182.04 143 1182.04 143 1334 143 c 0,75,76
 1531.25 143 1531.25 143 1580 248 c 0,77,78
 1610.71 315 1610.71 315 1655.85 315 c 0,25,26
EndSplineSet
EndChar

StartChar: thorn
Encoding: 254 254 135
Width: 1194
Flags: W
LayerCount: 2
Fore
SplineSet
649 879 m 0,0,1
 467.582 879 467.582 879 357 723 c 1,2,-1
 357 240 l 1,3,4
 457.66 143 457.66 143 615.8155 143 c 128,-1,5
 773.971 143 773.971 143 867.4855 252.638 c 128,-1,6
 961 362.276 961 362.276 961 508 c 0,7,8
 961 789.474 961 789.474 775 858 c 0,9,10
 718 879 718 879 649 879 c 0,0,1
357 903 m 1,11,12
 473.852459016 1035 473.852459016 1035 671.200039032 1035 c 0,13,14
 868.547619048 1035 868.547619048 1035 1001.77380952 904.872 c 128,-1,15
 1135 774.744 1135 774.744 1135 534.2995 c 128,-1,16
 1135 293.855 1135 293.855 988.0275 139.4275 c 128,-1,17
 841.055 -15 841.055 -15 608 -15 c 0,18,19
 506.519 -15 506.519 -15 410.5 27.5 c 0,20,21
 380 41 380 41 357 59 c 1,22,-1
 357 -140 l 2,23,24
 357 -288.667 357 -288.667 384.5 -334.5 c 0,25,26
 395 -352 395 -352 417 -366 c 0,27,28
 460 -393.364 460 -393.364 460 -433.182 c 0,29,30
 460 -523 460 -523 360 -523 c 0,31,32
 238 -523 238 -523 197.5 -355 c 0,33,34
 184 -299 184 -299 184 -224 c 2,35,-1
 184 1353 l 2,36,37
 184 1391 184 1391 177 1401 c 128,-1,38
 170 1411 170 1411 157 1411 c 1,39,-1
 72 1399 l 1,40,41
 32 1399 32 1399 7 1419.5 c 128,-1,42
 -18 1440 -18 1440 -18 1477 c 0,43,44
 -18 1552.52 -18 1552.52 91 1563 c 0,45,46
 151.69 1568.52 151.69 1568.52 182.845 1576.76 c 2,47,-1
 232 1589.5 l 2,48,49
 250 1594 250 1594 285.5 1594 c 128,-1,50
 321 1594 321 1594 339 1567 c 128,-1,51
 357 1540 357 1540 357 1498 c 2,52,-1
 357 903 l 1,11,12
EndSplineSet
EndChar

StartChar: Thorn
Encoding: 222 222 136
Width: 1536
Flags: W
LayerCount: 2
Fore
SplineSet
986.5 1049.5 m 0,0,1
 894 1070 894 1070 756.5 1070 c 128,-1,2
 619 1070 619 1070 527 1058 c 1,3,-1
 527 527 l 1,4,5
 633.667 517 633.667 517 765 517 c 0,6,7
 1253 517 1253 517 1253 790 c 0,8,9
 1253 990.438 1253 990.438 986.5 1049.5 c 0,0,1
441 6 m 1,10,-1
 231 0 l 1,11,12
 186 0 186 0 160 21.5 c 128,-1,13
 134 43 134 43 134 79 c 128,-1,14
 134 115 134 115 164.5 138 c 128,-1,15
 195 161 195 161 246 161 c 2,16,-1
 341 161 l 1,17,-1
 341 1413 l 1,18,-1
 246 1413 l 2,19,20
 195 1413 195 1413 164.5 1436 c 128,-1,21
 134 1459 134 1459 134 1495 c 128,-1,22
 134 1531 134 1531 160 1552.5 c 128,-1,23
 186 1574 186 1574 231 1574 c 1,24,-1
 441 1568 l 1,25,-1
 638 1574 l 1,26,27
 717.444 1574 717.444 1574 739 1525.5 c 0,28,29
 745 1512 745 1512 745 1487 c 128,-1,30
 745 1462 745 1462 716.5 1437.5 c 128,-1,31
 688 1413 688 1413 618 1413 c 2,32,-1
 527 1413 l 1,33,-1
 527 1222 l 1,34,35
 648.333 1235 648.333 1235 793.667 1235 c 0,36,37
 1096.15044248 1235 1096.15044248 1235 1273.07522124 1118.765 c 128,-1,38
 1450 1002.53 1450 1002.53 1450 800 c 0,39,40
 1450 476.344 1450 476.344 1064 385 c 0,41,42
 933 354 933 354 811.6665 354 c 128,-1,43
 690.333 354 690.333 354 649.667 356 c 2,44,-1
 580 359.5 l 2,45,46
 551 361 551 361 527 363 c 1,47,-1
 527 161 l 1,48,-1
 618 161 l 2,49,50
 688 161 688 161 716.5 136.5 c 128,-1,51
 745 112 745 112 745 87 c 0,52,53
 745 3.79774729752e-05 745 3.79774729752e-05 638 0 c 1,54,-1
 441 6 l 1,10,-1
EndSplineSet
EndChar

StartChar: dotlessi
Encoding: 305 305 137
Width: 682
Flags: W
LayerCount: 2
Fore
SplineSet
592.5 0 m 1,0,-1
 404.125 6 l 1,1,2
 362 6 362 6 341 5 c 2,3,-1
 297 3 l 2,4,5
 247 0 247 0 209 0 c 0,6,7
 112 0 112 0 112 74 c 0,8,9
 112 110 112 110 142.5 130 c 128,-1,10
 173 150 173 150 224 150 c 2,11,-1
 302 150 l 1,12,-1
 302 802 l 2,13,14
 302 862 302 862 276 862 c 0,15,16
 264.25 862 264.25 862 238.6365 855 c 128,-1,17
 213.023 848 213.023 848 181.511 848 c 128,-1,18
 150 848 150 848 125 869 c 128,-1,19
 100 890 100 890 100 926.5 c 0,20,21
 100 1002.41 100 1002.41 208 1013 c 0,22,23
 274.879 1018.9 274.879 1018.9 317.632 1030.95 c 128,-1,24
 360.385 1043 360.385 1043 399.693 1043 c 0,25,26
 475 1043 475 1043 475 947 c 2,27,-1
 475 150 l 1,28,-1
 554 150 l 2,29,30
 680 150 680 150 680 71 c 0,31,32
 680 43 680 43 655.5 21.5 c 128,-1,33
 631 0 631 0 592.5 0 c 1,0,-1
EndSplineSet
EndChar

StartChar: oe
Encoding: 339 339 138
Width: 2047
Flags: W
LayerCount: 2
Fore
SplineSet
404.459 245.855555556 m 128,-1,1
 498.918 143 498.918 143 644.803 143 c 128,-1,2
 790.688 143 790.688 143 879.844 239.413 c 128,-1,3
 969 335.826 969 335.826 969 499 c 0,4,5
 969 768.571 969 768.571 779 850 c 0,6,7
 716 877 716 877 637 877 c 0,8,9
 486.361702128 877 486.361702128 877 398.180851064 778.321428571 c 128,-1,10
 310 679.642857143 310 679.642857143 310 514.176984127 c 128,-1,0
 310 348.711111111 310 348.711111111 404.459 245.855555556 c 128,-1,1
1152 604 m 1,11,-1
 1220.5 602 l 2,12,13
 1255 601 1255 601 1438.95 601 c 128,-1,14
 1622.9 601 1622.9 601 1679.95 631.0265 c 128,-1,15
 1737 661.053 1737 661.053 1737 722.082 c 128,-1,16
 1737 783.111 1737 783.111 1668.22 830.0555 c 128,-1,17
 1599.44 877 1599.44 877 1515.22 877 c 0,18,19
 1368.43661972 877 1368.43661972 877 1273.06330986 801.761 c 128,-1,20
 1177.69 726.522 1177.69 726.522 1152 604 c 1,11,-1
1057 206 m 1,21,22
 909.666666667 -15 909.666666667 -15 612 -15 c 0,23,24
 519 -15 519 -15 426 24.5 c 128,-1,25
 333 64 333 64 268.5 133 c 0,26,27
 136 274.744186047 136 274.744186047 136 503.185961636 c 128,-1,28
 136 731.627737226 136 731.627737226 281.3215 883.313868613 c 128,-1,29
 426.643 1035 426.643 1035 645 1035 c 0,30,31
 783 1035 783 1035 891.5 979 c 128,-1,32
 1000 923 1000 923 1066 817 c 1,33,34
 1217.26055609 1035 1217.26055609 1035 1513 1035 c 0,35,36
 1688.03448276 1035 1688.03448276 1035 1799.51724138 942.6285 c 128,-1,37
 1911 850.257 1911 850.257 1911 715.212 c 128,-1,38
 1911 580.167 1911 580.167 1802.00913479 513.562070054 c 128,-1,39
 1693.01826958 446.957140108 1693.01826958 446.957140108 1387.66488995 446.957140108 c 0,40,41
 1306.62507218 446.957140108 1306.62507218 446.957140108 1148 453 c 1,42,43
 1166.46 297.95 1166.46 297.95 1268.015 220.475 c 128,-1,44
 1369.57 143 1369.57 143 1480.78 143 c 128,-1,45
 1592 143 1592 143 1656.5 167.5 c 128,-1,46
 1721 192 1721 192 1749.355 253.5 c 128,-1,47
 1777.71 315 1777.71 315 1822.85 315 c 0,48,49
 1911 315 1911 315 1911 236.5 c 0,50,51
 1911 200 1911 200 1883.5 155.5 c 128,-1,52
 1856 111 1856 111 1802.5 73 c 0,53,54
 1678.61 -15 1678.61 -15 1483.39 -15 c 128,-1,55
 1288.17 -15 1288.17 -15 1141.5 110.5 c 0,56,57
 1093 152 1093 152 1057 206 c 1,21,22
EndSplineSet
EndChar

